{"glyphs":{"0":{"ha":613,"x_min":39,"x_max":575,"o":"m 257 -18 q 99 44 160 -18 q 39 210 39 107 q 44 272 39 243 q 106 418 60 354 q 218 518 151 482 q 360 554 285 554 q 516 494 457 554 q 575 333 575 433 q 568 268 575 307 q 508 120 553 185 q 397 19 463 56 q 257 -18 331 -18 m 278 4 q 396 72 349 4 q 461 251 443 140 q 468 342 468 293 q 434 483 468 433 q 343 532 400 532 q 222 463 274 532 q 151 283 169 394 q 144 201 144 235 q 178 58 144 113 q 278 4 213 4 z "},"1":{"ha":404,"x_min":10,"x_max":344,"o":"m 15 0 q 10 8 10 0 q 15 17 10 17 q 90 24 65 17 q 128 51 115 31 q 149 113 140 71 l 197 376 q 204 431 204 414 q 199 453 204 446 q 182 460 194 460 q 86 425 163 460 l 83 424 q 76 431 78 424 q 79 440 75 438 l 306 551 q 313 551 308 554 q 315 544 317 549 l 238 113 q 233 71 233 88 q 256 27 233 38 q 340 17 278 17 q 344 8 344 17 q 340 0 344 0 q 272 1 297 0 l 179 3 l 85 1 q 15 0 60 0 z "},"2":{"ha":508,"x_min":0,"x_max":457,"o":"m 6 21 q 213 199 143 133 q 316 317 283 264 q 349 428 349 371 q 326 494 349 468 q 265 519 304 519 q 179 477 219 519 q 101 353 139 435 q 97 350 99 350 q 89 353 93 350 q 86 360 85 356 l 167 569 q 172 572 169 572 q 179 569 176 572 q 181 564 182 567 q 176 542 176 550 q 190 526 176 526 q 231 536 201 526 q 325 554 285 554 q 413 525 381 554 q 444 446 444 496 q 418 351 444 394 q 347 267 392 307 q 215 158 301 226 q 124 86 161 117 q 121 83 119 85 q 125 82 122 82 q 306 87 249 82 q 393 110 363 92 q 439 169 424 128 q 446 174 442 174 q 453 171 450 174 q 456 165 457 168 l 407 11 q 394 0 401 0 l 14 0 q 3 7 7 0 q 6 21 0 14 z "},"3":{"ha":481,"x_min":-53,"x_max":429,"o":"m 429 425 q 381 283 429 351 q 257 182 333 215 q 360 128 325 171 q 394 22 394 85 q 390 -21 394 3 q 326 -155 379 -86 q 180 -284 274 -224 q -43 -383 86 -344 q -50 -377 -47 -385 q -50 -367 -53 -369 q 187 -217 106 -312 q 286 -24 268 -121 q 290 21 290 -1 q 262 114 290 79 q 176 149 233 149 q 118 139 154 149 l 117 139 q 108 148 111 139 q 111 158 106 157 q 262 237 211 185 q 328 378 313 289 q 333 431 333 404 q 258 521 333 521 q 72 357 149 521 q 67 356 71 356 q 58 358 63 356 q 56 364 54 361 l 138 564 q 142 567 140 567 q 149 564 146 567 q 151 557 153 561 q 147 538 147 544 q 164 524 147 524 q 206 535 179 524 q 257 549 236 544 q 303 554 278 554 q 397 518 364 554 q 429 425 429 482 z "},"4":{"ha":592,"x_min":-24,"x_max":510,"o":"m 504 75 q 504 40 510 75 q 493 4 499 4 l 396 10 l 356 -219 q 343 -239 353 -235 l 274 -261 l 265 -264 q 261 -253 260 -264 l 308 11 q -14 14 222 14 q -22 19 -19 14 q -18 29 -24 24 l 474 556 q 481 558 476 558 q 489 556 485 558 q 492 550 493 554 l 407 72 l 504 75 m 68 67 q 318 69 174 67 l 378 411 l 63 76 q 60 69 58 72 q 68 67 61 67 z "},"5":{"ha":519,"x_min":-44,"x_max":504,"o":"m 489 588 q 493 590 492 590 q 501 588 497 590 q 503 582 504 585 l 458 474 q 442 453 450 457 q 418 449 435 449 l 176 443 q 153 422 161 443 l 104 272 q 332 215 258 271 q 406 64 406 160 q 401 13 406 40 q 280 -193 381 -103 q -32 -382 179 -283 l -33 -382 q -42 -376 -39 -382 q -39 -367 -44 -369 q 201 -196 125 -282 q 294 -11 278 -110 q 299 40 299 17 q 242 181 299 131 q 75 232 185 232 q 67 237 69 232 q 67 249 64 242 l 150 496 q 156 508 153 506 q 169 511 158 510 q 388 540 332 532 q 462 558 444 549 q 489 588 479 567 z "},"6":{"ha":586,"x_min":47,"x_max":628,"o":"m 268 -18 q 106 39 165 -18 q 47 201 47 96 q 57 289 47 233 q 157 542 81 417 q 353 767 233 667 q 618 918 472 867 q 626 911 624 919 q 622 901 628 903 q 398 746 496 842 q 240 537 300 650 q 161 314 179 424 q 153 222 153 267 q 194 69 153 126 q 310 11 235 11 q 391 49 358 11 q 436 161 424 88 q 440 218 440 190 q 416 315 440 279 q 342 351 392 351 q 289 340 315 351 q 229 301 263 328 l 226 300 q 219 304 222 300 q 218 311 217 308 q 396 392 294 392 q 508 349 472 392 q 544 242 544 306 q 540 197 544 221 q 490 88 529 138 q 392 10 450 39 q 268 -18 333 -18 z "},"7":{"ha":540,"x_min":-15,"x_max":539,"o":"m -7 -382 q -13 -378 -11 -382 q -12 -372 -15 -375 l 469 447 q 467 457 478 457 q 211 451 285 457 q 110 426 138 444 q 63 361 83 408 q 57 358 63 358 q 49 361 53 358 q 46 367 44 364 l 129 576 q 133 579 129 579 q 142 576 138 579 q 146 572 147 574 q 140 553 140 556 q 153 540 140 543 q 197 536 165 536 l 529 536 q 537 530 535 536 q 536 518 539 524 l 122 -306 q 89 -339 110 -329 l -6 -382 l -7 -382 z "},"8":{"ha":611,"x_min":38,"x_max":572,"o":"m 413 479 q 497 418 465 444 q 550 353 528 392 q 572 265 572 315 q 568 224 572 247 q 509 98 554 153 q 400 13 464 43 q 268 -18 336 -18 q 99 37 161 -18 q 38 172 38 92 q 110 344 38 263 q 279 469 183 426 q 209 533 233 501 q 185 607 185 564 q 188 633 185 614 q 265 754 200 711 q 404 797 331 797 q 492 776 456 797 q 547 724 528 756 q 565 660 565 693 q 563 639 565 653 q 515 557 556 599 q 413 479 475 515 m 275 651 q 307 565 275 601 q 399 489 339 528 q 457 564 438 525 q 476 651 476 603 q 449 738 476 703 q 379 774 422 774 q 305 740 335 774 q 275 651 275 706 m 468 183 q 472 229 472 208 q 447 326 472 286 q 393 390 422 367 q 296 458 364 413 q 196 368 235 424 q 146 243 157 313 q 142 199 142 221 q 185 64 142 118 q 307 10 229 10 q 410 57 365 10 q 468 183 456 104 z "},"9":{"ha":586,"x_min":-42,"x_max":535,"o":"m -31 -382 q -39 -375 -36 -383 q -36 -365 -42 -367 q 186 -209 89 -307 q 344 2 283 -111 q 425 222 404 115 q 433 307 433 264 q 392 463 433 400 q 278 525 351 525 q 197 492 231 525 q 151 392 164 460 q 147 342 147 367 q 177 230 147 274 q 258 186 207 186 q 306 198 283 186 q 358 236 329 210 q 363 238 360 238 q 369 234 367 238 q 371 228 372 231 q 207 144 301 144 q 85 197 128 144 q 42 318 42 249 q 81 436 42 382 q 184 522 119 490 q 319 554 249 554 q 477 493 419 554 q 535 325 535 432 q 528 247 535 282 q 429 -6 506 119 q 233 -230 353 -131 q -31 -382 114 -329 z "},"\u0000":{"ha":0,"x_min":0,"x_max":0,"o":""},"\r":{"ha":325,"x_min":0,"x_max":0,"o":""}," ":{"ha":325,"x_min":0,"x_max":0,"o":""},"A":{"ha":836,"x_min":-53,"x_max":792,"o":"m 786 17 q 792 8 792 17 q 786 0 792 0 q 721 3 765 0 q 642 6 671 6 q 567 3 611 6 q 503 0 522 0 q 499 8 499 0 q 503 17 499 17 q 571 29 551 17 q 590 75 590 42 q 586 117 590 94 l 531 443 l 322 443 l 179 182 q 139 71 139 110 q 163 28 139 40 q 235 17 186 17 q 240 8 240 17 q 233 0 239 0 q 167 3 217 0 q 81 6 111 6 q 13 3 51 6 q -47 0 -26 0 q -53 8 -53 0 q -47 17 -53 17 q 41 55 -7 17 q 136 176 89 93 l 531 882 q 540 886 533 886 q 556 879 553 886 l 688 117 q 702 54 694 74 q 728 26 710 35 q 786 17 747 17 m 340 475 l 525 475 l 481 732 l 340 475 z "},"Á":{"ha":836,"x_min":-53,"x_max":792,"o":"m 786 17 q 792 8 792 17 q 786 0 792 0 q 721 3 765 0 q 642 6 671 6 q 567 3 611 6 q 503 0 522 0 q 499 8 499 0 q 503 17 499 17 q 571 29 551 17 q 590 75 590 42 q 586 117 590 94 l 531 443 l 322 443 l 179 182 q 139 71 139 110 q 163 28 139 40 q 235 17 186 17 q 240 8 240 17 q 233 0 239 0 q 167 3 217 0 q 81 6 111 6 q 13 3 51 6 q -47 0 -26 0 q -53 8 -53 0 q -47 17 -53 17 q 41 55 -7 17 q 136 176 89 93 l 531 882 q 540 886 533 886 q 556 879 553 886 l 688 117 q 702 54 694 74 q 728 26 710 35 q 786 17 747 17 m 340 475 l 525 475 l 481 732 l 340 475 m 465 942 q 458 948 460 942 q 461 957 457 954 q 552 1013 507 982 q 610 1051 597 1043 l 669 1093 q 708 1088 676 1097 q 765 1065 740 1078 q 776 1050 789 1053 q 619 1003 690 1029 q 468 943 547 978 l 465 942 z "},"Ă":{"ha":836,"x_min":-53,"x_max":792,"o":"m 786 17 q 792 8 792 17 q 786 0 792 0 q 721 3 765 0 q 642 6 671 6 q 567 3 611 6 q 503 0 522 0 q 499 8 499 0 q 503 17 499 17 q 571 29 551 17 q 590 75 590 42 q 586 117 590 94 l 531 443 l 322 443 l 179 182 q 139 71 139 110 q 163 28 139 40 q 235 17 186 17 q 240 8 240 17 q 233 0 239 0 q 167 3 217 0 q 81 6 111 6 q 13 3 51 6 q -47 0 -26 0 q -53 8 -53 0 q -47 17 -53 17 q 41 55 -7 17 q 136 176 89 93 l 531 882 q 540 886 533 886 q 556 879 553 886 l 688 117 q 702 54 694 74 q 728 26 710 35 q 786 17 747 17 m 340 475 l 525 475 l 481 732 l 340 475 m 546 925 q 453 960 488 925 q 419 1049 419 994 q 444 1064 419 1057 q 489 1071 468 1071 q 504 1067 504 1071 q 531 1006 507 1028 q 592 983 554 983 q 690 1061 653 983 q 699 1065 693 1065 q 709 1063 704 1065 q 713 1057 714 1060 q 641 959 683 993 q 546 925 599 925 z "},"Ắ":{"ha":836,"x_min":-53,"x_max":792,"o":"m 786 17 q 792 8 792 17 q 786 0 792 0 q 721 3 765 0 q 642 6 671 6 q 567 3 611 6 q 503 0 522 0 q 499 8 499 0 q 503 17 499 17 q 571 29 551 17 q 590 75 590 42 q 586 117 590 94 l 531 443 l 322 443 l 179 182 q 139 71 139 110 q 163 28 139 40 q 235 17 186 17 q 240 8 240 17 q 233 0 239 0 q 167 3 217 0 q 81 6 111 6 q 13 3 51 6 q -47 0 -26 0 q -53 8 -53 0 q -47 17 -53 17 q 41 55 -7 17 q 136 176 89 93 l 531 882 q 540 886 533 886 q 556 879 553 886 l 688 117 q 702 54 694 74 q 728 26 710 35 q 786 17 747 17 m 340 475 l 525 475 l 481 732 l 340 475 m 539 925 q 447 960 481 925 q 413 1049 413 994 q 437 1064 413 1057 q 482 1071 461 1071 q 497 1067 497 1071 q 524 1006 500 1028 q 585 983 547 983 q 683 1061 646 983 q 692 1065 686 1065 q 702 1063 697 1065 q 706 1057 707 1060 q 634 959 676 993 q 539 925 592 925 m 567 1050 q 561 1056 563 1050 q 563 1064 560 1061 q 685 1203 633 1135 q 719 1199 689 1208 q 773 1176 750 1189 q 783 1158 796 1163 q 676 1113 725 1138 q 571 1051 628 1088 l 567 1050 z "},"Ặ":{"ha":836,"x_min":-53,"x_max":792,"o":"m 786 17 q 792 8 792 17 q 786 0 792 0 q 721 3 765 0 q 642 6 671 6 q 567 3 611 6 q 503 0 522 0 q 499 8 499 0 q 503 17 499 17 q 571 29 551 17 q 590 75 590 42 q 586 117 590 94 l 531 443 l 322 443 l 179 182 q 139 71 139 110 q 163 28 139 40 q 235 17 186 17 q 240 8 240 17 q 233 0 239 0 q 167 3 217 0 q 81 6 111 6 q 13 3 51 6 q -47 0 -26 0 q -53 8 -53 0 q -47 17 -53 17 q 41 55 -7 17 q 136 176 89 93 l 531 882 q 540 886 533 886 q 556 879 553 886 l 688 117 q 702 54 694 74 q 728 26 710 35 q 786 17 747 17 m 340 475 l 525 475 l 481 732 l 340 475 m 347 -268 q 299 -251 317 -268 q 282 -203 282 -233 q 299 -157 282 -174 q 347 -140 317 -140 q 395 -157 378 -140 q 413 -203 413 -174 q 395 -251 413 -235 q 347 -268 378 -268 m 546 925 q 453 960 488 925 q 419 1049 419 994 q 444 1064 419 1057 q 489 1071 468 1071 q 504 1067 504 1071 q 531 1006 507 1028 q 592 983 554 983 q 690 1061 653 983 q 699 1065 693 1065 q 709 1063 704 1065 q 713 1057 714 1060 q 641 959 683 993 q 546 925 599 925 z "},"Ằ":{"ha":836,"x_min":-53,"x_max":792,"o":"m 786 17 q 792 8 792 17 q 786 0 792 0 q 721 3 765 0 q 642 6 671 6 q 567 3 611 6 q 503 0 522 0 q 499 8 499 0 q 503 17 499 17 q 571 29 551 17 q 590 75 590 42 q 586 117 590 94 l 531 443 l 322 443 l 179 182 q 139 71 139 110 q 163 28 139 40 q 235 17 186 17 q 240 8 240 17 q 233 0 239 0 q 167 3 217 0 q 81 6 111 6 q 13 3 51 6 q -47 0 -26 0 q -53 8 -53 0 q -47 17 -53 17 q 41 55 -7 17 q 136 176 89 93 l 531 882 q 540 886 533 886 q 556 879 553 886 l 688 117 q 702 54 694 74 q 728 26 710 35 q 786 17 747 17 m 340 475 l 525 475 l 481 732 l 340 475 m 550 925 q 458 960 492 925 q 424 1049 424 994 q 448 1064 424 1057 q 493 1071 472 1071 q 508 1067 508 1071 q 535 1006 511 1028 q 596 983 558 983 q 694 1061 657 983 q 703 1065 697 1065 q 713 1063 708 1065 q 717 1057 718 1060 q 645 959 688 993 q 550 925 603 925 m 626 1051 q 454 1158 540 1121 q 470 1176 443 1163 q 531 1199 497 1189 q 568 1203 565 1208 q 640 1065 594 1135 l 640 1063 q 636 1053 640 1057 q 626 1051 632 1049 z "},"Ẳ":{"ha":836,"x_min":-53,"x_max":792,"o":"m 786 17 q 792 8 792 17 q 786 0 792 0 q 721 3 765 0 q 642 6 671 6 q 567 3 611 6 q 503 0 522 0 q 499 8 499 0 q 503 17 499 17 q 571 29 551 17 q 590 75 590 42 q 586 117 590 94 l 531 443 l 322 443 l 179 182 q 139 71 139 110 q 163 28 139 40 q 235 17 186 17 q 240 8 240 17 q 233 0 239 0 q 167 3 217 0 q 81 6 111 6 q 13 3 51 6 q -47 0 -26 0 q -53 8 -53 0 q -47 17 -53 17 q 41 55 -7 17 q 136 176 89 93 l 531 882 q 540 886 533 886 q 556 879 553 886 l 688 117 q 702 54 694 74 q 728 26 710 35 q 786 17 747 17 m 340 475 l 525 475 l 481 732 l 340 475 m 540 925 q 448 960 482 925 q 414 1049 414 994 q 438 1064 414 1057 q 483 1071 463 1071 q 499 1067 499 1071 q 525 1006 501 1028 q 586 983 549 983 q 685 1061 647 983 q 693 1065 688 1065 q 703 1063 699 1065 q 707 1057 708 1060 q 635 959 678 993 q 540 925 593 925 m 576 1040 q 581 1073 574 1058 q 604 1110 589 1088 q 625 1143 618 1129 q 632 1172 632 1157 q 619 1198 632 1189 q 592 1207 607 1207 q 561 1200 575 1207 l 560 1200 q 553 1205 556 1200 q 554 1211 550 1210 q 643 1238 601 1238 q 687 1223 671 1238 q 703 1189 703 1208 q 688 1147 703 1165 q 642 1104 672 1129 q 604 1070 617 1085 q 592 1040 592 1056 q 584 1038 592 1038 q 576 1040 576 1038 z "},"Ẵ":{"ha":836,"x_min":-53,"x_max":792,"o":"m 786 17 q 792 8 792 17 q 786 0 792 0 q 721 3 765 0 q 642 6 671 6 q 567 3 611 6 q 503 0 522 0 q 499 8 499 0 q 503 17 499 17 q 571 29 551 17 q 590 75 590 42 q 586 117 590 94 l 531 443 l 322 443 l 179 182 q 139 71 139 110 q 163 28 139 40 q 235 17 186 17 q 240 8 240 17 q 233 0 239 0 q 167 3 217 0 q 81 6 111 6 q 13 3 51 6 q -47 0 -26 0 q -53 8 -53 0 q -47 17 -53 17 q 41 55 -7 17 q 136 176 89 93 l 531 882 q 540 886 533 886 q 556 879 553 886 l 688 117 q 702 54 694 74 q 728 26 710 35 q 786 17 747 17 m 340 475 l 525 475 l 481 732 l 340 475 m 540 925 q 448 960 482 925 q 414 1049 414 994 q 438 1064 414 1057 q 483 1071 463 1071 q 499 1067 499 1071 q 525 1006 501 1028 q 586 983 549 983 q 685 1061 647 983 q 693 1065 688 1065 q 703 1063 699 1065 q 707 1057 708 1060 q 635 959 678 993 q 540 925 593 925 m 404 1113 q 397 1116 400 1113 q 396 1122 393 1119 q 453 1188 421 1158 q 522 1217 486 1217 q 593 1201 544 1217 q 693 1182 654 1182 q 736 1191 719 1182 q 771 1219 753 1200 l 774 1219 q 781 1216 778 1219 q 781 1210 783 1213 q 717 1135 742 1154 q 663 1117 693 1117 q 612 1124 639 1117 q 579 1132 585 1131 q 483 1150 522 1150 q 443 1143 457 1150 q 419 1126 429 1136 q 406 1113 410 1117 l 404 1113 z "},"Ǎ":{"ha":836,"x_min":-53,"x_max":792,"o":"m 786 17 q 792 8 792 17 q 786 0 792 0 q 721 3 765 0 q 642 6 671 6 q 567 3 611 6 q 503 0 522 0 q 499 8 499 0 q 503 17 499 17 q 571 29 551 17 q 590 75 590 42 q 586 117 590 94 l 531 443 l 322 443 l 179 182 q 139 71 139 110 q 163 28 139 40 q 235 17 186 17 q 240 8 240 17 q 233 0 239 0 q 167 3 217 0 q 81 6 111 6 q 13 3 51 6 q -47 0 -26 0 q -53 8 -53 0 q -47 17 -53 17 q 41 55 -7 17 q 136 176 89 93 l 531 882 q 540 886 533 886 q 556 879 553 886 l 688 117 q 702 54 694 74 q 728 26 710 35 q 786 17 747 17 m 340 475 l 525 475 l 481 732 l 340 475 m 428 1082 l 428 1083 q 432 1090 428 1086 q 438 1092 436 1093 l 560 1019 l 704 1092 l 706 1092 q 713 1088 710 1092 q 713 1082 717 1083 l 560 938 q 546 932 554 932 q 535 938 539 932 l 428 1082 z "},"Â":{"ha":836,"x_min":-53,"x_max":792,"o":"m 786 17 q 792 8 792 17 q 786 0 792 0 q 721 3 765 0 q 642 6 671 6 q 567 3 611 6 q 503 0 522 0 q 499 8 499 0 q 503 17 499 17 q 571 29 551 17 q 590 75 590 42 q 586 117 590 94 l 531 443 l 322 443 l 179 182 q 139 71 139 110 q 163 28 139 40 q 235 17 186 17 q 240 8 240 17 q 233 0 239 0 q 167 3 217 0 q 81 6 111 6 q 13 3 51 6 q -47 0 -26 0 q -53 8 -53 0 q -47 17 -53 17 q 41 55 -7 17 q 136 176 89 93 l 531 882 q 540 886 533 886 q 556 879 553 886 l 688 117 q 702 54 694 74 q 728 26 710 35 q 786 17 747 17 m 340 475 l 525 475 l 481 732 l 340 475 m 414 917 q 407 920 410 917 q 407 926 404 924 l 560 1069 q 572 1076 564 1076 q 585 1069 581 1076 l 692 926 l 693 924 q 689 918 693 921 q 682 917 685 915 l 560 988 l 415 917 l 414 917 z "},"Ấ":{"ha":836,"x_min":-53,"x_max":874,"o":"m 786 17 q 792 8 792 17 q 786 0 792 0 q 721 3 765 0 q 642 6 671 6 q 567 3 611 6 q 503 0 522 0 q 499 8 499 0 q 503 17 499 17 q 571 29 551 17 q 590 75 590 42 q 586 117 590 94 l 531 443 l 322 443 l 179 182 q 139 71 139 110 q 163 28 139 40 q 235 17 186 17 q 240 8 240 17 q 233 0 239 0 q 167 3 217 0 q 81 6 111 6 q 13 3 51 6 q -47 0 -26 0 q -53 8 -53 0 q -47 17 -53 17 q 41 55 -7 17 q 136 176 89 93 l 531 882 q 540 886 533 886 q 556 879 553 886 l 688 117 q 702 54 694 74 q 728 26 710 35 q 786 17 747 17 m 340 475 l 525 475 l 481 732 l 340 475 m 414 917 q 407 920 410 917 q 407 926 404 924 l 560 1069 q 572 1076 564 1076 q 585 1069 581 1076 l 692 926 l 693 924 q 689 918 693 921 q 682 917 685 915 l 560 988 l 415 917 l 414 917 m 653 999 q 647 1004 649 999 q 649 1013 646 1010 q 771 1151 719 1083 q 806 1147 775 1157 q 859 1124 836 1138 q 869 1107 882 1111 q 763 1061 811 1086 q 657 1000 714 1036 l 653 999 z "},"Ậ":{"ha":836,"x_min":-53,"x_max":792,"o":"m 786 17 q 792 8 792 17 q 786 0 792 0 q 721 3 765 0 q 642 6 671 6 q 567 3 611 6 q 503 0 522 0 q 499 8 499 0 q 503 17 499 17 q 571 29 551 17 q 590 75 590 42 q 586 117 590 94 l 531 443 l 322 443 l 179 182 q 139 71 139 110 q 163 28 139 40 q 235 17 186 17 q 240 8 240 17 q 233 0 239 0 q 167 3 217 0 q 81 6 111 6 q 13 3 51 6 q -47 0 -26 0 q -53 8 -53 0 q -47 17 -53 17 q 41 55 -7 17 q 136 176 89 93 l 531 882 q 540 886 533 886 q 556 879 553 886 l 688 117 q 702 54 694 74 q 728 26 710 35 q 786 17 747 17 m 340 475 l 525 475 l 481 732 l 340 475 m 347 -268 q 299 -251 317 -268 q 282 -203 282 -233 q 299 -157 282 -174 q 347 -140 317 -140 q 395 -157 378 -140 q 413 -203 413 -174 q 395 -251 413 -235 q 347 -268 378 -268 m 414 917 q 407 920 410 917 q 407 926 404 924 l 560 1069 q 572 1076 564 1076 q 585 1069 581 1076 l 692 926 l 693 924 q 689 918 693 921 q 682 917 685 915 l 560 988 l 415 917 l 414 917 z "},"Ầ":{"ha":836,"x_min":-53,"x_max":792,"o":"m 786 17 q 792 8 792 17 q 786 0 792 0 q 721 3 765 0 q 642 6 671 6 q 567 3 611 6 q 503 0 522 0 q 499 8 499 0 q 503 17 499 17 q 571 29 551 17 q 590 75 590 42 q 586 117 590 94 l 531 443 l 322 443 l 179 182 q 139 71 139 110 q 163 28 139 40 q 235 17 186 17 q 240 8 240 17 q 233 0 239 0 q 167 3 217 0 q 81 6 111 6 q 13 3 51 6 q -47 0 -26 0 q -53 8 -53 0 q -47 17 -53 17 q 41 55 -7 17 q 136 176 89 93 l 531 882 q 540 886 533 886 q 556 879 553 886 l 688 117 q 702 54 694 74 q 728 26 710 35 q 786 17 747 17 m 340 475 l 525 475 l 481 732 l 340 475 m 411 917 q 404 920 407 917 q 404 926 401 924 l 557 1069 q 569 1076 561 1076 q 582 1069 578 1076 l 689 926 l 690 924 q 686 918 690 921 q 679 917 682 915 l 557 988 l 413 917 l 411 917 m 769 983 q 597 1090 683 1053 q 613 1108 586 1094 q 674 1131 640 1121 q 711 1135 708 1140 q 783 997 738 1067 l 783 994 q 779 985 783 989 q 769 983 775 981 z "},"Ẩ":{"ha":836,"x_min":-53,"x_max":792,"o":"m 786 17 q 792 8 792 17 q 786 0 792 0 q 721 3 765 0 q 642 6 671 6 q 567 3 611 6 q 503 0 522 0 q 499 8 499 0 q 503 17 499 17 q 571 29 551 17 q 590 75 590 42 q 586 117 590 94 l 531 443 l 322 443 l 179 182 q 139 71 139 110 q 163 28 139 40 q 235 17 186 17 q 240 8 240 17 q 233 0 239 0 q 167 3 217 0 q 81 6 111 6 q 13 3 51 6 q -47 0 -26 0 q -53 8 -53 0 q -47 17 -53 17 q 41 55 -7 17 q 136 176 89 93 l 531 882 q 540 886 533 886 q 556 879 553 886 l 688 117 q 702 54 694 74 q 728 26 710 35 q 786 17 747 17 m 340 475 l 525 475 l 481 732 l 340 475 m 413 917 q 406 920 408 917 q 406 926 403 924 l 558 1069 q 571 1076 563 1076 q 583 1069 579 1076 l 690 926 l 692 924 q 688 918 692 921 q 681 917 683 915 l 558 988 l 414 917 l 413 917 m 660 989 q 665 1022 657 1007 q 688 1058 672 1036 q 708 1092 701 1078 q 715 1121 715 1106 q 703 1147 715 1138 q 675 1156 690 1156 q 644 1149 658 1156 l 643 1149 q 636 1153 639 1149 q 638 1160 633 1158 q 726 1186 685 1186 q 770 1172 754 1186 q 786 1138 786 1157 q 771 1096 786 1114 q 725 1053 756 1078 q 688 1019 700 1033 q 675 989 675 1004 q 667 986 675 986 q 660 989 660 986 z "},"Ẫ":{"ha":836,"x_min":-53,"x_max":792,"o":"m 786 17 q 792 8 792 17 q 786 0 792 0 q 721 3 765 0 q 642 6 671 6 q 567 3 611 6 q 503 0 522 0 q 499 8 499 0 q 503 17 499 17 q 571 29 551 17 q 590 75 590 42 q 586 117 590 94 l 531 443 l 322 443 l 179 182 q 139 71 139 110 q 163 28 139 40 q 235 17 186 17 q 240 8 240 17 q 233 0 239 0 q 167 3 217 0 q 81 6 111 6 q 13 3 51 6 q -47 0 -26 0 q -53 8 -53 0 q -47 17 -53 17 q 41 55 -7 17 q 136 176 89 93 l 531 882 q 540 886 533 886 q 556 879 553 886 l 688 117 q 702 54 694 74 q 728 26 710 35 q 786 17 747 17 m 340 475 l 525 475 l 481 732 l 340 475 m 404 917 q 397 920 400 917 q 397 926 394 924 l 550 1069 q 563 1076 554 1076 q 575 1069 571 1076 l 682 926 l 683 924 q 679 918 683 921 q 672 917 675 915 l 550 988 l 406 917 l 404 917 m 403 1088 q 396 1091 399 1088 q 396 1097 393 1094 q 521 1190 461 1190 q 590 1176 540 1190 q 693 1157 654 1157 q 735 1166 719 1157 q 769 1194 751 1175 l 771 1194 q 778 1191 775 1194 q 779 1185 782 1188 q 716 1110 740 1129 q 661 1090 692 1090 q 578 1107 633 1090 q 542 1117 572 1108 q 482 1125 513 1125 q 443 1118 457 1125 q 419 1101 429 1111 q 406 1088 410 1092 l 403 1088 z "},"Ä":{"ha":836,"x_min":-53,"x_max":792,"o":"m 786 17 q 792 8 792 17 q 786 0 792 0 q 721 3 765 0 q 642 6 671 6 q 567 3 611 6 q 503 0 522 0 q 499 8 499 0 q 503 17 499 17 q 571 29 551 17 q 590 75 590 42 q 586 117 590 94 l 531 443 l 322 443 l 179 182 q 139 71 139 110 q 163 28 139 40 q 235 17 186 17 q 240 8 240 17 q 233 0 239 0 q 167 3 217 0 q 81 6 111 6 q 13 3 51 6 q -47 0 -26 0 q -53 8 -53 0 q -47 17 -53 17 q 41 55 -7 17 q 136 176 89 93 l 531 882 q 540 886 533 886 q 556 879 553 886 l 688 117 q 702 54 694 74 q 728 26 710 35 q 786 17 747 17 m 340 475 l 525 475 l 481 732 l 340 475 m 464 989 q 417 1006 433 989 q 400 1053 400 1022 q 417 1098 400 1082 q 464 1114 433 1114 q 509 1098 493 1114 q 525 1053 525 1082 q 509 1006 525 1022 q 464 989 493 989 m 676 989 q 629 1006 646 989 q 613 1053 613 1022 q 629 1098 613 1082 q 676 1114 646 1114 q 722 1098 706 1114 q 739 1053 739 1082 q 722 1006 739 1022 q 676 989 706 989 z "},"Ạ":{"ha":836,"x_min":-53,"x_max":792,"o":"m 786 17 q 792 8 792 17 q 786 0 792 0 q 721 3 765 0 q 642 6 671 6 q 567 3 611 6 q 503 0 522 0 q 499 8 499 0 q 503 17 499 17 q 571 29 551 17 q 590 75 590 42 q 586 117 590 94 l 531 443 l 322 443 l 179 182 q 139 71 139 110 q 163 28 139 40 q 235 17 186 17 q 240 8 240 17 q 233 0 239 0 q 167 3 217 0 q 81 6 111 6 q 13 3 51 6 q -47 0 -26 0 q -53 8 -53 0 q -47 17 -53 17 q 41 55 -7 17 q 136 176 89 93 l 531 882 q 540 886 533 886 q 556 879 553 886 l 688 117 q 702 54 694 74 q 728 26 710 35 q 786 17 747 17 m 340 475 l 525 475 l 481 732 l 340 475 m 347 -268 q 299 -251 317 -268 q 282 -203 282 -233 q 299 -157 282 -174 q 347 -140 317 -140 q 395 -157 378 -140 q 413 -203 413 -174 q 395 -251 413 -235 q 347 -268 378 -268 z "},"À":{"ha":836,"x_min":-53,"x_max":792,"o":"m 786 17 q 792 8 792 17 q 786 0 792 0 q 721 3 765 0 q 642 6 671 6 q 567 3 611 6 q 503 0 522 0 q 499 8 499 0 q 503 17 499 17 q 571 29 551 17 q 590 75 590 42 q 586 117 590 94 l 531 443 l 322 443 l 179 182 q 139 71 139 110 q 163 28 139 40 q 235 17 186 17 q 240 8 240 17 q 233 0 239 0 q 167 3 217 0 q 81 6 111 6 q 13 3 51 6 q -47 0 -26 0 q -53 8 -53 0 q -47 17 -53 17 q 41 55 -7 17 q 136 176 89 93 l 531 882 q 540 886 533 886 q 556 879 553 886 l 688 117 q 702 54 694 74 q 728 26 710 35 q 786 17 747 17 m 340 475 l 525 475 l 481 732 l 340 475 m 665 951 q 535 1006 594 983 q 403 1050 476 1028 q 416 1065 389 1053 q 480 1088 443 1078 q 522 1093 517 1097 q 675 964 582 1039 q 678 960 678 964 q 674 953 678 956 q 665 951 669 950 z "},"Ả":{"ha":836,"x_min":-53,"x_max":792,"o":"m 786 17 q 792 8 792 17 q 786 0 792 0 q 721 3 765 0 q 642 6 671 6 q 567 3 611 6 q 503 0 522 0 q 499 8 499 0 q 503 17 499 17 q 571 29 551 17 q 590 75 590 42 q 586 117 590 94 l 531 443 l 322 443 l 179 182 q 139 71 139 110 q 163 28 139 40 q 235 17 186 17 q 240 8 240 17 q 233 0 239 0 q 167 3 217 0 q 81 6 111 6 q 13 3 51 6 q -47 0 -26 0 q -53 8 -53 0 q -47 17 -53 17 q 41 55 -7 17 q 136 176 89 93 l 531 882 q 540 886 533 886 q 556 879 553 886 l 688 117 q 702 54 694 74 q 728 26 710 35 q 786 17 747 17 m 340 475 l 525 475 l 481 732 l 340 475 m 550 904 q 543 901 551 901 q 533 904 535 900 q 532 924 532 911 q 540 967 532 949 q 567 1017 549 986 q 590 1059 582 1043 q 597 1094 597 1075 q 585 1128 597 1117 q 551 1140 572 1140 q 508 1129 531 1140 l 506 1129 q 499 1133 501 1129 q 500 1142 496 1138 q 600 1172 547 1172 q 665 1152 642 1172 q 685 1100 688 1132 q 664 1051 682 1074 q 614 1000 646 1028 q 564 948 579 968 q 550 904 549 928 z "},"Ā":{"ha":836,"x_min":-53,"x_max":792,"o":"m 786 17 q 792 8 792 17 q 786 0 792 0 q 721 3 765 0 q 642 6 671 6 q 567 3 611 6 q 503 0 522 0 q 499 8 499 0 q 503 17 499 17 q 571 29 551 17 q 590 75 590 42 q 586 117 590 94 l 531 443 l 322 443 l 179 182 q 139 71 139 110 q 163 28 139 40 q 235 17 186 17 q 240 8 240 17 q 233 0 239 0 q 167 3 217 0 q 81 6 111 6 q 13 3 51 6 q -47 0 -26 0 q -53 8 -53 0 q -47 17 -53 17 q 41 55 -7 17 q 136 176 89 93 l 531 882 q 540 886 533 886 q 556 879 553 886 l 688 117 q 702 54 694 74 q 728 26 710 35 q 786 17 747 17 m 340 475 l 525 475 l 481 732 l 340 475 m 408 994 q 399 1017 399 994 q 408 1039 399 1039 l 733 1039 q 742 1032 739 1039 q 744 1017 744 1025 q 742 1001 744 1008 q 733 994 739 994 l 408 994 z "},"Ą":{"ha":836,"x_min":-53,"x_max":792,"o":"m 786 17 q 792 8 792 17 q 786 0 792 0 l 679 1 q 577 -28 624 1 q 503 -107 531 -57 q 476 -217 476 -157 q 506 -301 476 -269 q 589 -332 535 -332 q 628 -326 614 -332 q 657 -310 642 -321 l 658 -310 q 664 -314 661 -310 q 664 -321 667 -318 q 597 -367 628 -353 q 528 -382 565 -382 q 430 -352 467 -382 q 393 -265 393 -322 q 396 -236 393 -256 q 428 -147 403 -183 q 501 -57 453 -110 q 565 19 544 -12 q 586 92 586 51 q 583 117 586 100 l 529 443 l 325 443 l 185 182 q 142 68 142 104 q 165 28 142 39 q 235 17 188 17 q 240 8 240 17 q 233 0 239 0 q 167 3 217 0 q 81 6 111 6 q 13 3 51 6 q -47 0 -26 0 q -53 8 -53 0 q -47 17 -53 17 q 44 55 -6 17 q 140 176 94 93 l 531 882 q 540 886 533 886 q 556 879 553 886 l 686 126 q 704 58 693 81 q 734 26 715 35 q 786 17 753 17 m 343 475 l 524 475 l 481 731 l 343 475 z "},"Å":{"ha":836,"x_min":-53,"x_max":792,"o":"m 786 17 q 792 8 792 17 q 786 0 792 0 q 721 3 765 0 q 642 6 671 6 q 567 3 611 6 q 503 0 522 0 q 499 8 499 0 q 503 17 499 17 q 571 29 551 17 q 590 75 590 42 q 586 117 590 94 l 531 443 l 322 443 l 179 182 q 139 71 139 110 q 163 28 139 40 q 235 17 186 17 q 240 8 240 17 q 233 0 239 0 q 167 3 217 0 q 81 6 111 6 q 13 3 51 6 q -47 0 -26 0 q -53 8 -53 0 q -47 17 -53 17 q 41 55 -7 17 q 136 176 89 93 l 531 882 q 540 886 533 886 q 556 879 553 886 l 688 117 q 702 54 694 74 q 728 26 710 35 q 786 17 747 17 m 340 475 l 525 475 l 481 732 l 340 475 m 547 928 q 459 960 492 928 q 426 1039 426 993 q 467 1117 426 1089 q 560 1146 508 1146 q 647 1114 611 1146 q 682 1035 682 1082 q 641 957 682 986 q 547 928 600 928 m 568 943 q 608 1011 608 943 q 586 1094 608 1058 q 533 1129 564 1129 q 497 1065 497 1129 q 517 981 497 1019 q 568 943 538 943 z "},"Ǻ":{"ha":836,"x_min":-53,"x_max":792,"o":"m 786 17 q 792 8 792 17 q 786 0 792 0 q 721 3 765 0 q 642 6 671 6 q 567 3 611 6 q 503 0 522 0 q 499 8 499 0 q 503 17 499 17 q 571 29 551 17 q 590 75 590 42 q 586 117 590 94 l 531 443 l 322 443 l 179 182 q 139 71 139 110 q 163 28 139 40 q 235 17 186 17 q 240 8 240 17 q 233 0 239 0 q 167 3 217 0 q 81 6 111 6 q 13 3 51 6 q -47 0 -26 0 q -53 8 -53 0 q -47 17 -53 17 q 41 55 -7 17 q 136 176 89 93 l 531 882 q 540 886 533 886 q 556 879 553 886 l 688 117 q 702 54 694 74 q 728 26 710 35 q 786 17 747 17 m 340 475 l 525 475 l 481 732 l 340 475 m 500 1133 q 492 1140 494 1133 q 496 1147 490 1146 l 564 1186 q 664 1243 633 1226 q 697 1235 671 1247 q 744 1210 724 1224 q 756 1194 765 1196 q 503 1133 628 1172 l 500 1133 m 560 929 q 477 957 508 929 q 446 1022 446 985 q 485 1090 446 1065 q 574 1114 525 1114 q 659 1086 624 1114 q 694 1019 694 1058 q 653 953 694 978 q 560 929 613 929 m 582 944 q 618 996 618 944 q 598 1069 618 1039 q 547 1099 578 1099 q 513 1050 513 1099 q 531 977 513 1010 q 582 944 550 944 z "},"Ã":{"ha":836,"x_min":-53,"x_max":792,"o":"m 786 17 q 792 8 792 17 q 786 0 792 0 q 721 3 765 0 q 642 6 671 6 q 567 3 611 6 q 503 0 522 0 q 499 8 499 0 q 503 17 499 17 q 571 29 551 17 q 590 75 590 42 q 586 117 590 94 l 531 443 l 322 443 l 179 182 q 139 71 139 110 q 163 28 139 40 q 235 17 186 17 q 240 8 240 17 q 233 0 239 0 q 167 3 217 0 q 81 6 111 6 q 13 3 51 6 q -47 0 -26 0 q -53 8 -53 0 q -47 17 -53 17 q 41 55 -7 17 q 136 176 89 93 l 531 882 q 540 886 533 886 q 556 879 553 886 l 688 117 q 702 54 694 74 q 728 26 710 35 q 786 17 747 17 m 340 475 l 525 475 l 481 732 l 340 475 m 388 961 q 380 965 383 961 q 379 971 376 968 q 437 1036 404 1007 q 506 1065 469 1065 q 576 1050 528 1065 q 676 1031 638 1031 q 719 1040 703 1031 q 754 1068 736 1049 l 757 1068 q 764 1065 761 1068 q 764 1058 767 1061 q 701 984 725 1003 q 646 965 676 965 q 595 972 622 965 q 563 981 568 979 q 467 999 506 999 q 426 992 440 999 q 403 975 413 985 q 389 961 393 965 l 388 961 z "},"Æ":{"ha":1069,"x_min":-85,"x_max":1065,"o":"m 1054 868 q 1063 856 1065 868 l 1050 771 q 1044 726 1047 750 q 1036 679 1040 703 q 1026 675 1035 674 q 1019 681 1018 676 q 985 803 1022 757 q 879 849 949 849 l 836 849 q 747 829 771 849 q 715 754 722 810 l 679 468 l 826 468 q 916 492 886 468 q 957 569 946 515 q 963 574 957 574 q 970 572 967 574 q 972 568 974 569 q 958 492 965 522 l 951 451 q 940 378 943 399 l 931 318 q 925 315 931 315 q 917 317 921 315 q 914 321 914 319 q 917 356 917 333 q 892 417 917 397 q 817 436 868 436 l 675 436 l 635 118 q 632 78 632 88 q 649 35 632 46 q 715 25 665 25 l 786 25 q 901 76 846 25 q 990 211 957 126 q 1001 214 993 215 q 1006 208 1008 213 q 961 21 981 128 q 954 4 958 8 q 939 0 950 0 l 421 0 q 415 8 415 0 q 421 17 415 17 q 486 24 464 17 q 519 51 508 32 q 535 113 529 71 l 576 436 l 374 436 l 181 171 q 138 74 138 111 q 232 17 138 17 q 237 8 238 17 q 232 0 236 0 q 153 3 211 0 q 56 6 92 6 q -18 3 24 6 q -78 0 -54 0 q -85 8 -85 0 q -78 17 -85 17 q 27 52 -22 17 q 149 185 76 88 l 592 799 q 611 836 611 826 q 592 849 611 847 q 515 851 574 851 q 510 860 510 851 q 515 868 510 868 l 1054 868 m 397 468 l 581 468 l 621 775 l 397 468 z "},"Ǽ":{"ha":1069,"x_min":-85,"x_max":1063,"o":"m 1054 868 q 1063 856 1065 868 l 1050 771 q 1044 726 1047 750 q 1036 679 1040 703 q 1026 675 1035 674 q 1019 681 1018 676 q 985 803 1022 757 q 879 849 949 849 l 836 849 q 747 829 771 849 q 715 754 722 810 l 679 468 l 826 468 q 916 492 886 468 q 957 569 946 515 q 963 574 957 574 q 970 572 967 574 q 972 568 974 569 q 958 492 965 522 l 951 451 q 940 378 943 399 l 931 318 q 925 315 931 315 q 917 317 921 315 q 914 321 914 319 q 917 356 917 333 q 892 417 917 397 q 817 436 868 436 l 675 436 l 635 118 q 632 78 632 88 q 649 35 632 46 q 715 25 665 25 l 786 25 q 901 76 846 25 q 990 211 957 126 q 1001 214 993 215 q 1006 208 1008 213 q 961 21 981 128 q 954 4 958 8 q 939 0 950 0 l 421 0 q 415 8 415 0 q 421 17 415 17 q 486 24 464 17 q 519 51 508 32 q 535 113 529 71 l 576 436 l 374 436 l 181 171 q 138 74 138 111 q 232 17 138 17 q 237 8 238 17 q 232 0 236 0 q 153 3 211 0 q 56 6 92 6 q -18 3 24 6 q -78 0 -54 0 q -85 8 -85 0 q -78 17 -85 17 q 27 52 -22 17 q 149 185 76 88 l 592 799 q 611 836 611 826 q 592 849 611 847 q 515 851 574 851 q 510 860 510 851 q 515 868 510 868 l 1054 868 m 397 468 l 581 468 l 621 775 l 397 468 m 733 942 q 726 948 728 942 q 729 957 725 954 q 820 1013 775 982 q 878 1051 865 1043 l 938 1093 q 976 1088 944 1097 q 1033 1065 1008 1078 q 1044 1050 1057 1053 q 887 1003 958 1029 q 736 943 815 978 l 733 942 z "},"Ǣ":{"ha":1069,"x_min":-85,"x_max":1063,"o":"m 1054 868 q 1063 856 1065 868 l 1050 771 q 1044 726 1047 750 q 1036 679 1040 703 q 1026 675 1035 674 q 1019 681 1018 676 q 985 803 1022 757 q 879 849 949 849 l 836 849 q 747 829 771 849 q 715 754 722 810 l 679 468 l 826 468 q 916 492 886 468 q 957 569 946 515 q 963 574 957 574 q 970 572 967 574 q 972 568 974 569 q 958 492 965 522 l 951 451 q 940 378 943 399 l 931 318 q 925 315 931 315 q 917 317 921 315 q 914 321 914 319 q 917 356 917 333 q 892 417 917 397 q 817 436 868 436 l 675 436 l 635 118 q 632 78 632 88 q 649 35 632 46 q 715 25 665 25 l 786 25 q 901 76 846 25 q 990 211 957 126 q 1001 214 993 215 q 1006 208 1008 213 q 961 21 981 128 q 954 4 958 8 q 939 0 950 0 l 421 0 q 415 8 415 0 q 421 17 415 17 q 486 24 464 17 q 519 51 508 32 q 535 113 529 71 l 576 436 l 374 436 l 181 171 q 138 74 138 111 q 232 17 138 17 q 237 8 238 17 q 232 0 236 0 q 153 3 211 0 q 56 6 92 6 q -18 3 24 6 q -78 0 -54 0 q -85 8 -85 0 q -78 17 -85 17 q 27 52 -22 17 q 149 185 76 88 l 592 799 q 611 836 611 826 q 592 849 611 847 q 515 851 574 851 q 510 860 510 851 q 515 868 510 868 l 1054 868 m 397 468 l 581 468 l 621 775 l 397 468 m 676 994 q 667 1017 667 994 q 676 1039 667 1039 l 1001 1039 q 1010 1032 1007 1039 q 1013 1017 1013 1025 q 1010 1001 1013 1008 q 1001 994 1007 994 l 676 994 z "},"B":{"ha":742,"x_min":13,"x_max":683,"o":"m 482 488 q 630 424 576 478 q 683 290 683 371 q 679 247 683 271 q 617 120 665 178 q 499 28 569 63 q 350 -6 429 -6 q 263 -1 311 -6 q 220 1 244 0 q 168 3 196 3 l 79 1 q 17 0 57 0 q 13 8 13 0 q 17 17 14 17 q 103 36 79 17 q 139 115 128 56 l 253 758 q 257 799 257 783 q 238 841 257 831 q 168 851 219 851 q 165 860 164 851 q 168 868 165 868 l 233 867 q 317 864 286 864 q 360 865 340 864 q 396 868 381 867 q 469 872 436 872 q 629 833 575 872 q 683 724 683 793 q 679 683 683 704 q 614 567 664 617 q 482 488 564 517 m 304 489 l 357 488 q 507 542 450 488 q 581 685 564 597 q 586 732 586 707 q 551 819 586 788 q 443 850 515 850 q 379 831 399 850 q 350 749 360 811 l 304 489 m 568 228 q 574 285 574 256 q 526 410 574 365 q 385 456 479 454 q 297 453 350 457 l 236 110 q 232 76 232 92 q 253 33 232 46 q 332 21 275 21 q 492 76 433 21 q 568 228 550 131 z "},"C":{"ha":814,"x_min":79,"x_max":819,"o":"m 442 -18 q 167 84 254 -18 q 79 339 79 186 q 89 439 79 381 q 191 672 113 571 q 379 828 269 774 q 603 883 489 883 q 717 871 660 883 q 807 838 775 858 q 817 826 815 832 q 818 804 819 819 l 801 640 q 793 635 800 635 q 786 640 786 635 q 710 798 772 746 q 550 850 649 850 q 392 805 464 850 q 272 676 319 760 q 207 481 224 593 q 197 364 197 424 q 228 179 197 261 q 316 51 258 97 q 450 4 374 4 q 601 56 526 4 q 742 214 675 108 q 747 217 744 217 q 754 214 751 217 q 756 208 757 211 l 715 56 q 707 33 711 39 q 690 24 703 26 q 442 -18 569 -18 z "},"Ć":{"ha":814,"x_min":79,"x_max":825,"o":"m 442 -18 q 167 84 254 -18 q 79 339 79 186 q 89 439 79 381 q 191 672 113 571 q 379 828 269 774 q 603 883 489 883 q 717 871 660 883 q 807 838 775 858 q 817 826 815 832 q 818 804 819 819 l 801 640 q 793 635 800 635 q 786 640 786 635 q 710 798 772 746 q 550 850 649 850 q 392 805 464 850 q 272 676 319 760 q 207 481 224 593 q 197 364 197 424 q 228 179 197 261 q 316 51 258 97 q 450 4 374 4 q 601 56 526 4 q 742 214 675 108 q 747 217 744 217 q 754 214 751 217 q 756 208 757 211 l 715 56 q 707 33 711 39 q 690 24 703 26 q 442 -18 569 -18 m 510 942 q 503 948 504 942 q 506 957 501 954 q 597 1013 551 982 q 654 1051 642 1043 l 714 1093 q 753 1088 721 1097 q 809 1065 785 1078 q 821 1050 833 1053 q 663 1003 735 1029 q 513 943 592 978 l 510 942 z "},"Č":{"ha":814,"x_min":79,"x_max":818,"o":"m 442 -18 q 167 84 254 -18 q 79 339 79 186 q 89 439 79 381 q 191 672 113 571 q 379 828 269 774 q 603 883 489 883 q 717 871 660 883 q 807 838 775 858 q 817 826 815 832 q 818 804 819 819 l 801 640 q 793 635 800 635 q 786 640 786 635 q 710 798 772 746 q 550 850 649 850 q 392 805 464 850 q 272 676 319 760 q 207 481 224 593 q 197 364 197 424 q 228 179 197 261 q 316 51 258 97 q 450 4 374 4 q 601 56 526 4 q 742 214 675 108 q 747 217 744 217 q 754 214 751 217 q 756 208 757 211 l 715 56 q 707 33 711 39 q 690 24 703 26 q 442 -18 569 -18 m 472 1082 l 472 1083 q 476 1090 472 1086 q 482 1092 481 1093 l 604 1019 l 749 1092 l 750 1092 q 758 1088 754 1092 q 757 1082 761 1083 l 604 938 q 590 932 599 932 q 579 938 583 932 l 472 1082 z "},"Ç":{"ha":814,"x_min":81,"x_max":819,"o":"m 807 838 q 817 826 815 832 q 818 804 819 819 l 801 640 q 793 635 800 635 q 786 640 786 635 q 710 798 772 746 q 550 850 649 850 q 392 805 464 850 q 272 676 319 760 q 207 481 224 593 q 197 364 197 424 q 228 179 197 261 q 316 51 258 97 q 450 4 374 4 q 601 56 526 4 q 742 214 675 108 q 747 217 744 217 q 754 214 751 217 q 756 208 757 211 l 715 56 q 707 33 711 39 q 690 24 703 26 q 443 -18 569 -18 q 433 -64 433 -43 q 443 -103 433 -85 q 471 -144 453 -122 q 515 -243 515 -203 q 514 -261 515 -256 q 468 -343 508 -304 q 364 -382 428 -382 q 301 -366 326 -382 q 275 -324 275 -350 q 288 -290 275 -301 q 322 -279 301 -279 q 350 -290 340 -279 q 368 -321 360 -301 q 383 -347 376 -339 q 404 -356 390 -356 q 434 -344 422 -356 q 450 -310 446 -332 q 392 -192 454 -268 q 375 -144 375 -174 q 392 -83 375 -117 l 424 -18 q 163 89 246 -12 q 81 339 81 190 q 89 439 81 389 q 191 672 113 571 q 379 828 269 774 q 603 883 489 883 q 717 871 660 883 q 807 838 775 858 z "},"Ĉ":{"ha":814,"x_min":79,"x_max":818,"o":"m 442 -18 q 167 84 254 -18 q 79 339 79 186 q 89 439 79 381 q 191 672 113 571 q 379 828 269 774 q 603 883 489 883 q 717 871 660 883 q 807 838 775 858 q 817 826 815 832 q 818 804 819 819 l 801 640 q 793 635 800 635 q 786 640 786 635 q 710 798 772 746 q 550 850 649 850 q 392 805 464 850 q 272 676 319 760 q 207 481 224 593 q 197 364 197 424 q 228 179 197 261 q 316 51 258 97 q 450 4 374 4 q 601 56 526 4 q 742 214 675 108 q 747 217 744 217 q 754 214 751 217 q 756 208 757 211 l 715 56 q 707 33 711 39 q 690 24 703 26 q 442 -18 569 -18 m 458 917 q 451 920 454 917 q 451 926 449 924 l 604 1069 q 617 1076 608 1076 q 629 1069 625 1076 l 736 926 l 738 924 q 733 918 738 921 q 726 917 729 915 l 604 988 l 460 917 l 458 917 z "},"Ċ":{"ha":814,"x_min":79,"x_max":818,"o":"m 442 -18 q 167 84 254 -18 q 79 339 79 186 q 89 439 79 381 q 191 672 113 571 q 379 828 269 774 q 603 883 489 883 q 717 871 660 883 q 807 838 775 858 q 817 826 815 832 q 818 804 819 819 l 801 640 q 793 635 800 635 q 786 640 786 635 q 710 798 772 746 q 550 850 649 850 q 392 805 464 850 q 272 676 319 760 q 207 481 224 593 q 197 364 197 424 q 228 179 197 261 q 316 51 258 97 q 450 4 374 4 q 601 56 526 4 q 742 214 675 108 q 747 217 744 217 q 754 214 751 217 q 756 208 757 211 l 715 56 q 707 33 711 39 q 690 24 703 26 q 442 -18 569 -18 m 608 986 q 560 1003 578 986 q 542 1051 542 1021 q 560 1099 542 1082 q 608 1115 578 1115 q 656 1099 639 1115 q 674 1051 674 1082 q 656 1003 674 1021 q 608 986 639 986 z "},"D":{"ha":861,"x_min":13,"x_max":842,"o":"m 335 -6 q 257 -1 301 -6 q 216 1 240 0 q 161 3 192 3 l 75 1 q 17 0 54 0 q 13 8 13 0 q 17 17 13 17 q 81 24 60 17 q 113 51 101 31 q 131 113 124 71 l 244 756 q 250 800 250 779 q 232 841 250 831 q 165 851 214 851 q 163 860 163 851 q 165 868 163 868 l 226 867 q 313 864 279 864 q 397 868 353 864 q 471 871 450 871 q 667 828 583 871 q 797 708 751 785 q 842 531 842 631 q 835 449 842 483 q 735 212 811 315 q 552 51 658 108 q 335 -6 446 -6 m 328 17 q 501 64 421 17 q 638 201 582 111 q 717 418 694 292 q 726 528 726 471 q 661 759 726 669 q 469 849 596 849 q 378 829 406 849 q 342 753 351 810 l 232 128 q 228 86 228 106 q 250 33 228 50 q 328 17 272 17 z "},"Ð":{"ha":861,"x_min":13,"x_max":842,"o":"m 471 871 q 667 828 583 871 q 797 708 751 785 q 842 531 842 631 q 835 449 842 483 q 735 212 811 315 q 552 51 658 108 q 335 -6 446 -6 q 257 -1 301 -6 q 216 1 240 0 q 161 3 192 3 l 75 1 q 17 0 54 0 q 13 8 13 0 q 17 17 13 17 q 81 24 60 17 q 113 51 101 31 q 131 113 124 71 l 185 417 l 83 417 q 78 432 78 417 q 83 447 78 447 l 190 447 l 244 756 q 250 800 250 779 q 232 841 250 831 q 165 851 214 851 q 163 860 163 851 q 165 868 163 868 l 226 867 q 313 864 279 864 q 397 868 353 864 q 471 871 450 871 m 717 418 q 726 528 726 471 q 661 759 726 669 q 469 849 596 849 q 378 829 406 849 q 342 753 351 810 l 288 447 l 447 447 q 454 432 454 447 q 452 422 454 426 q 447 417 450 417 l 283 417 l 232 128 q 228 86 228 106 q 250 33 228 50 q 328 17 272 17 q 501 64 421 17 q 638 201 582 111 q 717 418 694 292 z "},"Ď":{"ha":861,"x_min":13,"x_max":842,"o":"m 335 -6 q 257 -1 301 -6 q 216 1 240 0 q 161 3 192 3 l 75 1 q 17 0 54 0 q 13 8 13 0 q 17 17 13 17 q 81 24 60 17 q 113 51 101 31 q 131 113 124 71 l 244 756 q 250 800 250 779 q 232 841 250 831 q 165 851 214 851 q 163 860 163 851 q 165 868 163 868 l 226 867 q 313 864 279 864 q 397 868 353 864 q 471 871 450 871 q 667 828 583 871 q 797 708 751 785 q 842 531 842 631 q 835 449 842 483 q 735 212 811 315 q 552 51 658 108 q 335 -6 446 -6 m 328 17 q 501 64 421 17 q 638 201 582 111 q 717 418 694 292 q 726 528 726 471 q 661 759 726 669 q 469 849 596 849 q 378 829 406 849 q 342 753 351 810 l 232 128 q 228 86 228 106 q 250 33 228 50 q 328 17 272 17 m 350 1082 l 350 1083 q 354 1090 350 1086 q 360 1092 358 1093 l 482 1019 l 626 1092 l 628 1092 q 635 1088 632 1092 q 635 1082 639 1083 l 482 938 q 468 932 476 932 q 457 938 461 932 l 350 1082 z "},"Đ":{"ha":861,"x_min":13,"x_max":842,"o":"m 471 871 q 667 828 583 871 q 797 708 751 785 q 842 531 842 631 q 835 449 842 483 q 735 212 811 315 q 552 51 658 108 q 335 -6 446 -6 q 257 -1 301 -6 q 216 1 240 0 q 161 3 192 3 l 75 1 q 17 0 54 0 q 13 8 13 0 q 17 17 13 17 q 81 24 60 17 q 113 51 101 31 q 131 113 124 71 l 185 417 l 83 417 q 78 432 78 417 q 83 447 78 447 l 190 447 l 244 756 q 250 800 250 779 q 232 841 250 831 q 165 851 214 851 q 163 860 163 851 q 165 868 163 868 l 226 867 q 313 864 279 864 q 397 868 353 864 q 471 871 450 871 m 717 418 q 726 528 726 471 q 661 759 726 669 q 469 849 596 849 q 378 829 406 849 q 342 753 351 810 l 288 447 l 447 447 q 454 432 454 447 q 452 422 454 426 q 447 417 450 417 l 283 417 l 232 128 q 228 86 228 106 q 250 33 228 50 q 328 17 272 17 q 501 64 421 17 q 638 201 582 111 q 717 418 694 292 z "},"Ḍ":{"ha":861,"x_min":13,"x_max":842,"o":"m 335 -6 q 257 -1 301 -6 q 216 1 240 0 q 161 3 192 3 l 75 1 q 17 0 54 0 q 13 8 13 0 q 17 17 13 17 q 81 24 60 17 q 113 51 101 31 q 131 113 124 71 l 244 756 q 250 800 250 779 q 232 841 250 831 q 165 851 214 851 q 163 860 163 851 q 165 868 163 868 l 226 867 q 313 864 279 864 q 397 868 353 864 q 471 871 450 871 q 667 828 583 871 q 797 708 751 785 q 842 531 842 631 q 835 449 842 483 q 735 212 811 315 q 552 51 658 108 q 335 -6 446 -6 m 328 17 q 501 64 421 17 q 638 201 582 111 q 717 418 694 292 q 726 528 726 471 q 661 759 726 669 q 469 849 596 849 q 378 829 406 849 q 342 753 351 810 l 232 128 q 228 86 228 106 q 250 33 228 50 q 328 17 272 17 m 347 -268 q 299 -251 317 -268 q 282 -203 282 -233 q 299 -157 282 -174 q 347 -140 317 -140 q 395 -157 378 -140 q 413 -203 413 -174 q 395 -251 413 -235 q 347 -268 378 -268 z "},"Ḏ":{"ha":861,"x_min":13,"x_max":842,"o":"m 335 -6 q 257 -1 301 -6 q 216 1 240 0 q 161 3 192 3 l 75 1 q 17 0 54 0 q 13 8 13 0 q 17 17 13 17 q 81 24 60 17 q 113 51 101 31 q 131 113 124 71 l 244 756 q 250 800 250 779 q 232 841 250 831 q 165 851 214 851 q 163 860 163 851 q 165 868 163 868 l 226 867 q 313 864 279 864 q 397 868 353 864 q 471 871 450 871 q 667 828 583 871 q 797 708 751 785 q 842 531 842 631 q 835 449 842 483 q 735 212 811 315 q 552 51 658 108 q 335 -6 446 -6 m 328 17 q 501 64 421 17 q 638 201 582 111 q 717 418 694 292 q 726 528 726 471 q 661 759 726 669 q 469 849 596 849 q 378 829 406 849 q 342 753 351 810 l 232 128 q 228 86 228 106 q 250 33 228 50 q 328 17 272 17 m 207 -165 q 199 -158 201 -165 q 196 -143 196 -151 q 199 -128 196 -135 q 207 -121 201 -121 l 532 -121 q 542 -143 542 -121 q 532 -165 542 -165 l 207 -165 z "},"E":{"ha":722,"x_min":21,"x_max":719,"o":"m 708 868 q 717 856 719 868 l 706 781 l 689 679 q 682 675 689 675 q 676 677 679 675 q 672 681 672 679 q 643 799 678 754 q 544 844 608 844 l 458 844 q 395 838 415 844 q 365 813 375 831 q 349 754 356 794 l 299 468 l 482 468 q 568 490 539 468 q 607 568 597 513 q 615 572 607 572 q 622 570 618 572 q 624 565 625 568 q 611 501 619 535 q 601 451 606 481 l 594 408 q 581 318 590 365 q 571 313 579 313 q 564 319 563 314 q 568 357 568 340 q 544 417 568 399 q 472 436 521 436 l 293 436 l 236 118 q 232 76 232 93 q 249 37 232 47 q 314 26 267 26 l 429 26 q 549 77 490 26 q 643 211 607 128 q 653 214 646 215 q 658 208 661 213 q 614 21 633 128 q 607 4 611 8 q 592 0 603 0 l 24 0 q 21 8 21 0 q 24 17 21 17 q 88 24 67 17 q 119 50 108 31 q 138 113 129 69 l 250 756 q 256 801 256 779 q 238 841 256 831 q 172 851 219 851 q 168 860 168 851 q 172 868 168 868 l 708 868 z "},"É":{"ha":722,"x_min":21,"x_max":717,"o":"m 708 868 q 717 856 719 868 l 706 781 l 689 679 q 682 675 689 675 q 676 677 679 675 q 672 681 672 679 q 643 799 678 754 q 544 844 608 844 l 458 844 q 395 838 415 844 q 365 813 375 831 q 349 754 356 794 l 299 468 l 482 468 q 568 490 539 468 q 607 568 597 513 q 615 572 607 572 q 622 570 618 572 q 624 565 625 568 q 611 501 619 535 q 601 451 606 481 l 594 408 q 581 318 590 365 q 571 313 579 313 q 564 319 563 314 q 568 357 568 340 q 544 417 568 399 q 472 436 521 436 l 293 436 l 236 118 q 232 76 232 93 q 249 37 232 47 q 314 26 267 26 l 429 26 q 549 77 490 26 q 643 211 607 128 q 653 214 646 215 q 658 208 661 213 q 614 21 633 128 q 607 4 611 8 q 592 0 603 0 l 24 0 q 21 8 21 0 q 24 17 21 17 q 88 24 67 17 q 119 50 108 31 q 138 113 129 69 l 250 756 q 256 801 256 779 q 238 841 256 831 q 172 851 219 851 q 168 860 168 851 q 172 868 168 868 l 708 868 m 400 942 q 393 948 394 942 q 396 957 392 954 q 487 1013 442 982 q 544 1051 532 1043 l 604 1093 q 643 1088 611 1097 q 699 1065 675 1078 q 711 1050 724 1053 q 553 1003 625 1029 q 403 943 482 978 l 400 942 z "},"Ĕ":{"ha":722,"x_min":21,"x_max":717,"o":"m 708 868 q 717 856 719 868 l 706 781 l 689 679 q 682 675 689 675 q 676 677 679 675 q 672 681 672 679 q 643 799 678 754 q 544 844 608 844 l 458 844 q 395 838 415 844 q 365 813 375 831 q 349 754 356 794 l 299 468 l 482 468 q 568 490 539 468 q 607 568 597 513 q 615 572 607 572 q 622 570 618 572 q 624 565 625 568 q 611 501 619 535 q 601 451 606 481 l 594 408 q 581 318 590 365 q 571 313 579 313 q 564 319 563 314 q 568 357 568 340 q 544 417 568 399 q 472 436 521 436 l 293 436 l 236 118 q 232 76 232 93 q 249 37 232 47 q 314 26 267 26 l 429 26 q 549 77 490 26 q 643 211 607 128 q 653 214 646 215 q 658 208 661 213 q 614 21 633 128 q 607 4 611 8 q 592 0 603 0 l 24 0 q 21 8 21 0 q 24 17 21 17 q 88 24 67 17 q 119 50 108 31 q 138 113 129 69 l 250 756 q 256 801 256 779 q 238 841 256 831 q 172 851 219 851 q 168 860 168 851 q 172 868 168 868 l 708 868 m 489 925 q 397 960 431 925 q 363 1049 363 994 q 387 1064 363 1057 q 432 1071 411 1071 q 447 1067 447 1071 q 474 1006 450 1028 q 535 983 497 983 q 633 1061 596 983 q 642 1065 636 1065 q 652 1063 647 1065 q 656 1057 657 1060 q 584 959 626 993 q 489 925 542 925 z "},"Ě":{"ha":722,"x_min":21,"x_max":717,"o":"m 708 868 q 717 856 719 868 l 706 781 l 689 679 q 682 675 689 675 q 676 677 679 675 q 672 681 672 679 q 643 799 678 754 q 544 844 608 844 l 458 844 q 395 838 415 844 q 365 813 375 831 q 349 754 356 794 l 299 468 l 482 468 q 568 490 539 468 q 607 568 597 513 q 615 572 607 572 q 622 570 618 572 q 624 565 625 568 q 611 501 619 535 q 601 451 606 481 l 594 408 q 581 318 590 365 q 571 313 579 313 q 564 319 563 314 q 568 357 568 340 q 544 417 568 399 q 472 436 521 436 l 293 436 l 236 118 q 232 76 232 93 q 249 37 232 47 q 314 26 267 26 l 429 26 q 549 77 490 26 q 643 211 607 128 q 653 214 646 215 q 658 208 661 213 q 614 21 633 128 q 607 4 611 8 q 592 0 603 0 l 24 0 q 21 8 21 0 q 24 17 21 17 q 88 24 67 17 q 119 50 108 31 q 138 113 129 69 l 250 756 q 256 801 256 779 q 238 841 256 831 q 172 851 219 851 q 168 860 168 851 q 172 868 168 868 l 708 868 m 363 1082 l 363 1083 q 367 1090 363 1086 q 372 1092 371 1093 l 494 1019 l 639 1092 l 640 1092 q 648 1088 644 1092 q 647 1082 651 1083 l 494 938 q 481 932 489 932 q 469 938 474 932 l 363 1082 z "},"Ê":{"ha":722,"x_min":21,"x_max":717,"o":"m 708 868 q 717 856 719 868 l 706 781 l 689 679 q 682 675 689 675 q 676 677 679 675 q 672 681 672 679 q 643 799 678 754 q 544 844 608 844 l 458 844 q 395 838 415 844 q 365 813 375 831 q 349 754 356 794 l 299 468 l 482 468 q 568 490 539 468 q 607 568 597 513 q 615 572 607 572 q 622 570 618 572 q 624 565 625 568 q 611 501 619 535 q 601 451 606 481 l 594 408 q 581 318 590 365 q 571 313 579 313 q 564 319 563 314 q 568 357 568 340 q 544 417 568 399 q 472 436 521 436 l 293 436 l 236 118 q 232 76 232 93 q 249 37 232 47 q 314 26 267 26 l 429 26 q 549 77 490 26 q 643 211 607 128 q 653 214 646 215 q 658 208 661 213 q 614 21 633 128 q 607 4 611 8 q 592 0 603 0 l 24 0 q 21 8 21 0 q 24 17 21 17 q 88 24 67 17 q 119 50 108 31 q 138 113 129 69 l 250 756 q 256 801 256 779 q 238 841 256 831 q 172 851 219 851 q 168 860 168 851 q 172 868 168 868 l 708 868 m 349 917 q 342 920 344 917 q 342 926 339 924 l 494 1069 q 507 1076 499 1076 q 519 1069 515 1076 l 626 926 l 628 924 q 624 918 628 921 q 617 917 619 915 l 494 988 l 350 917 l 349 917 z "},"Ế":{"ha":722,"x_min":21,"x_max":808,"o":"m 708 868 q 717 856 719 868 l 706 781 l 689 679 q 682 675 689 675 q 676 677 679 675 q 672 681 672 679 q 643 799 678 754 q 544 844 608 844 l 458 844 q 395 838 415 844 q 365 813 375 831 q 349 754 356 794 l 299 468 l 482 468 q 568 490 539 468 q 607 568 597 513 q 615 572 607 572 q 622 570 618 572 q 624 565 625 568 q 611 501 619 535 q 601 451 606 481 l 594 408 q 581 318 590 365 q 571 313 579 313 q 564 319 563 314 q 568 357 568 340 q 544 417 568 399 q 472 436 521 436 l 293 436 l 236 118 q 232 76 232 93 q 249 37 232 47 q 314 26 267 26 l 429 26 q 549 77 490 26 q 643 211 607 128 q 653 214 646 215 q 658 208 661 213 q 614 21 633 128 q 607 4 611 8 q 592 0 603 0 l 24 0 q 21 8 21 0 q 24 17 21 17 q 88 24 67 17 q 119 50 108 31 q 138 113 129 69 l 250 756 q 256 801 256 779 q 238 841 256 831 q 172 851 219 851 q 168 860 168 851 q 172 868 168 868 l 708 868 m 349 917 q 342 920 344 917 q 342 926 339 924 l 494 1069 q 507 1076 499 1076 q 519 1069 515 1076 l 626 926 l 628 924 q 624 918 628 921 q 617 917 619 915 l 494 988 l 350 917 l 349 917 m 588 999 q 582 1004 583 999 q 583 1013 581 1010 q 706 1151 654 1083 q 740 1147 710 1157 q 794 1124 771 1138 q 804 1107 817 1111 q 697 1061 746 1086 q 592 1000 649 1036 l 588 999 z "},"Ệ":{"ha":722,"x_min":21,"x_max":717,"o":"m 708 868 q 717 856 719 868 l 706 781 l 689 679 q 682 675 689 675 q 676 677 679 675 q 672 681 672 679 q 643 799 678 754 q 544 844 608 844 l 458 844 q 395 838 415 844 q 365 813 375 831 q 349 754 356 794 l 299 468 l 482 468 q 568 490 539 468 q 607 568 597 513 q 615 572 607 572 q 622 570 618 572 q 624 565 625 568 q 611 501 619 535 q 601 451 606 481 l 594 408 q 581 318 590 365 q 571 313 579 313 q 564 319 563 314 q 568 357 568 340 q 544 417 568 399 q 472 436 521 436 l 293 436 l 236 118 q 232 76 232 93 q 249 37 232 47 q 314 26 267 26 l 429 26 q 549 77 490 26 q 643 211 607 128 q 653 214 646 215 q 658 208 661 213 q 614 21 633 128 q 607 4 611 8 q 592 0 603 0 l 24 0 q 21 8 21 0 q 24 17 21 17 q 88 24 67 17 q 119 50 108 31 q 138 113 129 69 l 250 756 q 256 801 256 779 q 238 841 256 831 q 172 851 219 851 q 168 860 168 851 q 172 868 168 868 l 708 868 m 364 -268 q 316 -251 333 -268 q 299 -203 299 -233 q 316 -157 299 -174 q 364 -140 333 -140 q 412 -157 394 -140 q 429 -203 429 -174 q 412 -251 429 -235 q 364 -268 394 -268 m 349 917 q 342 920 344 917 q 342 926 339 924 l 494 1069 q 507 1076 499 1076 q 519 1069 515 1076 l 626 926 l 628 924 q 624 918 628 921 q 617 917 619 915 l 494 988 l 350 917 l 349 917 z "},"Ề":{"ha":722,"x_min":21,"x_max":718,"o":"m 708 868 q 717 856 719 868 l 706 781 l 689 679 q 682 675 689 675 q 676 677 679 675 q 672 681 672 679 q 643 799 678 754 q 544 844 608 844 l 458 844 q 395 838 415 844 q 365 813 375 831 q 349 754 356 794 l 299 468 l 482 468 q 568 490 539 468 q 607 568 597 513 q 615 572 607 572 q 622 570 618 572 q 624 565 625 568 q 611 501 619 535 q 601 451 606 481 l 594 408 q 581 318 590 365 q 571 313 579 313 q 564 319 563 314 q 568 357 568 340 q 544 417 568 399 q 472 436 521 436 l 293 436 l 236 118 q 232 76 232 93 q 249 37 232 47 q 314 26 267 26 l 429 26 q 549 77 490 26 q 643 211 607 128 q 653 214 646 215 q 658 208 661 213 q 614 21 633 128 q 607 4 611 8 q 592 0 603 0 l 24 0 q 21 8 21 0 q 24 17 21 17 q 88 24 67 17 q 119 50 108 31 q 138 113 129 69 l 250 756 q 256 801 256 779 q 238 841 256 831 q 172 851 219 851 q 168 860 168 851 q 172 868 168 868 l 708 868 m 346 917 q 339 920 342 917 q 339 926 336 924 l 492 1069 q 504 1076 496 1076 q 517 1069 513 1076 l 624 926 l 625 924 q 621 918 625 921 q 614 917 617 915 l 492 988 l 347 917 l 346 917 m 704 983 q 532 1090 618 1053 q 548 1108 521 1094 q 609 1131 575 1121 q 646 1135 643 1140 q 718 997 672 1067 l 718 994 q 714 985 718 989 q 704 983 710 981 z "},"Ể":{"ha":722,"x_min":21,"x_max":721,"o":"m 708 868 q 717 856 719 868 l 706 781 l 689 679 q 682 675 689 675 q 676 677 679 675 q 672 681 672 679 q 643 799 678 754 q 544 844 608 844 l 458 844 q 395 838 415 844 q 365 813 375 831 q 349 754 356 794 l 299 468 l 482 468 q 568 490 539 468 q 607 568 597 513 q 615 572 607 572 q 622 570 618 572 q 624 565 625 568 q 611 501 619 535 q 601 451 606 481 l 594 408 q 581 318 590 365 q 571 313 579 313 q 564 319 563 314 q 568 357 568 340 q 544 417 568 399 q 472 436 521 436 l 293 436 l 236 118 q 232 76 232 93 q 249 37 232 47 q 314 26 267 26 l 429 26 q 549 77 490 26 q 643 211 607 128 q 653 214 646 215 q 658 208 661 213 q 614 21 633 128 q 607 4 611 8 q 592 0 603 0 l 24 0 q 21 8 21 0 q 24 17 21 17 q 88 24 67 17 q 119 50 108 31 q 138 113 129 69 l 250 756 q 256 801 256 779 q 238 841 256 831 q 172 851 219 851 q 168 860 168 851 q 172 868 168 868 l 708 868 m 347 917 q 340 920 343 917 q 340 926 338 924 l 493 1069 q 506 1076 497 1076 q 518 1069 514 1076 l 625 926 l 626 924 q 622 918 626 921 q 615 917 618 915 l 493 988 l 349 917 l 347 917 m 594 989 q 599 1022 592 1007 q 622 1058 607 1036 q 643 1092 636 1078 q 650 1121 650 1106 q 638 1147 650 1138 q 610 1156 625 1156 q 579 1149 593 1156 l 578 1149 q 571 1153 574 1149 q 572 1160 568 1158 q 661 1186 619 1186 q 705 1172 689 1186 q 721 1138 721 1157 q 706 1096 721 1114 q 660 1053 690 1078 q 622 1019 635 1033 q 610 989 610 1004 q 602 986 610 986 q 594 989 594 986 z "},"Ễ":{"ha":722,"x_min":21,"x_max":717,"o":"m 708 868 q 717 856 719 868 l 706 781 l 689 679 q 682 675 689 675 q 676 677 679 675 q 672 681 672 679 q 643 799 678 754 q 544 844 608 844 l 458 844 q 395 838 415 844 q 365 813 375 831 q 349 754 356 794 l 299 468 l 482 468 q 568 490 539 468 q 607 568 597 513 q 615 572 607 572 q 622 570 618 572 q 624 565 625 568 q 611 501 619 535 q 601 451 606 481 l 594 408 q 581 318 590 365 q 571 313 579 313 q 564 319 563 314 q 568 357 568 340 q 544 417 568 399 q 472 436 521 436 l 293 436 l 236 118 q 232 76 232 93 q 249 37 232 47 q 314 26 267 26 l 429 26 q 549 77 490 26 q 643 211 607 128 q 653 214 646 215 q 658 208 661 213 q 614 21 633 128 q 607 4 611 8 q 592 0 603 0 l 24 0 q 21 8 21 0 q 24 17 21 17 q 88 24 67 17 q 119 50 108 31 q 138 113 129 69 l 250 756 q 256 801 256 779 q 238 841 256 831 q 172 851 219 851 q 168 860 168 851 q 172 868 168 868 l 708 868 m 339 917 q 332 920 335 917 q 332 926 329 924 l 485 1069 q 497 1076 489 1076 q 510 1069 506 1076 l 617 926 l 618 924 q 614 918 618 921 q 607 917 610 915 l 485 988 l 340 917 l 339 917 m 338 1088 q 331 1091 333 1088 q 331 1097 328 1094 q 456 1190 396 1190 q 525 1176 475 1190 q 628 1157 589 1157 q 670 1166 654 1157 q 704 1194 686 1175 l 706 1194 q 713 1191 710 1194 q 714 1185 717 1188 q 651 1110 675 1129 q 596 1090 626 1090 q 513 1107 568 1090 q 477 1117 507 1108 q 417 1125 447 1125 q 378 1118 392 1125 q 354 1101 364 1111 q 340 1088 344 1092 l 338 1088 z "},"Ë":{"ha":722,"x_min":21,"x_max":717,"o":"m 708 868 q 717 856 719 868 l 706 781 l 689 679 q 682 675 689 675 q 676 677 679 675 q 672 681 672 679 q 643 799 678 754 q 544 844 608 844 l 458 844 q 395 838 415 844 q 365 813 375 831 q 349 754 356 794 l 299 468 l 482 468 q 568 490 539 468 q 607 568 597 513 q 615 572 607 572 q 622 570 618 572 q 624 565 625 568 q 611 501 619 535 q 601 451 606 481 l 594 408 q 581 318 590 365 q 571 313 579 313 q 564 319 563 314 q 568 357 568 340 q 544 417 568 399 q 472 436 521 436 l 293 436 l 236 118 q 232 76 232 93 q 249 37 232 47 q 314 26 267 26 l 429 26 q 549 77 490 26 q 643 211 607 128 q 653 214 646 215 q 658 208 661 213 q 614 21 633 128 q 607 4 611 8 q 592 0 603 0 l 24 0 q 21 8 21 0 q 24 17 21 17 q 88 24 67 17 q 119 50 108 31 q 138 113 129 69 l 250 756 q 256 801 256 779 q 238 841 256 831 q 172 851 219 851 q 168 860 168 851 q 172 868 168 868 l 708 868 m 399 989 q 351 1006 368 989 q 335 1053 335 1022 q 351 1098 335 1082 q 399 1114 368 1114 q 444 1098 428 1114 q 460 1053 460 1082 q 444 1006 460 1022 q 399 989 428 989 m 611 989 q 564 1006 581 989 q 547 1053 547 1022 q 564 1098 547 1082 q 611 1114 581 1114 q 657 1098 640 1114 q 674 1053 674 1082 q 657 1006 674 1022 q 611 989 640 989 z "},"Ė":{"ha":722,"x_min":21,"x_max":717,"o":"m 708 868 q 717 856 719 868 l 706 781 l 689 679 q 682 675 689 675 q 676 677 679 675 q 672 681 672 679 q 643 799 678 754 q 544 844 608 844 l 458 844 q 395 838 415 844 q 365 813 375 831 q 349 754 356 794 l 299 468 l 482 468 q 568 490 539 468 q 607 568 597 513 q 615 572 607 572 q 622 570 618 572 q 624 565 625 568 q 611 501 619 535 q 601 451 606 481 l 594 408 q 581 318 590 365 q 571 313 579 313 q 564 319 563 314 q 568 357 568 340 q 544 417 568 399 q 472 436 521 436 l 293 436 l 236 118 q 232 76 232 93 q 249 37 232 47 q 314 26 267 26 l 429 26 q 549 77 490 26 q 643 211 607 128 q 653 214 646 215 q 658 208 661 213 q 614 21 633 128 q 607 4 611 8 q 592 0 603 0 l 24 0 q 21 8 21 0 q 24 17 21 17 q 88 24 67 17 q 119 50 108 31 q 138 113 129 69 l 250 756 q 256 801 256 779 q 238 841 256 831 q 172 851 219 851 q 168 860 168 851 q 172 868 168 868 l 708 868 m 499 986 q 450 1003 468 986 q 432 1051 432 1021 q 450 1099 432 1082 q 499 1115 468 1115 q 547 1099 529 1115 q 564 1051 564 1082 q 547 1003 564 1021 q 499 986 529 986 z "},"Ẹ":{"ha":722,"x_min":21,"x_max":717,"o":"m 708 868 q 717 856 719 868 l 706 781 l 689 679 q 682 675 689 675 q 676 677 679 675 q 672 681 672 679 q 643 799 678 754 q 544 844 608 844 l 458 844 q 395 838 415 844 q 365 813 375 831 q 349 754 356 794 l 299 468 l 482 468 q 568 490 539 468 q 607 568 597 513 q 615 572 607 572 q 622 570 618 572 q 624 565 625 568 q 611 501 619 535 q 601 451 606 481 l 594 408 q 581 318 590 365 q 571 313 579 313 q 564 319 563 314 q 568 357 568 340 q 544 417 568 399 q 472 436 521 436 l 293 436 l 236 118 q 232 76 232 93 q 249 37 232 47 q 314 26 267 26 l 429 26 q 549 77 490 26 q 643 211 607 128 q 653 214 646 215 q 658 208 661 213 q 614 21 633 128 q 607 4 611 8 q 592 0 603 0 l 24 0 q 21 8 21 0 q 24 17 21 17 q 88 24 67 17 q 119 50 108 31 q 138 113 129 69 l 250 756 q 256 801 256 779 q 238 841 256 831 q 172 851 219 851 q 168 860 168 851 q 172 868 168 868 l 708 868 m 364 -268 q 316 -251 333 -268 q 299 -203 299 -233 q 316 -157 299 -174 q 364 -140 333 -140 q 412 -157 394 -140 q 429 -203 429 -174 q 412 -251 429 -235 q 364 -268 394 -268 z "},"È":{"ha":722,"x_min":21,"x_max":717,"o":"m 708 868 q 717 856 719 868 l 706 781 l 689 679 q 682 675 689 675 q 676 677 679 675 q 672 681 672 679 q 643 799 678 754 q 544 844 608 844 l 458 844 q 395 838 415 844 q 365 813 375 831 q 349 754 356 794 l 299 468 l 482 468 q 568 490 539 468 q 607 568 597 513 q 615 572 607 572 q 622 570 618 572 q 624 565 625 568 q 611 501 619 535 q 601 451 606 481 l 594 408 q 581 318 590 365 q 571 313 579 313 q 564 319 563 314 q 568 357 568 340 q 544 417 568 399 q 472 436 521 436 l 293 436 l 236 118 q 232 76 232 93 q 249 37 232 47 q 314 26 267 26 l 429 26 q 549 77 490 26 q 643 211 607 128 q 653 214 646 215 q 658 208 661 213 q 614 21 633 128 q 607 4 611 8 q 592 0 603 0 l 24 0 q 21 8 21 0 q 24 17 21 17 q 88 24 67 17 q 119 50 108 31 q 138 113 129 69 l 250 756 q 256 801 256 779 q 238 841 256 831 q 172 851 219 851 q 168 860 168 851 q 172 868 168 868 l 708 868 m 600 951 q 470 1006 529 983 q 338 1050 411 1028 q 351 1065 324 1053 q 415 1088 378 1078 q 457 1093 451 1097 q 610 964 517 1039 q 613 960 613 964 q 608 953 613 956 q 600 951 604 950 z "},"Ẻ":{"ha":722,"x_min":21,"x_max":717,"o":"m 708 868 q 717 856 719 868 l 706 781 l 689 679 q 682 675 689 675 q 676 677 679 675 q 672 681 672 679 q 643 799 678 754 q 544 844 608 844 l 458 844 q 395 838 415 844 q 365 813 375 831 q 349 754 356 794 l 299 468 l 482 468 q 568 490 539 468 q 607 568 597 513 q 615 572 607 572 q 622 570 618 572 q 624 565 625 568 q 611 501 619 535 q 601 451 606 481 l 594 408 q 581 318 590 365 q 571 313 579 313 q 564 319 563 314 q 568 357 568 340 q 544 417 568 399 q 472 436 521 436 l 293 436 l 236 118 q 232 76 232 93 q 249 37 232 47 q 314 26 267 26 l 429 26 q 549 77 490 26 q 643 211 607 128 q 653 214 646 215 q 658 208 661 213 q 614 21 633 128 q 607 4 611 8 q 592 0 603 0 l 24 0 q 21 8 21 0 q 24 17 21 17 q 88 24 67 17 q 119 50 108 31 q 138 113 129 69 l 250 756 q 256 801 256 779 q 238 841 256 831 q 172 851 219 851 q 168 860 168 851 q 172 868 168 868 l 708 868 m 485 904 q 478 901 486 901 q 468 904 469 900 q 467 924 467 911 q 475 967 467 949 q 501 1017 483 986 q 524 1059 517 1043 q 532 1094 532 1075 q 519 1128 532 1117 q 486 1140 507 1140 q 443 1129 465 1140 l 440 1129 q 433 1133 436 1129 q 435 1142 431 1138 q 535 1172 482 1172 q 599 1152 576 1172 q 619 1100 622 1132 q 599 1051 617 1074 q 549 1000 581 1028 q 499 948 514 968 q 485 904 483 928 z "},"Ē":{"ha":722,"x_min":21,"x_max":717,"o":"m 708 868 q 717 856 719 868 l 706 781 l 689 679 q 682 675 689 675 q 676 677 679 675 q 672 681 672 679 q 643 799 678 754 q 544 844 608 844 l 458 844 q 395 838 415 844 q 365 813 375 831 q 349 754 356 794 l 299 468 l 482 468 q 568 490 539 468 q 607 568 597 513 q 615 572 607 572 q 622 570 618 572 q 624 565 625 568 q 611 501 619 535 q 601 451 606 481 l 594 408 q 581 318 590 365 q 571 313 579 313 q 564 319 563 314 q 568 357 568 340 q 544 417 568 399 q 472 436 521 436 l 293 436 l 236 118 q 232 76 232 93 q 249 37 232 47 q 314 26 267 26 l 429 26 q 549 77 490 26 q 643 211 607 128 q 653 214 646 215 q 658 208 661 213 q 614 21 633 128 q 607 4 611 8 q 592 0 603 0 l 24 0 q 21 8 21 0 q 24 17 21 17 q 88 24 67 17 q 119 50 108 31 q 138 113 129 69 l 250 756 q 256 801 256 779 q 238 841 256 831 q 172 851 219 851 q 168 860 168 851 q 172 868 168 868 l 708 868 m 343 994 q 333 1017 333 994 q 343 1039 333 1039 l 668 1039 q 676 1032 674 1039 q 679 1017 679 1025 q 676 1001 679 1008 q 668 994 674 994 l 343 994 z "},"Ę":{"ha":722,"x_min":21,"x_max":719,"o":"m 708 868 q 717 856 719 868 l 706 781 l 689 679 q 682 675 689 675 q 676 677 679 675 q 672 681 672 679 q 643 799 678 754 q 544 844 608 844 l 458 844 q 395 838 415 844 q 365 813 375 831 q 349 754 356 794 l 299 468 l 482 468 q 568 490 539 468 q 607 568 597 513 q 615 572 607 572 q 622 570 618 572 q 624 565 625 568 q 611 501 619 535 q 601 451 606 481 l 594 408 q 581 318 590 365 q 571 313 579 313 q 564 319 563 314 q 568 357 568 340 q 544 417 568 399 q 472 436 521 436 l 293 436 l 236 118 q 232 76 232 93 q 249 37 232 47 q 314 26 267 26 l 429 26 q 549 77 490 26 q 643 211 607 128 q 653 214 646 215 q 658 208 661 213 q 614 21 633 128 q 607 4 611 8 q 592 0 603 0 l 535 0 q 440 -122 474 -64 q 406 -240 406 -181 q 427 -309 406 -283 q 488 -335 449 -335 q 526 -326 510 -335 q 564 -301 543 -318 l 565 -300 q 573 -306 569 -300 q 574 -314 576 -311 q 501 -366 535 -350 q 431 -382 467 -382 q 349 -352 378 -382 q 319 -274 319 -322 q 322 -243 319 -265 q 380 -128 332 -187 q 508 0 428 -68 l 24 0 q 21 8 21 0 q 24 17 21 17 q 88 24 67 17 q 119 50 108 31 q 138 113 129 69 l 250 756 q 256 801 256 779 q 238 841 256 831 q 172 851 219 851 q 168 860 168 851 q 172 868 168 868 l 708 868 z "},"Ẽ":{"ha":722,"x_min":21,"x_max":717,"o":"m 708 868 q 717 856 719 868 l 706 781 l 689 679 q 682 675 689 675 q 676 677 679 675 q 672 681 672 679 q 643 799 678 754 q 544 844 608 844 l 458 844 q 395 838 415 844 q 365 813 375 831 q 349 754 356 794 l 299 468 l 482 468 q 568 490 539 468 q 607 568 597 513 q 615 572 607 572 q 622 570 618 572 q 624 565 625 568 q 611 501 619 535 q 601 451 606 481 l 594 408 q 581 318 590 365 q 571 313 579 313 q 564 319 563 314 q 568 357 568 340 q 544 417 568 399 q 472 436 521 436 l 293 436 l 236 118 q 232 76 232 93 q 249 37 232 47 q 314 26 267 26 l 429 26 q 549 77 490 26 q 643 211 607 128 q 653 214 646 215 q 658 208 661 213 q 614 21 633 128 q 607 4 611 8 q 592 0 603 0 l 24 0 q 21 8 21 0 q 24 17 21 17 q 88 24 67 17 q 119 50 108 31 q 138 113 129 69 l 250 756 q 256 801 256 779 q 238 841 256 831 q 172 851 219 851 q 168 860 168 851 q 172 868 168 868 l 708 868 m 322 961 q 315 965 318 961 q 314 971 311 968 q 372 1036 339 1007 q 440 1065 404 1065 q 511 1050 463 1065 q 611 1031 572 1031 q 654 1040 638 1031 q 689 1068 671 1049 l 692 1068 q 699 1065 696 1068 q 699 1058 701 1061 q 635 984 660 1003 q 581 965 611 965 q 530 972 557 965 q 497 981 503 979 q 401 999 440 999 q 361 992 375 999 q 338 975 347 985 q 324 961 328 965 l 322 961 z "},"F":{"ha":672,"x_min":15,"x_max":717,"o":"m 706 868 q 713 856 717 868 l 696 743 l 686 679 q 676 675 685 674 q 669 681 668 676 q 639 799 674 754 q 540 844 604 844 l 454 844 q 391 838 411 844 q 361 813 371 831 q 344 754 351 794 l 290 451 l 454 451 q 540 474 511 451 q 579 551 569 497 q 589 556 581 557 q 596 550 597 556 q 574 435 590 517 l 553 301 q 543 297 551 296 q 536 303 535 297 q 539 339 539 317 q 516 401 539 382 q 444 419 493 419 l 285 419 l 232 118 q 228 78 228 96 q 255 29 228 42 q 360 17 282 17 q 363 8 363 17 q 360 0 363 0 q 296 1 321 0 l 161 3 l 78 1 q 19 0 57 0 q 15 8 15 0 q 19 17 15 17 q 83 24 63 17 q 115 51 104 31 q 133 113 125 71 l 246 756 q 251 801 251 779 q 233 841 251 831 q 168 851 215 851 q 164 860 164 851 q 168 868 164 868 l 706 868 z "},"G":{"ha":876,"x_min":82,"x_max":843,"o":"m 458 -17 q 254 28 339 -17 q 126 152 169 72 q 82 336 82 232 q 92 435 82 386 q 194 667 115 564 q 390 826 274 769 q 636 883 506 883 q 749 871 694 883 q 833 836 803 858 q 843 819 843 829 l 842 804 l 826 640 q 818 635 825 635 q 810 640 811 635 q 738 797 797 742 q 581 851 679 851 q 337 753 435 851 q 210 485 239 654 q 200 367 200 426 q 280 106 200 203 q 497 10 360 10 q 585 23 553 10 q 637 72 618 36 q 665 175 656 107 q 674 257 674 228 q 663 300 674 286 q 626 319 651 314 q 551 324 601 324 q 547 327 549 324 q 544 335 544 331 q 547 342 544 339 q 551 346 549 346 q 708 339 646 339 q 832 343 767 339 q 838 333 838 343 q 832 324 838 324 q 795 315 807 325 q 776 274 783 304 q 756 161 768 243 q 745 75 746 100 q 743 39 744 50 q 739 28 742 31 q 726 22 736 26 q 458 -17 574 -17 z "},"Ğ":{"ha":876,"x_min":82,"x_max":843,"o":"m 458 -17 q 254 28 339 -17 q 126 152 169 72 q 82 336 82 232 q 92 435 82 386 q 194 667 115 564 q 390 826 274 769 q 636 883 506 883 q 749 871 694 883 q 833 836 803 858 q 843 819 843 829 l 842 804 l 826 640 q 818 635 825 635 q 810 640 811 635 q 738 797 797 742 q 581 851 679 851 q 337 753 435 851 q 210 485 239 654 q 200 367 200 426 q 280 106 200 203 q 497 10 360 10 q 585 23 553 10 q 637 72 618 36 q 665 175 656 107 q 674 257 674 228 q 663 300 674 286 q 626 319 651 314 q 551 324 601 324 q 547 327 549 324 q 544 335 544 331 q 547 342 544 339 q 551 346 549 346 q 708 339 646 339 q 832 343 767 339 q 838 333 838 343 q 832 324 838 324 q 795 315 807 325 q 776 274 783 304 q 756 161 768 243 q 745 75 746 100 q 743 39 744 50 q 739 28 742 31 q 726 22 736 26 q 458 -17 574 -17 m 615 925 q 523 960 557 925 q 489 1049 489 994 q 513 1064 489 1057 q 558 1071 538 1071 q 574 1067 574 1071 q 600 1006 576 1028 q 661 983 624 983 q 760 1061 722 983 q 768 1065 763 1065 q 778 1063 774 1065 q 782 1057 783 1060 q 710 959 753 993 q 615 925 668 925 z "},"Ǧ":{"ha":876,"x_min":82,"x_max":843,"o":"m 458 -17 q 254 28 339 -17 q 126 152 169 72 q 82 336 82 232 q 92 435 82 386 q 194 667 115 564 q 390 826 274 769 q 636 883 506 883 q 749 871 694 883 q 833 836 803 858 q 843 819 843 829 l 842 804 l 826 640 q 818 635 825 635 q 810 640 811 635 q 738 797 797 742 q 581 851 679 851 q 337 753 435 851 q 210 485 239 654 q 200 367 200 426 q 280 106 200 203 q 497 10 360 10 q 585 23 553 10 q 637 72 618 36 q 665 175 656 107 q 674 257 674 228 q 663 300 674 286 q 626 319 651 314 q 551 324 601 324 q 547 327 549 324 q 544 335 544 331 q 547 342 544 339 q 551 346 549 346 q 708 339 646 339 q 832 343 767 339 q 838 333 838 343 q 832 324 838 324 q 795 315 807 325 q 776 274 783 304 q 756 161 768 243 q 745 75 746 100 q 743 39 744 50 q 739 28 742 31 q 726 22 736 26 q 458 -17 574 -17 m 497 1082 l 497 1083 q 501 1090 497 1086 q 507 1092 506 1093 l 629 1019 l 774 1092 l 775 1092 q 783 1088 779 1092 q 782 1082 786 1083 l 629 938 q 615 932 624 932 q 604 938 608 932 l 497 1082 z "},"Ĝ":{"ha":876,"x_min":82,"x_max":843,"o":"m 458 -17 q 254 28 339 -17 q 126 152 169 72 q 82 336 82 232 q 92 435 82 386 q 194 667 115 564 q 390 826 274 769 q 636 883 506 883 q 749 871 694 883 q 833 836 803 858 q 843 819 843 829 l 842 804 l 826 640 q 818 635 825 635 q 810 640 811 635 q 738 797 797 742 q 581 851 679 851 q 337 753 435 851 q 210 485 239 654 q 200 367 200 426 q 280 106 200 203 q 497 10 360 10 q 585 23 553 10 q 637 72 618 36 q 665 175 656 107 q 674 257 674 228 q 663 300 674 286 q 626 319 651 314 q 551 324 601 324 q 547 327 549 324 q 544 335 544 331 q 547 342 544 339 q 551 346 549 346 q 708 339 646 339 q 832 343 767 339 q 838 333 838 343 q 832 324 838 324 q 795 315 807 325 q 776 274 783 304 q 756 161 768 243 q 745 75 746 100 q 743 39 744 50 q 739 28 742 31 q 726 22 736 26 q 458 -17 574 -17 m 483 917 q 476 920 479 917 q 476 926 474 924 l 629 1069 q 642 1076 633 1076 q 654 1069 650 1076 l 761 926 l 763 924 q 758 918 763 921 q 751 917 754 915 l 629 988 l 485 917 l 483 917 z "},"Ģ":{"ha":876,"x_min":82,"x_max":843,"o":"m 458 -17 q 254 28 339 -17 q 126 152 169 72 q 82 336 82 232 q 92 435 82 386 q 194 667 115 564 q 390 826 274 769 q 636 883 506 883 q 749 871 694 883 q 833 836 803 858 q 843 819 843 829 l 842 804 l 826 640 q 818 635 825 635 q 810 640 811 635 q 738 797 797 742 q 581 851 679 851 q 337 753 435 851 q 210 485 239 654 q 200 367 200 426 q 280 106 200 203 q 497 10 360 10 q 585 23 553 10 q 637 72 618 36 q 665 175 656 107 q 674 257 674 228 q 663 300 674 286 q 626 319 651 314 q 551 324 601 324 q 547 327 549 324 q 544 335 544 331 q 547 342 544 339 q 551 346 549 346 q 708 339 646 339 q 832 343 767 339 q 838 333 838 343 q 832 324 838 324 q 795 315 807 325 q 776 274 783 304 q 756 161 768 243 q 745 75 746 100 q 743 39 744 50 q 739 28 742 31 q 726 22 736 26 q 458 -17 574 -17 m 449 -111 q 505 -134 485 -111 q 525 -196 525 -157 q 404 -382 525 -303 l 401 -383 q 393 -377 396 -383 q 394 -368 390 -371 q 471 -265 463 -322 q 472 -243 472 -257 q 471 -226 472 -232 q 439 -236 461 -236 q 391 -215 407 -236 q 378 -167 375 -194 q 399 -126 381 -142 q 449 -111 418 -111 z "},"Ġ":{"ha":876,"x_min":82,"x_max":843,"o":"m 458 -17 q 254 28 339 -17 q 126 152 169 72 q 82 336 82 232 q 92 435 82 386 q 194 667 115 564 q 390 826 274 769 q 636 883 506 883 q 749 871 694 883 q 833 836 803 858 q 843 819 843 829 l 842 804 l 826 640 q 818 635 825 635 q 810 640 811 635 q 738 797 797 742 q 581 851 679 851 q 337 753 435 851 q 210 485 239 654 q 200 367 200 426 q 280 106 200 203 q 497 10 360 10 q 585 23 553 10 q 637 72 618 36 q 665 175 656 107 q 674 257 674 228 q 663 300 674 286 q 626 319 651 314 q 551 324 601 324 q 547 327 549 324 q 544 335 544 331 q 547 342 544 339 q 551 346 549 346 q 708 339 646 339 q 832 343 767 339 q 838 333 838 343 q 832 324 838 324 q 795 315 807 325 q 776 274 783 304 q 756 161 768 243 q 745 75 746 100 q 743 39 744 50 q 739 28 742 31 q 726 22 736 26 q 458 -17 574 -17 m 633 986 q 585 1003 603 986 q 567 1051 567 1021 q 585 1099 567 1082 q 633 1115 603 1115 q 681 1099 664 1115 q 699 1051 699 1082 q 681 1003 699 1021 q 633 986 664 986 z "},"Ḡ":{"ha":876,"x_min":82,"x_max":843,"o":"m 458 -17 q 254 28 339 -17 q 126 152 169 72 q 82 336 82 232 q 92 435 82 386 q 194 667 115 564 q 390 826 274 769 q 636 883 506 883 q 749 871 694 883 q 833 836 803 858 q 843 819 843 829 l 842 804 l 826 640 q 818 635 825 635 q 810 640 811 635 q 738 797 797 742 q 581 851 679 851 q 337 753 435 851 q 210 485 239 654 q 200 367 200 426 q 280 106 200 203 q 497 10 360 10 q 585 23 553 10 q 637 72 618 36 q 665 175 656 107 q 674 257 674 228 q 663 300 674 286 q 626 319 651 314 q 551 324 601 324 q 547 327 549 324 q 544 335 544 331 q 547 342 544 339 q 551 346 549 346 q 708 339 646 339 q 832 343 767 339 q 838 333 838 343 q 832 324 838 324 q 795 315 807 325 q 776 274 783 304 q 756 161 768 243 q 745 75 746 100 q 743 39 744 50 q 739 28 742 31 q 726 22 736 26 q 458 -17 574 -17 m 432 990 q 424 997 426 990 q 421 1011 421 1003 q 424 1026 421 1019 q 432 1032 426 1032 l 781 1032 q 790 1011 790 1032 q 781 990 790 990 l 432 990 z "},"H":{"ha":933,"x_min":13,"x_max":976,"o":"m 972 868 q 976 860 976 868 q 972 851 976 851 q 910 844 931 851 q 878 817 889 836 q 860 756 868 797 l 746 113 q 742 69 742 86 q 760 27 742 38 q 826 17 778 17 q 831 8 831 17 q 826 0 831 0 q 769 1 790 0 l 683 3 l 597 1 q 535 0 575 0 q 532 8 532 0 q 535 17 532 17 q 600 24 579 17 q 631 50 621 31 q 649 113 642 69 l 706 436 l 285 436 l 228 113 q 222 67 222 76 q 240 27 222 38 q 307 17 258 17 q 311 8 311 17 q 307 0 311 0 q 247 1 269 0 l 158 3 l 75 1 q 17 0 54 0 q 13 8 13 0 q 17 17 13 17 q 81 24 60 17 q 113 51 101 31 q 131 113 124 71 l 244 756 q 250 800 250 792 q 232 841 250 831 q 165 851 214 851 q 163 860 163 851 q 165 868 163 868 l 225 867 q 307 864 275 864 q 394 867 339 864 l 456 868 q 458 860 458 868 q 456 851 458 851 q 392 843 414 851 q 360 815 371 835 q 342 753 350 794 l 292 468 l 711 468 l 761 753 q 767 800 767 789 q 749 841 767 831 q 683 851 731 851 q 679 860 679 851 q 683 868 679 868 l 743 867 q 828 864 796 864 q 914 867 858 864 l 972 868 z "},"Ħ":{"ha":933,"x_min":13,"x_max":976,"o":"m 972 868 q 976 860 976 868 q 972 851 976 851 q 910 844 931 851 q 878 817 889 836 q 860 756 868 797 l 746 113 q 742 69 742 86 q 760 27 742 38 q 826 17 778 17 q 831 8 831 17 q 826 0 831 0 q 769 1 790 0 l 683 3 l 597 1 q 535 0 575 0 q 532 8 532 0 q 535 17 532 17 q 600 24 579 17 q 631 50 621 31 q 649 113 642 69 l 682 306 l 263 306 l 228 113 q 222 67 222 76 q 240 27 222 38 q 307 17 258 17 q 311 8 311 17 q 307 0 311 0 q 247 1 269 0 l 158 3 l 75 1 q 17 0 54 0 q 13 8 13 0 q 17 17 13 17 q 81 24 60 17 q 113 51 101 31 q 131 113 124 71 l 244 756 q 250 800 250 779 q 232 841 250 831 q 165 851 214 851 q 163 860 163 851 q 165 868 163 868 l 225 867 q 307 864 275 864 q 394 867 339 864 l 456 868 q 458 860 458 868 q 456 851 458 851 q 392 843 414 851 q 360 815 371 835 q 342 753 350 794 l 314 597 l 733 597 l 761 753 q 767 800 767 789 q 749 841 767 831 q 683 851 731 851 q 679 860 679 851 q 683 868 679 868 l 743 867 q 828 864 796 864 q 914 867 858 864 l 972 868 m 268 338 l 688 338 l 728 565 l 308 565 l 268 338 z "},"Ḫ":{"ha":933,"x_min":13,"x_max":976,"o":"m 972 868 q 976 860 976 868 q 972 851 976 851 q 910 844 931 851 q 878 817 889 836 q 860 756 868 797 l 746 113 q 742 69 742 86 q 760 27 742 38 q 826 17 778 17 q 831 8 831 17 q 826 0 831 0 q 769 1 790 0 l 683 3 l 597 1 q 535 0 575 0 q 532 8 532 0 q 535 17 532 17 q 600 24 579 17 q 631 50 621 31 q 649 113 642 69 l 706 436 l 285 436 l 228 113 q 222 67 222 76 q 240 27 222 38 q 307 17 258 17 q 311 8 311 17 q 307 0 311 0 q 247 1 269 0 l 158 3 l 75 1 q 17 0 54 0 q 13 8 13 0 q 17 17 13 17 q 81 24 60 17 q 113 51 101 31 q 131 113 124 71 l 244 756 q 250 800 250 792 q 232 841 250 831 q 165 851 214 851 q 163 860 163 851 q 165 868 163 868 l 225 867 q 307 864 275 864 q 394 867 339 864 l 456 868 q 458 860 458 868 q 456 851 458 851 q 392 843 414 851 q 360 815 371 835 q 342 753 350 794 l 292 468 l 711 468 l 761 753 q 767 800 767 789 q 749 841 767 831 q 683 851 731 851 q 679 860 679 851 q 683 868 679 868 l 743 867 q 828 864 796 864 q 914 867 858 864 l 972 868 m 389 -271 q 297 -236 331 -271 q 263 -147 263 -201 q 287 -132 263 -139 q 332 -125 311 -125 q 347 -129 347 -125 q 374 -190 350 -168 q 435 -212 397 -212 q 533 -135 496 -212 q 542 -131 535 -131 q 552 -133 547 -131 q 556 -139 557 -136 q 484 -237 526 -203 q 389 -271 442 -271 z "},"Ĥ":{"ha":933,"x_min":13,"x_max":976,"o":"m 972 868 q 976 860 976 868 q 972 851 976 851 q 910 844 931 851 q 878 817 889 836 q 860 756 868 797 l 746 113 q 742 69 742 86 q 760 27 742 38 q 826 17 778 17 q 831 8 831 17 q 826 0 831 0 q 769 1 790 0 l 683 3 l 597 1 q 535 0 575 0 q 532 8 532 0 q 535 17 532 17 q 600 24 579 17 q 631 50 621 31 q 649 113 642 69 l 706 436 l 285 436 l 228 113 q 222 67 222 76 q 240 27 222 38 q 307 17 258 17 q 311 8 311 17 q 307 0 311 0 q 247 1 269 0 l 158 3 l 75 1 q 17 0 54 0 q 13 8 13 0 q 17 17 13 17 q 81 24 60 17 q 113 51 101 31 q 131 113 124 71 l 244 756 q 250 800 250 792 q 232 841 250 831 q 165 851 214 851 q 163 860 163 851 q 165 868 163 868 l 225 867 q 307 864 275 864 q 394 867 339 864 l 456 868 q 458 860 458 868 q 456 851 458 851 q 392 843 414 851 q 360 815 371 835 q 342 753 350 794 l 292 468 l 711 468 l 761 753 q 767 800 767 789 q 749 841 767 831 q 683 851 731 851 q 679 860 679 851 q 683 868 679 868 l 743 867 q 828 864 796 864 q 914 867 858 864 l 972 868 m 450 917 q 443 920 446 917 q 443 926 440 924 l 596 1069 q 608 1076 600 1076 q 621 1069 617 1076 l 728 926 l 729 924 q 725 918 729 921 q 718 917 721 915 l 596 988 l 451 917 l 450 917 z "},"Ḥ":{"ha":933,"x_min":13,"x_max":976,"o":"m 972 868 q 976 860 976 868 q 972 851 976 851 q 910 844 931 851 q 878 817 889 836 q 860 756 868 797 l 746 113 q 742 69 742 86 q 760 27 742 38 q 826 17 778 17 q 831 8 831 17 q 826 0 831 0 q 769 1 790 0 l 683 3 l 597 1 q 535 0 575 0 q 532 8 532 0 q 535 17 532 17 q 600 24 579 17 q 631 50 621 31 q 649 113 642 69 l 706 436 l 285 436 l 228 113 q 222 67 222 76 q 240 27 222 38 q 307 17 258 17 q 311 8 311 17 q 307 0 311 0 q 247 1 269 0 l 158 3 l 75 1 q 17 0 54 0 q 13 8 13 0 q 17 17 13 17 q 81 24 60 17 q 113 51 101 31 q 131 113 124 71 l 244 756 q 250 800 250 792 q 232 841 250 831 q 165 851 214 851 q 163 860 163 851 q 165 868 163 868 l 225 867 q 307 864 275 864 q 394 867 339 864 l 456 868 q 458 860 458 868 q 456 851 458 851 q 392 843 414 851 q 360 815 371 835 q 342 753 350 794 l 292 468 l 711 468 l 761 753 q 767 800 767 789 q 749 841 767 831 q 683 851 731 851 q 679 860 679 851 q 683 868 679 868 l 743 867 q 828 864 796 864 q 914 867 858 864 l 972 868 m 407 -268 q 359 -251 376 -268 q 342 -203 342 -233 q 359 -157 342 -174 q 407 -140 376 -140 q 455 -157 438 -140 q 472 -203 472 -174 q 455 -251 472 -235 q 407 -268 438 -268 z "},"I":{"ha":440,"x_min":26,"x_max":472,"o":"m 31 0 q 26 8 26 0 q 31 17 26 17 q 94 24 74 17 q 124 50 114 31 q 142 113 135 69 l 256 756 q 261 800 261 792 q 242 841 261 831 q 176 851 224 851 q 172 860 172 851 q 176 868 172 868 l 236 867 q 319 864 289 864 q 413 867 360 864 l 468 868 q 472 860 472 868 q 468 851 472 851 q 406 843 426 851 q 374 815 385 835 q 356 753 364 794 l 242 113 q 236 68 236 76 q 255 27 236 38 q 322 17 274 17 q 325 8 325 17 q 322 0 325 0 q 264 1 286 0 l 175 3 l 92 1 q 31 0 69 0 z "},"Ĳ":{"ha":860,"x_min":64,"x_max":932,"o":"m 69 374 q 64 382 64 374 q 69 390 64 390 q 137 397 115 390 q 169 424 158 404 q 186 486 179 443 l 233 756 q 239 801 239 779 q 220 841 239 831 q 150 851 201 851 q 144 860 144 851 q 150 868 144 868 l 217 867 q 304 864 272 864 q 397 867 342 864 l 457 868 q 464 860 464 868 q 457 851 464 851 q 390 843 413 851 q 356 815 367 835 q 338 753 346 796 l 290 486 q 285 440 285 450 q 303 400 285 410 q 374 390 322 390 q 379 382 379 390 q 374 374 379 374 q 313 375 335 374 l 221 376 l 132 375 q 69 374 110 374 m 389 -18 q 251 10 311 -18 q 158 81 192 38 q 125 172 125 125 q 142 226 125 206 q 188 247 158 247 q 231 225 222 247 q 243 154 240 203 q 273 47 246 88 q 386 6 300 6 q 551 76 490 6 q 633 278 611 146 l 718 756 q 722 797 722 781 q 701 841 722 831 q 619 851 681 851 q 615 860 615 851 q 619 868 615 868 l 693 867 q 786 864 751 864 q 871 867 821 864 l 926 868 q 932 860 932 868 q 926 851 932 851 q 867 843 886 851 q 838 815 847 835 q 821 753 828 794 l 753 358 q 623 81 721 179 q 389 -18 525 -18 z "},"Í":{"ha":440,"x_min":26,"x_max":564,"o":"m 31 0 q 26 8 26 0 q 31 17 26 17 q 94 24 74 17 q 124 50 114 31 q 142 113 135 69 l 256 756 q 261 800 261 792 q 242 841 261 831 q 176 851 224 851 q 172 860 172 851 q 176 868 172 868 l 236 867 q 319 864 289 864 q 413 867 360 864 l 468 868 q 472 860 472 868 q 468 851 472 851 q 406 843 426 851 q 374 815 385 835 q 356 753 364 794 l 242 113 q 236 68 236 76 q 255 27 236 38 q 322 17 274 17 q 325 8 325 17 q 322 0 325 0 q 264 1 286 0 l 175 3 l 92 1 q 31 0 69 0 m 249 942 q 242 948 243 942 q 244 957 240 954 q 335 1013 290 982 q 393 1051 381 1043 l 453 1093 q 492 1088 460 1097 q 548 1065 524 1078 q 560 1050 572 1053 q 402 1003 474 1029 q 251 943 331 978 l 249 942 z "},"Ĭ":{"ha":440,"x_min":26,"x_max":504,"o":"m 31 0 q 26 8 26 0 q 31 17 26 17 q 94 24 74 17 q 124 50 114 31 q 142 113 135 69 l 256 756 q 261 800 261 792 q 242 841 261 831 q 176 851 224 851 q 172 860 172 851 q 176 868 172 868 l 236 867 q 319 864 289 864 q 413 867 360 864 l 468 868 q 472 860 472 868 q 468 851 472 851 q 406 843 426 851 q 374 815 385 835 q 356 753 364 794 l 242 113 q 236 68 236 76 q 255 27 236 38 q 322 17 274 17 q 325 8 325 17 q 322 0 325 0 q 264 1 286 0 l 175 3 l 92 1 q 31 0 69 0 m 338 925 q 245 960 279 925 q 211 1049 211 994 q 235 1064 211 1057 q 281 1071 260 1071 q 296 1067 296 1071 q 322 1006 299 1028 q 383 983 346 983 q 482 1061 444 983 q 490 1065 485 1065 q 501 1063 496 1065 q 504 1057 506 1060 q 433 959 475 993 q 338 925 390 925 z "},"Ǐ":{"ha":440,"x_min":26,"x_max":497,"o":"m 31 0 q 26 8 26 0 q 31 17 26 17 q 94 24 74 17 q 124 50 114 31 q 142 113 135 69 l 256 756 q 261 800 261 792 q 242 841 261 831 q 176 851 224 851 q 172 860 172 851 q 176 868 172 868 l 236 867 q 319 864 289 864 q 413 867 360 864 l 468 868 q 472 860 472 868 q 468 851 472 851 q 406 843 426 851 q 374 815 385 835 q 356 753 364 794 l 242 113 q 236 68 236 76 q 255 27 236 38 q 322 17 274 17 q 325 8 325 17 q 322 0 325 0 q 264 1 286 0 l 175 3 l 92 1 q 31 0 69 0 m 211 1082 l 211 1083 q 215 1090 211 1086 q 221 1092 219 1093 l 343 1019 l 488 1092 l 489 1092 q 497 1088 493 1092 q 496 1082 500 1083 l 343 938 q 329 932 338 932 q 318 938 322 932 l 211 1082 z "},"Î":{"ha":440,"x_min":26,"x_max":476,"o":"m 31 0 q 26 8 26 0 q 31 17 26 17 q 94 24 74 17 q 124 50 114 31 q 142 113 135 69 l 256 756 q 261 800 261 792 q 242 841 261 831 q 176 851 224 851 q 172 860 172 851 q 176 868 172 868 l 236 867 q 319 864 289 864 q 413 867 360 864 l 468 868 q 472 860 472 868 q 468 851 472 851 q 406 843 426 851 q 374 815 385 835 q 356 753 364 794 l 242 113 q 236 68 236 76 q 255 27 236 38 q 322 17 274 17 q 325 8 325 17 q 322 0 325 0 q 264 1 286 0 l 175 3 l 92 1 q 31 0 69 0 m 197 917 q 190 920 193 917 q 190 926 188 924 l 343 1069 q 356 1076 347 1076 q 368 1069 364 1076 l 475 926 l 476 924 q 472 918 476 921 q 465 917 468 915 l 343 988 l 199 917 l 197 917 z "},"Ï":{"ha":440,"x_min":26,"x_max":513,"o":"m 31 0 q 26 8 26 0 q 31 17 26 17 q 94 24 74 17 q 124 50 114 31 q 142 113 135 69 l 256 756 q 261 800 261 792 q 242 841 261 831 q 176 851 224 851 q 172 860 172 851 q 176 868 172 868 l 236 867 q 319 864 289 864 q 413 867 360 864 l 468 868 q 472 860 472 868 q 468 851 472 851 q 406 843 426 851 q 374 815 385 835 q 356 753 364 794 l 242 113 q 236 68 236 76 q 255 27 236 38 q 322 17 274 17 q 325 8 325 17 q 322 0 325 0 q 264 1 286 0 l 175 3 l 92 1 q 31 0 69 0 m 258 989 q 210 1006 228 989 q 193 1053 193 1022 q 210 1098 193 1082 q 258 1114 228 1114 q 304 1098 289 1114 q 319 1053 319 1082 q 304 1006 319 1022 q 258 989 289 989 m 451 989 q 405 1006 421 989 q 389 1053 389 1022 q 405 1098 389 1082 q 451 1114 421 1114 q 497 1098 481 1114 q 513 1053 513 1082 q 497 1006 513 1022 q 451 989 481 989 z "},"İ":{"ha":440,"x_min":26,"x_max":472,"o":"m 31 0 q 26 8 26 0 q 31 17 26 17 q 94 24 74 17 q 124 50 114 31 q 142 113 135 69 l 256 756 q 261 800 261 792 q 242 841 261 831 q 176 851 224 851 q 172 860 172 851 q 176 868 172 868 l 236 867 q 319 864 289 864 q 413 867 360 864 l 468 868 q 472 860 472 868 q 468 851 472 851 q 406 843 426 851 q 374 815 385 835 q 356 753 364 794 l 242 113 q 236 68 236 76 q 255 27 236 38 q 322 17 274 17 q 325 8 325 17 q 322 0 325 0 q 264 1 286 0 l 175 3 l 92 1 q 31 0 69 0 m 347 986 q 299 1003 317 986 q 281 1051 281 1021 q 299 1099 281 1082 q 347 1115 317 1115 q 395 1099 378 1115 q 413 1051 413 1082 q 395 1003 413 1021 q 347 986 378 986 z "},"Ị":{"ha":440,"x_min":26,"x_max":472,"o":"m 31 0 q 26 8 26 0 q 31 17 26 17 q 94 24 74 17 q 124 50 114 31 q 142 113 135 69 l 256 756 q 261 800 261 792 q 242 841 261 831 q 176 851 224 851 q 172 860 172 851 q 176 868 172 868 l 236 867 q 319 864 289 864 q 413 867 360 864 l 468 868 q 472 860 472 868 q 468 851 472 851 q 406 843 426 851 q 374 815 385 835 q 356 753 364 794 l 242 113 q 236 68 236 76 q 255 27 236 38 q 322 17 274 17 q 325 8 325 17 q 322 0 325 0 q 264 1 286 0 l 175 3 l 92 1 q 31 0 69 0 m 144 -268 q 97 -251 114 -268 q 79 -203 79 -233 q 97 -157 79 -174 q 144 -140 114 -140 q 192 -157 175 -140 q 210 -203 210 -174 q 192 -251 210 -235 q 144 -268 175 -268 z "},"Ì":{"ha":440,"x_min":26,"x_max":472,"o":"m 31 0 q 26 8 26 0 q 31 17 26 17 q 94 24 74 17 q 124 50 114 31 q 142 113 135 69 l 256 756 q 261 800 261 792 q 242 841 261 831 q 176 851 224 851 q 172 860 172 851 q 176 868 172 868 l 236 867 q 319 864 289 864 q 413 867 360 864 l 468 868 q 472 860 472 868 q 468 851 472 851 q 406 843 426 851 q 374 815 385 835 q 356 753 364 794 l 242 113 q 236 68 236 76 q 255 27 236 38 q 322 17 274 17 q 325 8 325 17 q 322 0 325 0 q 264 1 286 0 l 175 3 l 92 1 q 31 0 69 0 m 449 951 q 319 1006 378 983 q 186 1050 260 1028 q 199 1065 172 1053 q 263 1088 226 1078 q 306 1093 300 1097 q 458 964 365 1039 q 461 960 461 964 q 457 953 461 956 q 449 951 453 950 z "},"Ỉ":{"ha":440,"x_min":26,"x_max":472,"o":"m 31 0 q 26 8 26 0 q 31 17 26 17 q 94 24 74 17 q 124 50 114 31 q 142 113 135 69 l 256 756 q 261 800 261 792 q 242 841 261 831 q 176 851 224 851 q 172 860 172 851 q 176 868 172 868 l 236 867 q 319 864 289 864 q 413 867 360 864 l 468 868 q 472 860 472 868 q 468 851 472 851 q 406 843 426 851 q 374 815 385 835 q 356 753 364 794 l 242 113 q 236 68 236 76 q 255 27 236 38 q 322 17 274 17 q 325 8 325 17 q 322 0 325 0 q 264 1 286 0 l 175 3 l 92 1 q 31 0 69 0 m 333 904 q 326 901 335 901 q 317 904 318 900 q 315 924 315 911 q 324 967 315 949 q 350 1017 332 986 q 373 1059 365 1043 q 381 1094 381 1075 q 368 1128 381 1117 q 335 1140 356 1140 q 292 1129 314 1140 l 289 1129 q 282 1133 285 1129 q 283 1142 279 1138 q 383 1172 331 1172 q 448 1152 425 1172 q 468 1100 471 1132 q 447 1051 465 1074 q 397 1000 429 1028 q 347 948 363 968 q 333 904 332 928 z "},"Ī":{"ha":440,"x_min":26,"x_max":528,"o":"m 31 0 q 26 8 26 0 q 31 17 26 17 q 94 24 74 17 q 124 50 114 31 q 142 113 135 69 l 256 756 q 261 800 261 792 q 242 841 261 831 q 176 851 224 851 q 172 860 172 851 q 176 868 172 868 l 236 867 q 319 864 289 864 q 413 867 360 864 l 468 868 q 472 860 472 868 q 468 851 472 851 q 406 843 426 851 q 374 815 385 835 q 356 753 364 794 l 242 113 q 236 68 236 76 q 255 27 236 38 q 322 17 274 17 q 325 8 325 17 q 322 0 325 0 q 264 1 286 0 l 175 3 l 92 1 q 31 0 69 0 m 192 994 q 182 1017 182 994 q 192 1039 182 1039 l 517 1039 q 525 1032 522 1039 q 528 1017 528 1025 q 525 1001 528 1008 q 517 994 522 994 l 192 994 z "},"Į":{"ha":440,"x_min":13,"x_max":472,"o":"m 468 868 q 472 860 472 868 q 468 851 472 851 q 406 843 426 851 q 374 815 385 835 q 356 753 364 794 l 242 113 q 236 68 236 76 q 255 27 236 38 q 322 17 274 17 q 325 8 325 17 q 322 0 325 0 q 269 1 289 0 l 189 3 q 104 -201 117 -97 q 100 -242 100 -222 q 117 -308 100 -283 q 167 -332 135 -332 q 233 -301 203 -332 l 235 -301 q 244 -306 240 -301 q 244 -314 249 -311 q 176 -366 207 -350 q 110 -382 144 -382 q 38 -353 64 -382 q 13 -275 13 -324 q 53 -143 13 -211 q 167 3 93 -75 l 88 1 q 31 0 67 0 q 26 8 26 0 q 31 17 26 17 q 94 24 74 17 q 124 50 114 31 q 142 113 135 69 l 256 756 q 261 800 261 792 q 242 841 261 831 q 176 851 224 851 q 172 860 172 851 q 176 868 172 868 l 236 867 q 319 864 289 864 q 413 867 360 864 l 468 868 z "},"Ĩ":{"ha":440,"x_min":26,"x_max":543,"o":"m 31 0 q 26 8 26 0 q 31 17 26 17 q 94 24 74 17 q 124 50 114 31 q 142 113 135 69 l 256 756 q 261 800 261 792 q 242 841 261 831 q 176 851 224 851 q 172 860 172 851 q 176 868 172 868 l 236 867 q 319 864 289 864 q 413 867 360 864 l 468 868 q 472 860 472 868 q 468 851 472 851 q 406 843 426 851 q 374 815 385 835 q 356 753 364 794 l 242 113 q 236 68 236 76 q 255 27 236 38 q 322 17 274 17 q 325 8 325 17 q 322 0 325 0 q 264 1 286 0 l 175 3 l 92 1 q 31 0 69 0 m 165 963 q 158 966 161 963 q 158 972 156 969 q 283 1065 224 1065 q 353 1051 303 1065 q 456 1032 417 1032 q 498 1041 482 1032 q 532 1069 514 1050 l 533 1069 q 541 1066 538 1069 q 542 1060 544 1063 q 478 985 503 1004 q 424 965 454 965 q 340 982 396 965 q 305 992 335 983 q 244 1000 275 1000 q 206 993 219 1000 q 182 976 192 986 q 168 963 172 967 l 165 963 z "},"J":{"ha":406,"x_min":-42,"x_max":460,"o":"m -32 -268 q -39 -262 -36 -268 q -37 -253 -42 -256 q 61 -140 25 -215 q 119 56 97 -65 l 243 756 q 247 799 247 781 q 229 841 247 831 q 163 851 211 851 q 160 860 160 851 q 163 868 160 868 l 222 867 q 307 864 275 864 q 399 867 346 864 l 456 868 q 460 860 460 868 q 456 851 460 851 q 392 843 413 851 q 360 815 371 835 q 343 753 350 794 l 226 93 q 175 -83 206 -15 q 97 -192 144 -150 q -31 -268 49 -235 l -32 -268 z "},"Ĵ":{"ha":406,"x_min":-39,"x_max":465,"o":"m -32 -268 q -39 -262 -36 -268 q -37 -253 -42 -256 q 61 -140 25 -215 q 119 56 97 -65 l 243 756 q 247 799 247 781 q 229 841 247 831 q 163 851 211 851 q 160 860 160 851 q 163 868 160 868 l 222 867 q 307 864 275 864 q 399 867 346 864 l 456 868 q 460 860 460 868 q 456 851 460 851 q 392 843 413 851 q 360 815 371 835 q 343 753 350 794 l 226 93 q 175 -83 206 -15 q 97 -192 144 -150 q -31 -268 49 -235 l -32 -268 m 186 917 q 179 920 182 917 q 179 926 176 924 l 332 1069 q 344 1076 336 1076 q 357 1069 353 1076 l 464 926 l 465 924 q 461 918 465 921 q 454 917 457 915 l 332 988 l 188 917 l 186 917 z "},"K":{"ha":839,"x_min":13,"x_max":881,"o":"m 876 868 q 881 860 881 868 q 876 851 881 851 q 762 823 825 851 q 639 739 699 794 l 417 540 l 551 288 q 658 102 622 157 q 719 32 694 47 q 781 17 743 17 q 785 8 785 17 q 781 0 785 0 l 658 0 q 587 7 601 0 q 536 90 572 14 q 476 211 500 167 l 338 469 l 282 421 l 228 113 q 221 56 221 71 q 237 24 221 32 q 299 17 253 17 q 301 8 301 17 q 299 0 301 0 q 242 1 261 0 l 158 3 l 75 1 q 17 0 54 0 q 13 8 13 0 q 17 17 13 17 q 81 24 60 17 q 113 51 101 31 q 131 113 124 71 l 244 756 q 250 800 250 792 q 232 841 250 831 q 165 851 214 851 q 163 860 163 851 q 165 868 163 868 l 225 867 q 307 864 275 864 q 394 867 339 864 l 456 868 q 458 860 458 868 q 456 851 458 851 q 392 843 414 851 q 360 815 371 835 q 342 753 350 794 l 289 454 l 608 747 q 657 821 657 792 q 596 851 657 851 q 593 860 593 851 q 596 868 593 868 l 653 867 q 750 864 708 864 q 833 867 789 864 l 876 868 z "},"Ḱ":{"ha":839,"x_min":13,"x_max":881,"o":"m 876 868 q 881 860 881 868 q 876 851 881 851 q 762 823 825 851 q 639 739 699 794 l 417 540 l 551 288 q 658 102 622 157 q 719 32 694 47 q 781 17 743 17 q 785 8 785 17 q 781 0 785 0 l 658 0 q 587 7 601 0 q 536 90 572 14 q 476 211 500 167 l 338 469 l 282 421 l 228 113 q 221 56 221 71 q 237 24 221 32 q 299 17 253 17 q 301 8 301 17 q 299 0 301 0 q 242 1 261 0 l 158 3 l 75 1 q 17 0 54 0 q 13 8 13 0 q 17 17 13 17 q 81 24 60 17 q 113 51 101 31 q 131 113 124 71 l 244 756 q 250 800 250 792 q 232 841 250 831 q 165 851 214 851 q 163 860 163 851 q 165 868 163 868 l 225 867 q 307 864 275 864 q 394 867 339 864 l 456 868 q 458 860 458 868 q 456 851 458 851 q 392 843 414 851 q 360 815 371 835 q 342 753 350 794 l 289 454 l 608 747 q 657 821 657 792 q 596 851 657 851 q 593 860 593 851 q 596 868 593 868 l 653 867 q 750 864 708 864 q 833 867 789 864 l 876 868 m 463 942 q 456 948 457 942 q 458 957 454 954 q 549 1013 504 982 q 607 1051 594 1043 l 667 1093 q 706 1088 674 1097 q 762 1065 738 1078 q 774 1050 786 1053 q 616 1003 688 1029 q 465 943 544 978 l 463 942 z "},"Ǩ":{"ha":839,"x_min":13,"x_max":881,"o":"m 876 868 q 881 860 881 868 q 876 851 881 851 q 762 823 825 851 q 639 739 699 794 l 417 540 l 551 288 q 658 102 622 157 q 719 32 694 47 q 781 17 743 17 q 785 8 785 17 q 781 0 785 0 l 658 0 q 587 7 601 0 q 536 90 572 14 q 476 211 500 167 l 338 469 l 282 421 l 228 113 q 221 56 221 71 q 237 24 221 32 q 299 17 253 17 q 301 8 301 17 q 299 0 301 0 q 242 1 261 0 l 158 3 l 75 1 q 17 0 54 0 q 13 8 13 0 q 17 17 13 17 q 81 24 60 17 q 113 51 101 31 q 131 113 124 71 l 244 756 q 250 800 250 792 q 232 841 250 831 q 165 851 214 851 q 163 860 163 851 q 165 868 163 868 l 225 867 q 307 864 275 864 q 394 867 339 864 l 456 868 q 458 860 458 868 q 456 851 458 851 q 392 843 414 851 q 360 815 371 835 q 342 753 350 794 l 289 454 l 608 747 q 657 821 657 792 q 596 851 657 851 q 593 860 593 851 q 596 868 593 868 l 653 867 q 750 864 708 864 q 833 867 789 864 l 876 868 m 425 1082 l 425 1083 q 429 1090 425 1086 q 435 1092 433 1093 l 557 1019 l 701 1092 l 703 1092 q 710 1088 707 1092 q 710 1082 714 1083 l 557 938 q 543 932 551 932 q 532 938 536 932 l 425 1082 z "},"Ķ":{"ha":839,"x_min":13,"x_max":881,"o":"m 876 868 q 881 860 881 868 q 876 851 881 851 q 762 823 825 851 q 639 739 699 794 l 417 540 l 551 288 q 658 102 622 157 q 719 32 694 47 q 781 17 743 17 q 785 8 785 17 q 781 0 785 0 l 658 0 q 587 7 601 0 q 536 90 572 14 q 476 211 500 167 l 338 469 l 282 421 l 228 113 q 221 56 221 71 q 237 24 221 32 q 299 17 253 17 q 301 8 301 17 q 299 0 301 0 q 242 1 261 0 l 158 3 l 75 1 q 17 0 54 0 q 13 8 13 0 q 17 17 13 17 q 81 24 60 17 q 113 51 101 31 q 131 113 124 71 l 244 756 q 250 800 250 792 q 232 841 250 831 q 165 851 214 851 q 163 860 163 851 q 165 868 163 868 l 225 867 q 307 864 275 864 q 394 867 339 864 l 456 868 q 458 860 458 868 q 456 851 458 851 q 392 843 414 851 q 360 815 371 835 q 342 753 350 794 l 289 454 l 608 747 q 657 821 657 792 q 596 851 657 851 q 593 860 593 851 q 596 868 593 868 l 653 867 q 750 864 708 864 q 833 867 789 864 l 876 868 m 383 -111 q 440 -134 419 -111 q 460 -196 460 -157 q 339 -382 460 -303 l 336 -383 q 328 -377 331 -383 q 329 -368 325 -371 q 406 -265 397 -322 q 407 -243 407 -257 q 406 -226 407 -232 q 374 -236 396 -236 q 326 -215 342 -236 q 313 -167 310 -194 q 334 -126 315 -142 q 383 -111 353 -111 z "},"L":{"ha":693,"x_min":14,"x_max":669,"o":"m 18 0 q 14 8 14 0 q 18 17 14 17 q 82 24 61 17 q 113 51 103 31 q 131 113 124 71 l 244 756 q 250 800 250 792 q 232 841 250 831 q 165 851 214 851 q 163 860 163 851 q 165 868 163 868 l 225 867 q 307 864 275 864 q 394 867 339 864 l 456 868 q 458 860 458 868 q 456 851 458 851 q 392 844 413 851 q 360 816 371 836 q 342 754 350 796 l 229 118 q 225 75 225 93 q 241 36 225 46 q 299 26 257 26 l 406 26 q 550 75 490 26 q 653 219 610 124 q 662 222 654 224 q 668 217 669 221 q 622 21 640 122 q 615 5 619 10 q 600 0 610 0 l 18 0 z "},"Ĺ":{"ha":693,"x_min":14,"x_max":668,"o":"m 18 0 q 14 8 14 0 q 18 17 14 17 q 82 24 61 17 q 113 51 103 31 q 131 113 124 71 l 244 756 q 250 800 250 792 q 232 841 250 831 q 165 851 214 851 q 163 860 163 851 q 165 868 163 868 l 225 867 q 307 864 275 864 q 394 867 339 864 l 456 868 q 458 860 458 868 q 456 851 458 851 q 392 844 413 851 q 360 816 371 836 q 342 754 350 796 l 229 118 q 225 75 225 93 q 241 36 225 46 q 299 26 257 26 l 406 26 q 550 75 490 26 q 653 219 610 124 q 662 222 654 224 q 668 217 669 221 q 622 21 640 122 q 615 5 619 10 q 600 0 610 0 l 18 0 m 236 942 q 229 948 231 942 q 232 957 228 954 q 323 1013 278 982 q 381 1051 368 1043 l 440 1093 q 479 1088 447 1097 q 535 1065 511 1078 q 547 1050 560 1053 q 390 1003 461 1029 q 239 943 318 978 l 236 942 z "},"Ľ":{"ha":693,"x_min":14,"x_max":676,"o":"m 18 0 q 14 8 14 0 q 18 17 14 17 q 82 24 61 17 q 113 51 103 31 q 131 113 124 71 l 244 756 q 250 800 250 792 q 232 841 250 831 q 165 851 214 851 q 163 860 163 851 q 165 868 163 868 l 225 867 q 307 864 275 864 q 394 867 339 864 l 456 868 q 458 860 458 868 q 456 851 458 851 q 392 844 413 851 q 360 816 371 836 q 342 754 350 796 l 229 118 q 225 75 225 93 q 241 36 225 46 q 299 26 257 26 l 406 26 q 550 75 490 26 q 653 219 610 124 q 662 222 654 224 q 668 217 669 221 q 622 21 640 122 q 615 5 619 10 q 600 0 610 0 l 18 0 m 608 868 q 628 865 610 875 q 662 840 646 854 q 676 818 678 825 l 567 490 q 558 488 565 488 q 551 490 551 488 l 608 868 z "},"Ļ":{"ha":693,"x_min":14,"x_max":668,"o":"m 18 0 q 14 8 14 0 q 18 17 14 17 q 82 24 61 17 q 113 51 103 31 q 131 113 124 71 l 244 756 q 250 800 250 792 q 232 841 250 831 q 165 851 214 851 q 163 860 163 851 q 165 868 163 868 l 225 867 q 307 864 275 864 q 394 867 339 864 l 456 868 q 458 860 458 868 q 456 851 458 851 q 392 844 413 851 q 360 816 371 836 q 342 754 350 796 l 229 118 q 225 75 225 93 q 241 36 225 46 q 299 26 257 26 l 406 26 q 550 75 490 26 q 653 219 610 124 q 662 222 654 224 q 668 217 669 221 q 622 21 640 122 q 615 5 619 10 q 600 0 610 0 l 18 0 m 324 -111 q 380 -134 360 -111 q 400 -196 400 -157 q 279 -382 400 -303 l 276 -383 q 268 -377 271 -383 q 269 -368 265 -371 q 346 -265 338 -322 q 347 -243 347 -257 q 346 -226 347 -232 q 314 -236 336 -236 q 266 -215 282 -236 q 253 -167 250 -194 q 274 -126 256 -142 q 324 -111 293 -111 z "},"Ŀ":{"ha":693,"x_min":14,"x_max":668,"o":"m 18 0 q 14 8 14 0 q 18 17 14 17 q 82 24 61 17 q 113 51 103 31 q 131 113 124 71 l 244 756 q 250 800 250 792 q 232 841 250 831 q 165 851 214 851 q 163 860 163 851 q 165 868 163 868 l 225 867 q 307 864 275 864 q 394 867 339 864 l 456 868 q 458 860 458 868 q 456 851 458 851 q 392 844 413 851 q 360 816 371 836 q 342 754 350 796 l 229 118 q 225 75 225 93 q 241 36 225 46 q 299 26 257 26 l 406 26 q 550 75 490 26 q 653 219 610 124 q 662 222 654 224 q 668 217 669 221 q 622 21 640 122 q 615 5 619 10 q 600 0 610 0 l 18 0 m 599 386 q 551 404 568 386 q 533 453 533 422 q 551 497 533 481 q 599 514 568 514 q 646 498 629 514 q 663 453 663 482 q 646 403 663 421 q 599 386 629 386 z "},"Ḷ":{"ha":693,"x_min":14,"x_max":668,"o":"m 18 0 q 14 8 14 0 q 18 17 14 17 q 82 24 61 17 q 113 51 103 31 q 131 113 124 71 l 244 756 q 250 800 250 792 q 232 841 250 831 q 165 851 214 851 q 163 860 163 851 q 165 868 163 868 l 225 867 q 307 864 275 864 q 394 867 339 864 l 456 868 q 458 860 458 868 q 456 851 458 851 q 392 844 413 851 q 360 816 371 836 q 342 754 350 796 l 229 118 q 225 75 225 93 q 241 36 225 46 q 299 26 257 26 l 406 26 q 550 75 490 26 q 653 219 610 124 q 662 222 654 224 q 668 217 669 221 q 622 21 640 122 q 615 5 619 10 q 600 0 610 0 l 18 0 m 322 -268 q 274 -251 292 -268 q 257 -203 257 -233 q 274 -157 257 -174 q 322 -140 292 -140 q 370 -157 353 -140 q 388 -203 388 -174 q 370 -251 388 -235 q 322 -268 353 -268 z "},"Ḹ":{"ha":693,"x_min":14,"x_max":668,"o":"m 18 0 q 14 8 14 0 q 18 17 14 17 q 82 24 61 17 q 113 51 103 31 q 131 113 124 71 l 244 756 q 250 800 250 792 q 232 841 250 831 q 165 851 214 851 q 163 860 163 851 q 165 868 163 868 l 225 867 q 307 864 275 864 q 394 867 339 864 l 456 868 q 458 860 458 868 q 456 851 458 851 q 392 844 413 851 q 360 816 371 836 q 342 754 350 796 l 229 118 q 225 75 225 93 q 241 36 225 46 q 299 26 257 26 l 406 26 q 550 75 490 26 q 653 219 610 124 q 662 222 654 224 q 668 217 669 221 q 622 21 640 122 q 615 5 619 10 q 600 0 610 0 l 18 0 m 322 -268 q 274 -251 292 -268 q 257 -203 257 -233 q 274 -157 257 -174 q 322 -140 292 -140 q 370 -157 353 -140 q 388 -203 388 -174 q 370 -251 388 -235 q 322 -268 353 -268 m 133 990 q 125 997 128 990 q 122 1011 122 1003 q 125 1026 122 1019 q 133 1032 128 1032 l 482 1032 q 492 1011 492 1032 q 482 990 492 990 l 133 990 z "},"Ḻ":{"ha":693,"x_min":14,"x_max":668,"o":"m 18 0 q 14 8 14 0 q 18 17 14 17 q 82 24 61 17 q 113 51 103 31 q 131 113 124 71 l 244 756 q 250 800 250 792 q 232 841 250 831 q 165 851 214 851 q 163 860 163 851 q 165 868 163 868 l 225 867 q 307 864 275 864 q 394 867 339 864 l 456 868 q 458 860 458 868 q 456 851 458 851 q 392 844 413 851 q 360 816 371 836 q 342 754 350 796 l 229 118 q 225 75 225 93 q 241 36 225 46 q 299 26 257 26 l 406 26 q 550 75 490 26 q 653 219 610 124 q 662 222 654 224 q 668 217 669 221 q 622 21 640 122 q 615 5 619 10 q 600 0 610 0 l 18 0 m 182 -165 q 174 -158 176 -165 q 171 -143 171 -151 q 174 -128 171 -135 q 182 -121 176 -121 l 507 -121 q 517 -143 517 -121 q 507 -165 517 -165 l 182 -165 z "},"Ł":{"ha":693,"x_min":14,"x_max":669,"o":"m 653 219 q 662 222 654 224 q 668 217 669 221 q 622 21 640 122 q 615 5 619 10 q 600 0 610 0 l 18 0 q 14 8 14 0 q 18 17 14 17 q 82 24 61 17 q 113 51 103 31 q 131 113 124 71 l 178 376 l 103 333 l 101 333 q 90 344 96 333 q 89 356 85 354 l 183 410 l 244 756 q 250 800 250 792 q 232 841 250 831 q 165 851 214 851 q 163 860 163 851 q 165 868 163 868 l 225 867 q 307 864 275 864 q 394 867 339 864 l 456 868 q 458 860 458 868 q 456 851 458 851 q 392 844 413 851 q 360 816 371 836 q 342 754 350 796 l 292 472 l 393 531 l 394 531 q 406 520 400 531 q 406 508 411 510 l 286 439 l 229 118 q 225 75 225 93 q 241 36 225 46 q 299 26 257 26 l 406 26 q 550 75 490 26 q 653 219 610 124 z "},"M":{"ha":1021,"x_min":18,"x_max":1068,"o":"m 1065 868 q 1068 860 1068 868 q 1065 851 1068 851 q 985 833 1011 851 q 951 758 960 814 l 856 113 q 851 71 851 88 q 869 28 851 39 q 935 17 886 17 q 939 8 939 17 q 935 0 939 0 q 878 1 899 0 l 790 3 l 706 1 q 644 0 683 0 q 640 8 640 0 q 644 17 640 17 q 710 24 689 17 q 741 51 731 31 q 757 113 751 71 l 856 772 l 461 10 q 451 4 458 4 q 440 11 443 4 l 285 753 l 285 754 l 178 161 q 172 103 172 132 q 246 17 172 17 q 250 8 250 17 q 246 0 250 0 q 201 1 217 0 l 133 3 l 72 1 q 22 0 56 0 q 18 8 18 0 q 22 17 18 17 q 101 52 71 17 q 146 160 132 88 l 265 804 q 174 851 236 851 q 169 860 169 851 q 174 868 169 868 q 210 867 196 868 l 254 865 q 303 867 283 865 q 333 868 322 868 q 357 854 349 868 q 375 796 365 840 l 511 161 l 857 833 q 878 858 865 849 q 904 868 890 868 q 932 867 914 868 q 974 865 950 865 l 1028 867 q 1065 868 1040 868 z "},"Ṁ":{"ha":1021,"x_min":18,"x_max":1068,"o":"m 1065 868 q 1068 860 1068 868 q 1065 851 1068 851 q 985 833 1011 851 q 951 758 960 814 l 856 113 q 851 71 851 88 q 869 28 851 39 q 935 17 886 17 q 939 8 939 17 q 935 0 939 0 q 878 1 899 0 l 790 3 l 706 1 q 644 0 683 0 q 640 8 640 0 q 644 17 640 17 q 710 24 689 17 q 741 51 731 31 q 757 113 751 71 l 856 772 l 461 10 q 451 4 458 4 q 440 11 443 4 l 285 753 l 285 754 l 178 161 q 172 103 172 132 q 246 17 172 17 q 250 8 250 17 q 246 0 250 0 q 201 1 217 0 l 133 3 l 72 1 q 22 0 56 0 q 18 8 18 0 q 22 17 18 17 q 101 52 71 17 q 146 160 132 88 l 265 804 q 174 851 236 851 q 169 860 169 851 q 174 868 169 868 q 210 867 196 868 l 254 865 q 303 867 283 865 q 333 868 322 868 q 357 854 349 868 q 375 796 365 840 l 511 161 l 857 833 q 878 858 865 849 q 904 868 890 868 q 932 867 914 868 q 974 865 950 865 l 1028 867 q 1065 868 1040 868 m 633 986 q 585 1003 603 986 q 567 1051 567 1021 q 585 1099 567 1082 q 633 1115 603 1115 q 681 1099 664 1115 q 699 1051 699 1082 q 681 1003 699 1021 q 633 986 664 986 z "},"Ṃ":{"ha":1021,"x_min":18,"x_max":1068,"o":"m 1065 868 q 1068 860 1068 868 q 1065 851 1068 851 q 985 833 1011 851 q 951 758 960 814 l 856 113 q 851 71 851 88 q 869 28 851 39 q 935 17 886 17 q 939 8 939 17 q 935 0 939 0 q 878 1 899 0 l 790 3 l 706 1 q 644 0 683 0 q 640 8 640 0 q 644 17 640 17 q 710 24 689 17 q 741 51 731 31 q 757 113 751 71 l 856 772 l 461 10 q 451 4 458 4 q 440 11 443 4 l 285 753 l 285 754 l 178 161 q 172 103 172 132 q 246 17 172 17 q 250 8 250 17 q 246 0 250 0 q 201 1 217 0 l 133 3 l 72 1 q 22 0 56 0 q 18 8 18 0 q 22 17 18 17 q 101 52 71 17 q 146 160 132 88 l 265 804 q 174 851 236 851 q 169 860 169 851 q 174 868 169 868 q 210 867 196 868 l 254 865 q 303 867 283 865 q 333 868 322 868 q 357 854 349 868 q 375 796 365 840 l 511 161 l 857 833 q 878 858 865 849 q 904 868 890 868 q 932 867 914 868 q 974 865 950 865 l 1028 867 q 1065 868 1040 868 m 435 -268 q 387 -251 404 -268 q 369 -203 369 -233 q 387 -157 369 -174 q 435 -140 404 -140 q 483 -157 465 -140 q 500 -203 500 -174 q 483 -251 500 -235 q 435 -268 465 -268 z "},"N":{"ha":906,"x_min":7,"x_max":967,"o":"m 964 868 q 967 860 967 868 q 964 851 967 851 q 838 715 860 851 l 707 -12 q 703 -17 707 -15 q 693 -19 699 -19 q 681 -14 682 -19 l 274 754 l 169 151 q 164 103 164 115 q 246 17 164 17 q 249 8 249 17 q 246 0 249 0 q 197 1 215 0 l 129 3 l 63 1 q 10 0 44 0 q 7 8 7 0 q 10 17 7 17 q 136 151 114 17 l 250 793 q 206 838 228 825 q 158 851 183 851 q 154 860 154 851 q 158 868 154 868 l 213 867 q 258 865 229 865 q 303 867 285 865 q 329 868 321 868 q 342 863 338 868 q 351 842 346 858 q 371 796 361 814 l 706 161 l 804 715 q 810 765 810 751 q 728 851 810 851 q 725 860 725 851 q 728 868 725 868 l 775 867 q 846 864 817 864 q 910 867 868 864 l 964 868 z "},"Ń":{"ha":906,"x_min":7,"x_max":967,"o":"m 964 868 q 967 860 967 868 q 964 851 967 851 q 838 715 860 851 l 707 -12 q 703 -17 707 -15 q 693 -19 699 -19 q 681 -14 682 -19 l 274 754 l 169 151 q 164 103 164 115 q 246 17 164 17 q 249 8 249 17 q 246 0 249 0 q 197 1 215 0 l 129 3 l 63 1 q 10 0 44 0 q 7 8 7 0 q 10 17 7 17 q 136 151 114 17 l 250 793 q 206 838 228 825 q 158 851 183 851 q 154 860 154 851 q 158 868 154 868 l 213 867 q 258 865 229 865 q 303 867 285 865 q 329 868 321 868 q 342 863 338 868 q 351 842 346 858 q 371 796 361 814 l 706 161 l 804 715 q 810 765 810 751 q 728 851 810 851 q 725 860 725 851 q 728 868 725 868 l 775 867 q 846 864 817 864 q 910 867 868 864 l 964 868 m 475 942 q 468 948 469 942 q 471 957 467 954 q 562 1013 517 982 q 619 1051 607 1043 l 679 1093 q 718 1088 686 1097 q 774 1065 750 1078 q 786 1050 799 1053 q 628 1003 700 1029 q 478 943 557 978 l 475 942 z "},"Ň":{"ha":906,"x_min":7,"x_max":967,"o":"m 964 868 q 967 860 967 868 q 964 851 967 851 q 838 715 860 851 l 707 -12 q 703 -17 707 -15 q 693 -19 699 -19 q 681 -14 682 -19 l 274 754 l 169 151 q 164 103 164 115 q 246 17 164 17 q 249 8 249 17 q 246 0 249 0 q 197 1 215 0 l 129 3 l 63 1 q 10 0 44 0 q 7 8 7 0 q 10 17 7 17 q 136 151 114 17 l 250 793 q 206 838 228 825 q 158 851 183 851 q 154 860 154 851 q 158 868 154 868 l 213 867 q 258 865 229 865 q 303 867 285 865 q 329 868 321 868 q 342 863 338 868 q 351 842 346 858 q 371 796 361 814 l 706 161 l 804 715 q 810 765 810 751 q 728 851 810 851 q 725 860 725 851 q 728 868 725 868 l 775 867 q 846 864 817 864 q 910 867 868 864 l 964 868 m 438 1082 l 438 1083 q 442 1090 438 1086 q 447 1092 446 1093 l 569 1019 l 714 1092 l 715 1092 q 723 1088 719 1092 q 722 1082 726 1083 l 569 938 q 556 932 564 932 q 544 938 549 932 l 438 1082 z "},"Ņ":{"ha":906,"x_min":7,"x_max":967,"o":"m 964 868 q 967 860 967 868 q 964 851 967 851 q 838 715 860 851 l 707 -12 q 703 -17 707 -15 q 693 -19 699 -19 q 681 -14 682 -19 l 274 754 l 169 151 q 164 103 164 115 q 246 17 164 17 q 249 8 249 17 q 246 0 249 0 q 197 1 215 0 l 129 3 l 63 1 q 10 0 44 0 q 7 8 7 0 q 10 17 7 17 q 136 151 114 17 l 250 793 q 206 838 228 825 q 158 851 183 851 q 154 860 154 851 q 158 868 154 868 l 213 867 q 258 865 229 865 q 303 867 285 865 q 329 868 321 868 q 342 863 338 868 q 351 842 346 858 q 371 796 361 814 l 706 161 l 804 715 q 810 765 810 751 q 728 851 810 851 q 725 860 725 851 q 728 868 725 868 l 775 867 q 846 864 817 864 q 910 867 868 864 l 964 868 m 406 -111 q 462 -134 442 -111 q 482 -196 482 -157 q 361 -382 482 -303 l 358 -383 q 350 -377 353 -383 q 351 -368 347 -371 q 428 -265 419 -322 q 429 -243 429 -257 q 428 -226 429 -232 q 396 -236 418 -236 q 348 -215 364 -236 q 335 -167 332 -194 q 356 -126 338 -142 q 406 -111 375 -111 z "},"Ṅ":{"ha":906,"x_min":7,"x_max":967,"o":"m 964 868 q 967 860 967 868 q 964 851 967 851 q 838 715 860 851 l 707 -12 q 703 -17 707 -15 q 693 -19 699 -19 q 681 -14 682 -19 l 274 754 l 169 151 q 164 103 164 115 q 246 17 164 17 q 249 8 249 17 q 246 0 249 0 q 197 1 215 0 l 129 3 l 63 1 q 10 0 44 0 q 7 8 7 0 q 10 17 7 17 q 136 151 114 17 l 250 793 q 206 838 228 825 q 158 851 183 851 q 154 860 154 851 q 158 868 154 868 l 213 867 q 258 865 229 865 q 303 867 285 865 q 329 868 321 868 q 342 863 338 868 q 351 842 346 858 q 371 796 361 814 l 706 161 l 804 715 q 810 765 810 751 q 728 851 810 851 q 725 860 725 851 q 728 868 725 868 l 775 867 q 846 864 817 864 q 910 867 868 864 l 964 868 m 574 986 q 525 1003 543 986 q 507 1051 507 1021 q 525 1099 507 1082 q 574 1115 543 1115 q 622 1099 604 1115 q 639 1051 639 1082 q 622 1003 639 1021 q 574 986 604 986 z "},"Ṇ":{"ha":906,"x_min":7,"x_max":967,"o":"m 964 868 q 967 860 967 868 q 964 851 967 851 q 838 715 860 851 l 707 -12 q 703 -17 707 -15 q 693 -19 699 -19 q 681 -14 682 -19 l 274 754 l 169 151 q 164 103 164 115 q 246 17 164 17 q 249 8 249 17 q 246 0 249 0 q 197 1 215 0 l 129 3 l 63 1 q 10 0 44 0 q 7 8 7 0 q 10 17 7 17 q 136 151 114 17 l 250 793 q 206 838 228 825 q 158 851 183 851 q 154 860 154 851 q 158 868 154 868 l 213 867 q 258 865 229 865 q 303 867 285 865 q 329 868 321 868 q 342 863 338 868 q 351 842 346 858 q 371 796 361 814 l 706 161 l 804 715 q 810 765 810 751 q 728 851 810 851 q 725 860 725 851 q 728 868 725 868 l 775 867 q 846 864 817 864 q 910 867 868 864 l 964 868 m 404 -268 q 356 -251 374 -268 q 339 -203 339 -233 q 356 -157 339 -174 q 404 -140 374 -140 q 452 -157 435 -140 q 469 -203 469 -174 q 452 -251 469 -235 q 404 -268 435 -268 z "},"Ŋ":{"ha":903,"x_min":7,"x_max":967,"o":"m 964 868 q 967 860 967 868 q 964 851 967 851 q 838 715 860 851 l 707 -12 l 707 -14 q 632 -202 685 -139 q 500 -265 579 -265 q 419 -242 451 -265 q 388 -185 388 -218 q 404 -138 388 -154 q 449 -122 421 -122 q 485 -136 475 -122 q 501 -176 496 -150 q 515 -213 507 -201 q 546 -225 524 -225 q 624 -172 590 -225 q 676 -7 657 -118 l 274 754 l 169 151 q 164 103 164 115 q 246 17 164 17 q 249 8 249 17 q 246 0 249 0 q 197 1 215 0 l 129 3 l 63 1 q 10 0 44 0 q 7 8 7 0 q 10 17 7 17 q 136 151 114 17 l 250 793 q 206 838 228 825 q 158 851 183 851 q 154 860 154 851 q 158 868 154 868 l 213 867 q 258 865 229 865 q 303 867 285 865 q 329 868 321 868 q 342 863 338 868 q 351 842 346 858 q 371 796 361 814 l 706 161 l 804 715 q 810 765 810 751 q 728 851 810 851 q 725 860 725 851 q 728 868 725 868 l 775 867 q 846 864 817 864 q 910 867 868 864 l 964 868 z "},"Ṉ":{"ha":906,"x_min":7,"x_max":967,"o":"m 964 868 q 967 860 967 868 q 964 851 967 851 q 838 715 860 851 l 707 -12 q 703 -17 707 -15 q 693 -19 699 -19 q 681 -14 682 -19 l 274 754 l 169 151 q 164 103 164 115 q 246 17 164 17 q 249 8 249 17 q 246 0 249 0 q 197 1 215 0 l 129 3 l 63 1 q 10 0 44 0 q 7 8 7 0 q 10 17 7 17 q 136 151 114 17 l 250 793 q 206 838 228 825 q 158 851 183 851 q 154 860 154 851 q 158 868 154 868 l 213 867 q 258 865 229 865 q 303 867 285 865 q 329 868 321 868 q 342 863 338 868 q 351 842 346 858 q 371 796 361 814 l 706 161 l 804 715 q 810 765 810 751 q 728 851 810 851 q 725 860 725 851 q 728 868 725 868 l 775 867 q 846 864 817 864 q 910 867 868 864 l 964 868 m 264 -165 q 256 -158 258 -165 q 253 -143 253 -151 q 256 -128 253 -135 q 264 -121 258 -121 l 589 -121 q 599 -143 599 -121 q 589 -165 599 -165 l 264 -165 z "},"Ñ":{"ha":906,"x_min":7,"x_max":967,"o":"m 964 868 q 967 860 967 868 q 964 851 967 851 q 838 715 860 851 l 707 -12 q 703 -17 707 -15 q 693 -19 699 -19 q 681 -14 682 -19 l 274 754 l 169 151 q 164 103 164 115 q 246 17 164 17 q 249 8 249 17 q 246 0 249 0 q 197 1 215 0 l 129 3 l 63 1 q 10 0 44 0 q 7 8 7 0 q 10 17 7 17 q 136 151 114 17 l 250 793 q 206 838 228 825 q 158 851 183 851 q 154 860 154 851 q 158 868 154 868 l 213 867 q 258 865 229 865 q 303 867 285 865 q 329 868 321 868 q 342 863 338 868 q 351 842 346 858 q 371 796 361 814 l 706 161 l 804 715 q 810 765 810 751 q 728 851 810 851 q 725 860 725 851 q 728 868 725 868 l 775 867 q 846 864 817 864 q 910 867 868 864 l 964 868 m 397 961 q 390 965 393 961 q 389 971 386 968 q 447 1036 414 1007 q 515 1065 479 1065 q 586 1050 538 1065 q 686 1031 647 1031 q 729 1040 713 1031 q 764 1068 746 1049 l 767 1068 q 774 1065 771 1068 q 774 1058 776 1061 q 710 984 735 1003 q 656 965 686 965 q 605 972 632 965 q 572 981 578 979 q 476 999 515 999 q 436 992 450 999 q 413 975 422 985 q 399 961 403 965 l 397 961 z "},"O":{"ha":906,"x_min":83,"x_max":886,"o":"m 393 -17 q 226 28 296 -17 q 119 153 156 74 q 83 333 83 232 q 92 435 83 383 q 184 666 114 564 q 355 826 254 768 q 569 883 456 883 q 740 838 668 883 q 849 715 811 793 q 886 536 886 636 q 876 435 886 483 q 780 199 853 303 q 605 40 707 96 q 393 -17 503 -17 m 453 19 q 649 110 567 19 q 763 361 732 200 q 776 497 776 429 q 745 678 776 599 q 654 804 714 758 q 514 850 594 850 q 316 758 399 850 q 204 508 233 667 q 192 379 192 442 q 222 196 192 278 q 312 67 253 114 q 453 19 371 19 z "},"Ó":{"ha":906,"x_min":83,"x_max":886,"o":"m 393 -17 q 226 28 296 -17 q 119 153 156 74 q 83 333 83 232 q 92 435 83 383 q 184 666 114 564 q 355 826 254 768 q 569 883 456 883 q 740 838 668 883 q 849 715 811 793 q 886 536 886 636 q 876 435 886 483 q 780 199 853 303 q 605 40 707 96 q 393 -17 503 -17 m 453 19 q 649 110 567 19 q 763 361 732 200 q 776 497 776 429 q 745 678 776 599 q 654 804 714 758 q 514 850 594 850 q 316 758 399 850 q 204 508 233 667 q 192 379 192 442 q 222 196 192 278 q 312 67 253 114 q 453 19 371 19 m 482 942 q 475 948 476 942 q 478 957 474 954 q 569 1013 524 982 q 626 1051 614 1043 l 686 1093 q 725 1088 693 1097 q 781 1065 757 1078 q 793 1050 806 1053 q 635 1003 707 1029 q 485 943 564 978 l 482 942 z "},"Ŏ":{"ha":906,"x_min":83,"x_max":886,"o":"m 393 -17 q 226 28 296 -17 q 119 153 156 74 q 83 333 83 232 q 92 435 83 383 q 184 666 114 564 q 355 826 254 768 q 569 883 456 883 q 740 838 668 883 q 849 715 811 793 q 886 536 886 636 q 876 435 886 483 q 780 199 853 303 q 605 40 707 96 q 393 -17 503 -17 m 453 19 q 649 110 567 19 q 763 361 732 200 q 776 497 776 429 q 745 678 776 599 q 654 804 714 758 q 514 850 594 850 q 316 758 399 850 q 204 508 233 667 q 192 379 192 442 q 222 196 192 278 q 312 67 253 114 q 453 19 371 19 m 571 925 q 478 960 513 925 q 444 1049 444 994 q 469 1064 444 1057 q 514 1071 493 1071 q 529 1067 529 1071 q 556 1006 532 1028 q 617 983 579 983 q 715 1061 678 983 q 724 1065 718 1065 q 734 1063 729 1065 q 738 1057 739 1060 q 666 959 708 993 q 571 925 624 925 z "},"Ǒ":{"ha":906,"x_min":83,"x_max":886,"o":"m 393 -17 q 226 28 296 -17 q 119 153 156 74 q 83 333 83 232 q 92 435 83 383 q 184 666 114 564 q 355 826 254 768 q 569 883 456 883 q 740 838 668 883 q 849 715 811 793 q 886 536 886 636 q 876 435 886 483 q 780 199 853 303 q 605 40 707 96 q 393 -17 503 -17 m 453 19 q 649 110 567 19 q 763 361 732 200 q 776 497 776 429 q 745 678 776 599 q 654 804 714 758 q 514 850 594 850 q 316 758 399 850 q 204 508 233 667 q 192 379 192 442 q 222 196 192 278 q 312 67 253 114 q 453 19 371 19 m 444 1082 l 444 1083 q 449 1090 444 1086 q 454 1092 453 1093 l 576 1019 l 721 1092 l 722 1092 q 730 1088 726 1092 q 729 1082 733 1083 l 576 938 q 563 932 571 932 q 551 938 556 932 l 444 1082 z "},"Ô":{"ha":906,"x_min":83,"x_max":886,"o":"m 393 -17 q 226 28 296 -17 q 119 153 156 74 q 83 333 83 232 q 92 435 83 383 q 184 666 114 564 q 355 826 254 768 q 569 883 456 883 q 740 838 668 883 q 849 715 811 793 q 886 536 886 636 q 876 435 886 483 q 780 199 853 303 q 605 40 707 96 q 393 -17 503 -17 m 453 19 q 649 110 567 19 q 763 361 732 200 q 776 497 776 429 q 745 678 776 599 q 654 804 714 758 q 514 850 594 850 q 316 758 399 850 q 204 508 233 667 q 192 379 192 442 q 222 196 192 278 q 312 67 253 114 q 453 19 371 19 m 431 917 q 424 920 426 917 q 424 926 421 924 l 576 1069 q 589 1076 581 1076 q 601 1069 597 1076 l 708 926 l 710 924 q 706 918 710 921 q 699 917 701 915 l 576 988 l 432 917 l 431 917 z "},"Ố":{"ha":906,"x_min":83,"x_max":890,"o":"m 393 -17 q 226 28 296 -17 q 119 153 156 74 q 83 333 83 232 q 92 435 83 383 q 184 666 114 564 q 355 826 254 768 q 569 883 456 883 q 740 838 668 883 q 849 715 811 793 q 886 536 886 636 q 876 435 886 483 q 780 199 853 303 q 605 40 707 96 q 393 -17 503 -17 m 453 19 q 649 110 567 19 q 763 361 732 200 q 776 497 776 429 q 745 678 776 599 q 654 804 714 758 q 514 850 594 850 q 316 758 399 850 q 204 508 233 667 q 192 379 192 442 q 222 196 192 278 q 312 67 253 114 q 453 19 371 19 m 431 917 q 424 920 426 917 q 424 926 421 924 l 576 1069 q 589 1076 581 1076 q 601 1069 597 1076 l 708 926 l 710 924 q 706 918 710 921 q 699 917 701 915 l 576 988 l 432 917 l 431 917 m 669 999 q 664 1004 665 999 q 665 1013 663 1010 q 788 1151 736 1083 q 822 1147 792 1157 q 876 1124 853 1138 q 886 1107 899 1111 q 779 1061 828 1086 q 674 1000 731 1036 l 669 999 z "},"Ộ":{"ha":906,"x_min":83,"x_max":886,"o":"m 393 -17 q 226 28 296 -17 q 119 153 156 74 q 83 333 83 232 q 92 435 83 383 q 184 666 114 564 q 355 826 254 768 q 569 883 456 883 q 740 838 668 883 q 849 715 811 793 q 886 536 886 636 q 876 435 886 483 q 780 199 853 303 q 605 40 707 96 q 393 -17 503 -17 m 453 19 q 649 110 567 19 q 763 361 732 200 q 776 497 776 429 q 745 678 776 599 q 654 804 714 758 q 514 850 594 850 q 316 758 399 850 q 204 508 233 667 q 192 379 192 442 q 222 196 192 278 q 312 67 253 114 q 453 19 371 19 m 399 -268 q 351 -251 368 -268 q 333 -203 333 -233 q 351 -157 333 -174 q 399 -140 368 -140 q 447 -157 429 -140 q 464 -203 464 -174 q 447 -251 464 -235 q 399 -268 429 -268 m 431 917 q 424 920 426 917 q 424 926 421 924 l 576 1069 q 589 1076 581 1076 q 601 1069 597 1076 l 708 926 l 710 924 q 706 918 710 921 q 699 917 701 915 l 576 988 l 432 917 l 431 917 z "},"Ồ":{"ha":906,"x_min":83,"x_max":886,"o":"m 393 -17 q 226 28 296 -17 q 119 153 156 74 q 83 333 83 232 q 92 435 83 383 q 184 666 114 564 q 355 826 254 768 q 569 883 456 883 q 740 838 668 883 q 849 715 811 793 q 886 536 886 636 q 876 435 886 483 q 780 199 853 303 q 605 40 707 96 q 393 -17 503 -17 m 453 19 q 649 110 567 19 q 763 361 732 200 q 776 497 776 429 q 745 678 776 599 q 654 804 714 758 q 514 850 594 850 q 316 758 399 850 q 204 508 233 667 q 192 379 192 442 q 222 196 192 278 q 312 67 253 114 q 453 19 371 19 m 428 917 q 421 920 424 917 q 421 926 418 924 l 574 1069 q 586 1076 578 1076 q 599 1069 594 1076 l 706 926 l 707 924 q 703 918 707 921 q 696 917 699 915 l 574 988 l 429 917 l 428 917 m 786 983 q 614 1090 700 1053 q 630 1108 603 1094 q 691 1131 657 1121 q 728 1135 725 1140 q 800 997 754 1067 l 800 994 q 796 985 800 989 q 786 983 792 981 z "},"Ổ":{"ha":906,"x_min":83,"x_max":886,"o":"m 393 -17 q 226 28 296 -17 q 119 153 156 74 q 83 333 83 232 q 92 435 83 383 q 184 666 114 564 q 355 826 254 768 q 569 883 456 883 q 740 838 668 883 q 849 715 811 793 q 886 536 886 636 q 876 435 886 483 q 780 199 853 303 q 605 40 707 96 q 393 -17 503 -17 m 453 19 q 649 110 567 19 q 763 361 732 200 q 776 497 776 429 q 745 678 776 599 q 654 804 714 758 q 514 850 594 850 q 316 758 399 850 q 204 508 233 667 q 192 379 192 442 q 222 196 192 278 q 312 67 253 114 q 453 19 371 19 m 429 917 q 422 920 425 917 q 422 926 419 924 l 575 1069 q 588 1076 579 1076 q 600 1069 596 1076 l 707 926 l 708 924 q 704 918 708 921 q 697 917 700 915 l 575 988 l 431 917 l 429 917 m 676 989 q 681 1022 674 1007 q 704 1058 689 1036 q 725 1092 718 1078 q 732 1121 732 1106 q 719 1147 732 1138 q 692 1156 707 1156 q 661 1149 675 1156 l 660 1149 q 653 1153 656 1149 q 654 1160 650 1158 q 743 1186 701 1186 q 787 1172 771 1186 q 803 1138 803 1157 q 788 1096 803 1114 q 742 1053 772 1078 q 704 1019 717 1033 q 692 989 692 1004 q 684 986 692 986 q 676 989 676 986 z "},"Ỗ":{"ha":906,"x_min":83,"x_max":886,"o":"m 393 -17 q 226 28 296 -17 q 119 153 156 74 q 83 333 83 232 q 92 435 83 383 q 184 666 114 564 q 355 826 254 768 q 569 883 456 883 q 740 838 668 883 q 849 715 811 793 q 886 536 886 636 q 876 435 886 483 q 780 199 853 303 q 605 40 707 96 q 393 -17 503 -17 m 453 19 q 649 110 567 19 q 763 361 732 200 q 776 497 776 429 q 745 678 776 599 q 654 804 714 758 q 514 850 594 850 q 316 758 399 850 q 204 508 233 667 q 192 379 192 442 q 222 196 192 278 q 312 67 253 114 q 453 19 371 19 m 421 917 q 414 920 417 917 q 414 926 411 924 l 567 1069 q 579 1076 571 1076 q 592 1069 588 1076 l 699 926 l 700 924 q 696 918 700 921 q 689 917 692 915 l 567 988 l 422 917 l 421 917 m 419 1088 q 413 1091 415 1088 q 413 1097 410 1094 q 538 1190 478 1190 q 607 1176 557 1190 q 710 1157 671 1157 q 752 1166 736 1157 q 786 1194 768 1175 l 788 1194 q 795 1191 792 1194 q 796 1185 799 1188 q 733 1110 757 1129 q 678 1090 708 1090 q 594 1107 650 1090 q 559 1117 589 1108 q 499 1125 529 1125 q 460 1118 474 1125 q 436 1101 446 1111 q 422 1088 426 1092 l 419 1088 z "},"Ö":{"ha":906,"x_min":83,"x_max":886,"o":"m 393 -17 q 226 28 296 -17 q 119 153 156 74 q 83 333 83 232 q 92 435 83 383 q 184 666 114 564 q 355 826 254 768 q 569 883 456 883 q 740 838 668 883 q 849 715 811 793 q 886 536 886 636 q 876 435 886 483 q 780 199 853 303 q 605 40 707 96 q 393 -17 503 -17 m 453 19 q 649 110 567 19 q 763 361 732 200 q 776 497 776 429 q 745 678 776 599 q 654 804 714 758 q 514 850 594 850 q 316 758 399 850 q 204 508 233 667 q 192 379 192 442 q 222 196 192 278 q 312 67 253 114 q 453 19 371 19 m 481 989 q 433 1006 450 989 q 417 1053 417 1022 q 433 1098 417 1082 q 481 1114 450 1114 q 526 1098 510 1114 q 542 1053 542 1082 q 526 1006 542 1022 q 481 989 510 989 m 693 989 q 646 1006 663 989 q 629 1053 629 1022 q 646 1098 629 1082 q 693 1114 663 1114 q 739 1098 722 1114 q 756 1053 756 1082 q 739 1006 756 1022 q 693 989 722 989 z "},"Ọ":{"ha":906,"x_min":83,"x_max":886,"o":"m 393 -17 q 226 28 296 -17 q 119 153 156 74 q 83 333 83 232 q 92 435 83 383 q 184 666 114 564 q 355 826 254 768 q 569 883 456 883 q 740 838 668 883 q 849 715 811 793 q 886 536 886 636 q 876 435 886 483 q 780 199 853 303 q 605 40 707 96 q 393 -17 503 -17 m 453 19 q 649 110 567 19 q 763 361 732 200 q 776 497 776 429 q 745 678 776 599 q 654 804 714 758 q 514 850 594 850 q 316 758 399 850 q 204 508 233 667 q 192 379 192 442 q 222 196 192 278 q 312 67 253 114 q 453 19 371 19 m 399 -268 q 351 -251 368 -268 q 333 -203 333 -233 q 351 -157 333 -174 q 399 -140 368 -140 q 447 -157 429 -140 q 464 -203 464 -174 q 447 -251 464 -235 q 399 -268 429 -268 z "},"Ò":{"ha":906,"x_min":83,"x_max":886,"o":"m 393 -17 q 226 28 296 -17 q 119 153 156 74 q 83 333 83 232 q 92 435 83 383 q 184 666 114 564 q 355 826 254 768 q 569 883 456 883 q 740 838 668 883 q 849 715 811 793 q 886 536 886 636 q 876 435 886 483 q 780 199 853 303 q 605 40 707 96 q 393 -17 503 -17 m 453 19 q 649 110 567 19 q 763 361 732 200 q 776 497 776 429 q 745 678 776 599 q 654 804 714 758 q 514 850 594 850 q 316 758 399 850 q 204 508 233 667 q 192 379 192 442 q 222 196 192 278 q 312 67 253 114 q 453 19 371 19 m 682 951 q 552 1006 611 983 q 419 1050 493 1028 q 433 1065 406 1053 q 497 1088 460 1078 q 539 1093 533 1097 q 692 964 599 1039 q 694 960 694 964 q 690 953 694 956 q 682 951 686 950 z "},"Ỏ":{"ha":906,"x_min":83,"x_max":886,"o":"m 393 -17 q 226 28 296 -17 q 119 153 156 74 q 83 333 83 232 q 92 435 83 383 q 184 666 114 564 q 355 826 254 768 q 569 883 456 883 q 740 838 668 883 q 849 715 811 793 q 886 536 886 636 q 876 435 886 483 q 780 199 853 303 q 605 40 707 96 q 393 -17 503 -17 m 453 19 q 649 110 567 19 q 763 361 732 200 q 776 497 776 429 q 745 678 776 599 q 654 804 714 758 q 514 850 594 850 q 316 758 399 850 q 204 508 233 667 q 192 379 192 442 q 222 196 192 278 q 312 67 253 114 q 453 19 371 19 m 567 904 q 560 901 568 901 q 550 904 551 900 q 549 924 549 911 q 557 967 549 949 q 583 1017 565 986 q 606 1059 599 1043 q 614 1094 614 1075 q 601 1128 614 1117 q 568 1140 589 1140 q 525 1129 547 1140 l 522 1129 q 515 1133 518 1129 q 517 1142 513 1138 q 617 1172 564 1172 q 681 1152 658 1172 q 701 1100 704 1132 q 681 1051 699 1074 q 631 1000 663 1028 q 581 948 596 968 q 567 904 565 928 z "},"Ơ":{"ha":906,"x_min":83,"x_max":1021,"o":"m 969 981 q 1009 961 997 981 q 1017 915 1021 942 q 956 820 1007 860 q 829 750 906 781 q 886 535 886 661 q 876 435 886 483 q 780 199 853 303 q 605 40 707 96 q 393 -17 503 -17 q 226 28 296 -17 q 119 153 156 74 q 83 333 83 232 q 92 435 83 383 q 184 666 114 564 q 355 826 254 768 q 569 883 456 883 q 714 853 651 883 q 818 767 776 822 q 914 850 906 806 q 913 867 915 860 q 906 879 910 874 q 900 889 904 881 q 896 910 896 897 q 897 922 896 918 q 924 965 903 950 q 969 981 946 981 m 763 361 q 776 497 776 429 q 745 678 776 599 q 654 804 714 758 q 514 850 594 850 q 316 758 399 850 q 204 508 233 667 q 192 379 192 442 q 222 196 192 278 q 312 67 253 114 q 453 19 371 19 q 649 110 567 19 q 763 361 732 200 z "},"Ớ":{"ha":906,"x_min":83,"x_max":1018,"o":"m 969 981 q 1009 961 997 981 q 1017 915 1021 942 q 956 820 1007 860 q 829 750 906 781 q 886 535 886 661 q 876 435 886 483 q 780 199 853 303 q 605 40 707 96 q 393 -17 503 -17 q 226 28 296 -17 q 119 153 156 74 q 83 333 83 232 q 92 435 83 383 q 184 666 114 564 q 355 826 254 768 q 569 883 456 883 q 714 853 651 883 q 818 767 776 822 q 914 850 906 806 q 913 867 915 860 q 906 879 910 874 q 900 889 904 881 q 896 910 896 897 q 897 922 896 918 q 924 965 903 950 q 969 981 946 981 m 763 361 q 776 497 776 429 q 745 678 776 599 q 654 804 714 758 q 514 850 594 850 q 316 758 399 850 q 204 508 233 667 q 192 379 192 442 q 222 196 192 278 q 312 67 253 114 q 453 19 371 19 q 649 110 567 19 q 763 361 732 200 m 439 942 q 431 948 433 942 q 433 957 429 954 q 569 1043 497 992 q 643 1092 635 1086 q 681 1086 650 1096 q 737 1064 713 1076 q 749 1050 761 1051 q 440 942 585 1008 l 439 942 z "},"Ợ":{"ha":906,"x_min":83,"x_max":1018,"o":"m 969 981 q 1009 961 997 981 q 1017 915 1021 942 q 956 820 1007 860 q 829 750 906 781 q 886 535 886 661 q 876 435 886 483 q 780 199 853 303 q 605 40 707 96 q 393 -17 503 -17 q 226 28 296 -17 q 119 153 156 74 q 83 333 83 232 q 92 435 83 383 q 184 666 114 564 q 355 826 254 768 q 569 883 456 883 q 714 853 651 883 q 818 767 776 822 q 914 850 906 806 q 913 867 915 860 q 906 879 910 874 q 900 889 904 881 q 896 910 896 897 q 897 922 896 918 q 924 965 903 950 q 969 981 946 981 m 763 361 q 776 497 776 429 q 745 678 776 599 q 654 804 714 758 q 514 850 594 850 q 316 758 399 850 q 204 508 233 667 q 192 379 192 442 q 222 196 192 278 q 312 67 253 114 q 453 19 371 19 q 649 110 567 19 q 763 361 732 200 m 376 -268 q 328 -251 346 -268 q 311 -203 311 -233 q 328 -157 311 -174 q 376 -140 346 -140 q 424 -157 407 -140 q 442 -203 442 -174 q 424 -251 442 -235 q 376 -268 407 -268 z "},"Ờ":{"ha":906,"x_min":83,"x_max":1018,"o":"m 969 981 q 1009 961 997 981 q 1017 915 1021 942 q 956 820 1007 860 q 829 750 906 781 q 886 535 886 661 q 876 435 886 483 q 780 199 853 303 q 605 40 707 96 q 393 -17 503 -17 q 226 28 296 -17 q 119 153 156 74 q 83 333 83 232 q 92 435 83 383 q 184 666 114 564 q 355 826 254 768 q 569 883 456 883 q 714 853 651 883 q 818 767 776 822 q 914 850 906 806 q 913 867 915 860 q 906 879 910 874 q 900 889 904 881 q 896 910 896 897 q 897 922 896 918 q 924 965 903 950 q 969 981 946 981 m 763 361 q 776 497 776 429 q 745 678 776 599 q 654 804 714 758 q 514 850 594 850 q 316 758 399 850 q 204 508 233 667 q 192 379 192 442 q 222 196 192 278 q 312 67 253 114 q 453 19 371 19 q 649 110 567 19 q 763 361 732 200 m 713 943 q 404 1050 557 1013 q 415 1065 392 1053 q 472 1088 439 1078 q 510 1093 504 1097 q 581 1046 557 1063 q 718 957 672 983 q 722 951 722 956 q 719 944 722 947 q 713 943 717 942 z "},"Ở":{"ha":906,"x_min":83,"x_max":1018,"o":"m 969 981 q 1009 961 997 981 q 1017 915 1021 942 q 956 820 1007 860 q 829 750 906 781 q 886 535 886 661 q 876 435 886 483 q 780 199 853 303 q 605 40 707 96 q 393 -17 503 -17 q 226 28 296 -17 q 119 153 156 74 q 83 333 83 232 q 92 435 83 383 q 184 666 114 564 q 355 826 254 768 q 569 883 456 883 q 714 853 651 883 q 818 767 776 822 q 914 850 906 806 q 913 867 915 860 q 906 879 910 874 q 900 889 904 881 q 896 910 896 897 q 897 922 896 918 q 924 965 903 950 q 969 981 946 981 m 763 361 q 776 497 776 429 q 745 678 776 599 q 654 804 714 758 q 514 850 594 850 q 316 758 399 850 q 204 508 233 667 q 192 379 192 442 q 222 196 192 278 q 312 67 253 114 q 453 19 371 19 q 649 110 567 19 q 763 361 732 200 m 588 904 q 581 901 589 901 q 571 904 572 900 q 569 924 569 911 q 578 967 569 949 q 604 1017 586 986 q 627 1059 619 1043 q 635 1094 635 1075 q 622 1128 635 1117 q 589 1140 610 1140 q 546 1129 568 1140 l 543 1129 q 536 1133 539 1129 q 538 1142 533 1138 q 638 1172 585 1172 q 702 1152 679 1172 q 722 1100 725 1132 q 701 1051 719 1074 q 651 1000 683 1028 q 601 948 617 968 q 588 904 586 928 z "},"Ỡ":{"ha":906,"x_min":83,"x_max":1018,"o":"m 969 981 q 1009 961 997 981 q 1017 915 1021 942 q 956 820 1007 860 q 829 750 906 781 q 886 535 886 661 q 876 435 886 483 q 780 199 853 303 q 605 40 707 96 q 393 -17 503 -17 q 226 28 296 -17 q 119 153 156 74 q 83 333 83 232 q 92 435 83 383 q 184 666 114 564 q 355 826 254 768 q 569 883 456 883 q 714 853 651 883 q 818 767 776 822 q 914 850 906 806 q 913 867 915 860 q 906 879 910 874 q 900 889 904 881 q 896 910 896 897 q 897 922 896 918 q 924 965 903 950 q 969 981 946 981 m 763 361 q 776 497 776 429 q 745 678 776 599 q 654 804 714 758 q 514 850 594 850 q 316 758 399 850 q 204 508 233 667 q 192 379 192 442 q 222 196 192 278 q 312 67 253 114 q 453 19 371 19 q 649 110 567 19 q 763 361 732 200 m 421 994 q 414 998 417 994 q 414 1004 411 1001 q 539 1097 479 1097 q 608 1083 558 1097 q 711 1064 672 1064 q 753 1073 738 1064 q 788 1101 769 1082 l 789 1101 q 797 1098 793 1101 q 797 1092 800 1094 q 734 1017 758 1036 q 679 997 710 997 q 596 1014 651 997 q 560 1024 590 1015 q 500 1032 531 1032 q 461 1025 475 1032 q 438 1008 447 1018 q 424 994 428 999 l 421 994 z "},"Ő":{"ha":906,"x_min":83,"x_max":886,"o":"m 393 -17 q 226 28 296 -17 q 119 153 156 74 q 83 333 83 232 q 92 435 83 383 q 184 666 114 564 q 355 826 254 768 q 569 883 456 883 q 740 838 668 883 q 849 715 811 793 q 886 536 886 636 q 876 435 886 483 q 780 199 853 303 q 605 40 707 96 q 393 -17 503 -17 m 453 19 q 649 110 567 19 q 763 361 732 200 q 776 497 776 429 q 745 678 776 599 q 654 804 714 758 q 514 850 594 850 q 316 758 399 850 q 204 508 233 667 q 192 379 192 442 q 222 196 192 278 q 312 67 253 114 q 453 19 371 19 m 415 925 q 410 931 411 925 q 411 940 408 938 l 463 993 q 563 1100 528 1061 q 574 1103 565 1103 q 637 1088 599 1103 q 661 1065 675 1074 q 524 995 579 1026 q 418 926 469 964 l 415 925 m 593 925 q 588 931 589 925 q 589 940 586 938 l 650 1004 q 739 1100 710 1065 q 774 1099 743 1106 q 827 1082 804 1093 q 839 1065 850 1071 q 596 926 697 1001 l 593 925 z "},"Ō":{"ha":906,"x_min":83,"x_max":886,"o":"m 393 -17 q 226 28 296 -17 q 119 153 156 74 q 83 333 83 232 q 92 435 83 383 q 184 666 114 564 q 355 826 254 768 q 569 883 456 883 q 740 838 668 883 q 849 715 811 793 q 886 536 886 636 q 876 435 886 483 q 780 199 853 303 q 605 40 707 96 q 393 -17 503 -17 m 453 19 q 649 110 567 19 q 763 361 732 200 q 776 497 776 429 q 745 678 776 599 q 654 804 714 758 q 514 850 594 850 q 316 758 399 850 q 204 508 233 667 q 192 379 192 442 q 222 196 192 278 q 312 67 253 114 q 453 19 371 19 m 425 994 q 415 1017 415 994 q 425 1039 415 1039 l 750 1039 q 758 1032 756 1039 q 761 1017 761 1025 q 758 1001 761 1008 q 750 994 756 994 l 425 994 z "},"Ǫ":{"ha":906,"x_min":83,"x_max":886,"o":"m 569 883 q 740 838 668 883 q 849 715 811 793 q 886 536 886 636 q 876 435 886 483 q 750 160 849 275 q 519 3 651 44 q 422 -120 457 -61 q 388 -240 388 -179 q 409 -309 388 -283 q 469 -335 431 -335 q 508 -326 492 -335 q 546 -301 525 -318 l 547 -300 q 555 -306 551 -300 q 556 -314 558 -311 q 483 -366 517 -350 q 413 -382 449 -382 q 331 -352 360 -382 q 301 -274 301 -322 q 349 -147 301 -211 q 483 -7 396 -82 q 393 -17 440 -17 q 226 28 296 -17 q 119 153 156 74 q 83 333 83 232 q 92 435 83 383 q 184 666 114 564 q 355 826 254 768 q 569 883 456 883 m 763 361 q 776 497 776 429 q 745 678 776 599 q 654 804 714 758 q 514 850 594 850 q 316 758 399 850 q 204 508 233 667 q 192 379 192 442 q 222 196 192 278 q 312 67 253 114 q 453 19 371 19 q 649 110 567 19 q 763 361 732 200 z "},"Ø":{"ha":906,"x_min":39,"x_max":928,"o":"m 903 879 q 918 870 908 879 q 924 857 928 861 l 825 757 q 886 536 886 667 q 876 435 886 496 q 780 199 853 303 q 605 40 707 96 q 393 -17 503 -17 q 261 9 319 -17 q 163 83 203 35 l 67 -14 l 64 -15 q 48 -5 57 -15 q 43 10 39 6 l 143 111 q 83 335 83 203 q 92 435 83 383 q 184 666 114 564 q 355 826 254 768 q 569 883 456 883 q 806 782 719 883 l 900 878 l 903 879 m 204 508 q 193 379 193 449 q 224 193 193 272 l 732 707 q 643 813 699 775 q 514 850 588 850 q 316 758 399 850 q 204 508 233 667 m 763 361 q 776 496 776 426 q 746 676 776 593 l 238 160 q 326 57 271 94 q 453 19 381 19 q 649 110 567 19 q 763 361 732 200 z "},"Ǿ":{"ha":906,"x_min":42,"x_max":925,"o":"m 903 879 q 918 870 908 879 q 924 857 928 861 l 825 757 q 886 536 886 667 q 876 435 886 496 q 780 199 853 303 q 605 40 707 96 q 393 -17 503 -17 q 261 9 319 -17 q 163 83 203 35 l 67 -14 l 64 -15 q 48 -5 57 -15 q 43 10 39 6 l 143 111 q 83 335 83 203 q 92 435 83 383 q 184 666 114 564 q 355 826 254 768 q 569 883 456 883 q 806 782 719 883 l 900 878 l 903 879 m 204 508 q 193 379 193 449 q 224 193 193 272 l 732 707 q 643 813 699 775 q 514 850 588 850 q 316 758 399 850 q 204 508 233 667 m 763 361 q 776 496 776 426 q 746 676 776 593 l 238 160 q 326 57 271 94 q 453 19 381 19 q 649 110 567 19 q 763 361 732 200 m 468 942 q 461 948 463 942 q 464 957 460 954 q 555 1013 510 982 q 613 1051 600 1043 l 672 1093 q 711 1088 679 1097 q 767 1065 743 1078 q 779 1050 792 1053 q 622 1003 693 1029 q 471 943 550 978 l 468 942 z "},"Õ":{"ha":906,"x_min":83,"x_max":886,"o":"m 393 -17 q 226 28 296 -17 q 119 153 156 74 q 83 333 83 232 q 92 435 83 383 q 184 666 114 564 q 355 826 254 768 q 569 883 456 883 q 740 838 668 883 q 849 715 811 793 q 886 536 886 636 q 876 435 886 483 q 780 199 853 303 q 605 40 707 96 q 393 -17 503 -17 m 453 19 q 649 110 567 19 q 763 361 732 200 q 776 497 776 429 q 745 678 776 599 q 654 804 714 758 q 514 850 594 850 q 316 758 399 850 q 204 508 233 667 q 192 379 192 442 q 222 196 192 278 q 312 67 253 114 q 453 19 371 19 m 404 961 q 397 965 400 961 q 396 971 393 968 q 453 1036 421 1007 q 522 1065 486 1065 q 593 1050 544 1065 q 693 1031 654 1031 q 736 1040 719 1031 q 771 1068 753 1049 l 774 1068 q 781 1065 778 1068 q 781 1058 783 1061 q 717 984 742 1003 q 663 965 693 965 q 612 972 639 965 q 579 981 585 979 q 483 999 522 999 q 443 992 457 999 q 419 975 429 985 q 406 961 410 965 l 404 961 z "},"Œ":{"ha":1121,"x_min":82,"x_max":1133,"o":"m 1122 868 q 1131 856 1133 868 l 1103 679 q 1093 675 1101 674 q 1086 681 1085 676 q 1060 801 1089 757 q 971 844 1032 844 l 913 844 q 849 838 869 844 q 818 813 828 831 q 800 754 808 794 l 750 468 l 896 468 q 983 491 954 468 q 1021 568 1011 514 q 1029 572 1021 572 q 1035 570 1032 572 q 1038 565 1039 568 q 1030 523 1033 540 q 1025 493 1026 506 l 1017 451 l 996 318 q 986 313 994 313 q 979 319 978 314 q 982 356 982 332 q 958 417 982 397 q 886 436 935 436 l 744 436 l 689 118 q 683 74 683 82 q 701 35 683 44 q 768 25 719 25 l 851 25 q 958 74 911 25 q 1043 211 1004 122 q 1052 214 1044 215 q 1058 208 1060 213 q 1015 21 1033 135 q 1008 4 1013 8 q 992 0 1003 0 l 626 0 q 531 -3 594 0 q 454 -6 475 -6 q 256 39 340 -6 q 127 163 172 83 q 82 343 82 242 q 89 424 82 378 q 188 658 113 557 q 371 815 264 760 q 592 871 478 871 q 672 869 642 871 l 771 868 l 1122 868 m 696 738 q 701 782 701 771 q 678 832 701 817 q 601 847 656 847 q 424 802 506 847 q 287 668 343 757 q 210 454 231 579 q 200 342 200 400 q 265 106 200 196 q 444 17 331 17 q 522 23 494 17 q 565 50 549 29 q 588 114 581 71 l 696 738 z "},"P":{"ha":711,"x_min":15,"x_max":724,"o":"m 18 0 q 15 8 15 0 q 18 17 15 17 q 83 24 61 17 q 115 51 104 31 q 133 113 125 71 l 246 756 q 251 801 251 779 q 233 841 251 831 q 168 851 215 851 q 164 860 164 851 q 168 868 164 868 l 226 867 q 310 864 276 864 l 376 867 q 479 872 440 872 q 656 824 588 872 q 724 681 724 775 q 718 629 724 665 q 645 482 701 542 q 516 393 589 422 q 375 364 443 364 q 318 371 340 364 q 317 375 317 371 q 319 388 317 381 q 325 393 322 394 q 367 388 343 388 q 517 442 449 388 q 604 601 586 497 q 610 661 610 629 q 564 799 610 749 q 451 849 518 849 q 391 842 410 849 q 362 817 372 836 q 343 753 351 797 l 231 113 q 225 67 225 76 q 243 27 225 38 q 310 17 261 17 q 313 8 313 17 q 310 0 313 0 q 250 1 272 0 l 161 3 l 78 1 q 18 0 56 0 z "},"Þ":{"ha":747,"x_min":15,"x_max":733,"o":"m 446 693 q 653 641 574 693 q 733 490 733 589 q 726 433 733 465 q 647 290 708 349 q 506 204 586 232 q 350 176 425 176 q 293 182 317 176 q 292 186 292 182 q 294 199 292 192 q 300 204 297 206 q 342 200 321 200 q 512 251 433 200 q 611 406 590 303 q 618 467 618 440 q 560 615 618 558 q 407 671 503 671 q 328 665 372 671 l 231 113 q 225 68 225 76 q 249 26 225 36 q 342 17 272 17 q 344 8 344 17 q 342 0 344 0 q 269 1 296 0 l 161 3 l 78 1 q 18 0 56 0 q 15 8 15 0 q 18 17 15 17 q 83 24 61 17 q 115 51 104 31 q 133 113 125 71 l 246 756 q 251 801 251 779 q 233 841 251 831 q 168 851 215 851 q 164 860 164 851 q 168 868 164 868 l 226 867 q 310 864 276 864 q 422 867 356 864 l 492 868 q 494 860 494 868 q 492 851 494 851 q 402 845 429 851 q 363 819 375 839 q 343 753 351 800 l 332 686 q 446 693 379 693 z "},"Q":{"ha":906,"x_min":83,"x_max":961,"o":"m 953 -240 q 959 -247 957 -239 q 958 -256 961 -254 q 847 -274 893 -274 q 667 -202 758 -274 q 510 0 575 -131 q 393 -17 454 -17 q 226 28 296 -17 q 119 153 156 74 q 83 333 83 232 q 92 435 83 383 q 184 666 114 564 q 355 826 254 768 q 569 883 456 883 q 740 838 668 883 q 849 715 811 793 q 886 536 886 636 q 876 435 886 483 q 783 203 853 304 q 613 43 713 101 q 697 -105 646 -39 q 805 -208 749 -171 q 906 -246 861 -246 q 953 -240 936 -246 m 204 508 q 192 379 192 442 q 222 196 192 278 q 312 67 253 114 q 453 19 371 19 q 649 110 567 19 q 763 361 732 200 q 776 497 776 429 q 745 678 776 599 q 654 804 714 758 q 514 850 594 850 q 316 758 399 850 q 204 508 233 667 z "},"R":{"ha":861,"x_min":17,"x_max":832,"o":"m 826 17 q 832 8 832 17 q 826 0 832 0 l 658 0 q 563 117 625 0 q 424 451 500 235 q 339 440 379 440 q 304 443 324 440 l 244 113 q 239 67 239 86 q 258 27 239 38 q 326 17 276 17 q 332 8 332 17 q 328 0 332 0 q 264 1 288 0 l 176 3 l 88 1 q 22 0 64 0 q 17 8 17 0 q 22 17 17 17 q 92 24 68 17 q 127 51 115 32 q 147 113 139 71 l 260 756 q 265 801 265 779 q 247 841 265 831 q 176 851 228 851 q 171 860 171 851 q 176 868 171 868 l 240 867 q 326 864 293 864 q 370 865 350 864 q 406 868 390 867 q 475 872 444 872 q 624 837 572 872 q 675 738 675 801 q 627 594 675 663 q 503 485 579 526 q 630 206 576 306 q 730 61 683 106 q 826 17 776 17 m 310 479 q 367 474 346 474 q 499 515 454 474 q 560 651 544 557 q 565 717 565 683 q 535 817 565 785 q 451 849 504 849 q 401 844 417 849 q 376 819 386 839 q 358 753 367 800 l 310 479 z "},"Ŕ":{"ha":861,"x_min":17,"x_max":832,"o":"m 826 17 q 832 8 832 17 q 826 0 832 0 l 658 0 q 563 117 625 0 q 424 451 500 235 q 339 440 379 440 q 304 443 324 440 l 244 113 q 239 67 239 86 q 258 27 239 38 q 326 17 276 17 q 332 8 332 17 q 328 0 332 0 q 264 1 288 0 l 176 3 l 88 1 q 22 0 64 0 q 17 8 17 0 q 22 17 17 17 q 92 24 68 17 q 127 51 115 32 q 147 113 139 71 l 260 756 q 265 801 265 779 q 247 841 265 831 q 176 851 228 851 q 171 860 171 851 q 176 868 171 868 l 240 867 q 326 864 293 864 q 370 865 350 864 q 406 868 390 867 q 475 872 444 872 q 624 837 572 872 q 675 738 675 801 q 627 594 675 663 q 503 485 579 526 q 630 206 576 306 q 730 61 683 106 q 826 17 776 17 m 310 479 q 367 474 346 474 q 499 515 454 474 q 560 651 544 557 q 565 717 565 683 q 535 817 565 785 q 451 849 504 849 q 401 844 417 849 q 376 819 386 839 q 358 753 367 800 l 310 479 m 381 942 q 374 948 375 942 q 376 957 372 954 q 467 1013 422 982 q 525 1051 513 1043 l 585 1093 q 624 1088 592 1097 q 680 1065 656 1078 q 692 1050 704 1053 q 534 1003 606 1029 q 383 943 463 978 l 381 942 z "},"Ř":{"ha":861,"x_min":17,"x_max":832,"o":"m 826 17 q 832 8 832 17 q 826 0 832 0 l 658 0 q 563 117 625 0 q 424 451 500 235 q 339 440 379 440 q 304 443 324 440 l 244 113 q 239 67 239 86 q 258 27 239 38 q 326 17 276 17 q 332 8 332 17 q 328 0 332 0 q 264 1 288 0 l 176 3 l 88 1 q 22 0 64 0 q 17 8 17 0 q 22 17 17 17 q 92 24 68 17 q 127 51 115 32 q 147 113 139 71 l 260 756 q 265 801 265 779 q 247 841 265 831 q 176 851 228 851 q 171 860 171 851 q 176 868 171 868 l 240 867 q 326 864 293 864 q 370 865 350 864 q 406 868 390 867 q 475 872 444 872 q 624 837 572 872 q 675 738 675 801 q 627 594 675 663 q 503 485 579 526 q 630 206 576 306 q 730 61 683 106 q 826 17 776 17 m 310 479 q 367 474 346 474 q 499 515 454 474 q 560 651 544 557 q 565 717 565 683 q 535 817 565 785 q 451 849 504 849 q 401 844 417 849 q 376 819 386 839 q 358 753 367 800 l 310 479 m 343 1082 l 343 1083 q 347 1090 343 1086 q 353 1092 351 1093 l 475 1019 l 619 1092 l 621 1092 q 628 1088 625 1092 q 628 1082 632 1083 l 475 938 q 461 932 469 932 q 450 938 454 932 l 343 1082 z "},"Ŗ":{"ha":861,"x_min":17,"x_max":832,"o":"m 826 17 q 832 8 832 17 q 826 0 832 0 l 658 0 q 563 117 625 0 q 424 451 500 235 q 339 440 379 440 q 304 443 324 440 l 244 113 q 239 67 239 86 q 258 27 239 38 q 326 17 276 17 q 332 8 332 17 q 328 0 332 0 q 264 1 288 0 l 176 3 l 88 1 q 22 0 64 0 q 17 8 17 0 q 22 17 17 17 q 92 24 68 17 q 127 51 115 32 q 147 113 139 71 l 260 756 q 265 801 265 779 q 247 841 265 831 q 176 851 228 851 q 171 860 171 851 q 176 868 171 868 l 240 867 q 326 864 293 864 q 370 865 350 864 q 406 868 390 867 q 475 872 444 872 q 624 837 572 872 q 675 738 675 801 q 627 594 675 663 q 503 485 579 526 q 630 206 576 306 q 730 61 683 106 q 826 17 776 17 m 310 479 q 367 474 346 474 q 499 515 454 474 q 560 651 544 557 q 565 717 565 683 q 535 817 565 785 q 451 849 504 849 q 401 844 417 849 q 376 819 386 839 q 358 753 367 800 l 310 479 m 415 -111 q 472 -134 451 -111 q 492 -196 492 -157 q 371 -382 492 -303 l 368 -383 q 360 -377 363 -383 q 361 -368 357 -371 q 438 -265 429 -322 q 439 -243 439 -257 q 438 -226 439 -232 q 406 -236 428 -236 q 358 -215 374 -236 q 344 -167 342 -194 q 366 -126 347 -142 q 415 -111 385 -111 z "},"Ṛ":{"ha":861,"x_min":17,"x_max":832,"o":"m 826 17 q 832 8 832 17 q 826 0 832 0 l 658 0 q 563 117 625 0 q 424 451 500 235 q 339 440 379 440 q 304 443 324 440 l 244 113 q 239 67 239 86 q 258 27 239 38 q 326 17 276 17 q 332 8 332 17 q 328 0 332 0 q 264 1 288 0 l 176 3 l 88 1 q 22 0 64 0 q 17 8 17 0 q 22 17 17 17 q 92 24 68 17 q 127 51 115 32 q 147 113 139 71 l 260 756 q 265 801 265 779 q 247 841 265 831 q 176 851 228 851 q 171 860 171 851 q 176 868 171 868 l 240 867 q 326 864 293 864 q 370 865 350 864 q 406 868 390 867 q 475 872 444 872 q 624 837 572 872 q 675 738 675 801 q 627 594 675 663 q 503 485 579 526 q 630 206 576 306 q 730 61 683 106 q 826 17 776 17 m 310 479 q 367 474 346 474 q 499 515 454 474 q 560 651 544 557 q 565 717 565 683 q 535 817 565 785 q 451 849 504 849 q 401 844 417 849 q 376 819 386 839 q 358 753 367 800 l 310 479 m 414 -268 q 366 -251 383 -268 q 349 -203 349 -233 q 366 -157 349 -174 q 414 -140 383 -140 q 462 -157 444 -140 q 479 -203 479 -174 q 462 -251 479 -235 q 414 -268 444 -268 z "},"Ṝ":{"ha":861,"x_min":17,"x_max":832,"o":"m 826 17 q 832 8 832 17 q 826 0 832 0 l 658 0 q 563 117 625 0 q 424 451 500 235 q 339 440 379 440 q 304 443 324 440 l 244 113 q 239 67 239 86 q 258 27 239 38 q 326 17 276 17 q 332 8 332 17 q 328 0 332 0 q 264 1 288 0 l 176 3 l 88 1 q 22 0 64 0 q 17 8 17 0 q 22 17 17 17 q 92 24 68 17 q 127 51 115 32 q 147 113 139 71 l 260 756 q 265 801 265 779 q 247 841 265 831 q 176 851 228 851 q 171 860 171 851 q 176 868 171 868 l 240 867 q 326 864 293 864 q 370 865 350 864 q 406 868 390 867 q 475 872 444 872 q 624 837 572 872 q 675 738 675 801 q 627 594 675 663 q 503 485 579 526 q 630 206 576 306 q 730 61 683 106 q 826 17 776 17 m 310 479 q 367 474 346 474 q 499 515 454 474 q 560 651 544 557 q 565 717 565 683 q 535 817 565 785 q 451 849 504 849 q 401 844 417 849 q 376 819 386 839 q 358 753 367 800 l 310 479 m 414 -268 q 366 -251 383 -268 q 349 -203 349 -233 q 366 -157 349 -174 q 414 -140 383 -140 q 462 -157 444 -140 q 479 -203 479 -174 q 462 -251 479 -235 q 414 -268 444 -268 m 278 990 q 269 997 272 990 q 267 1011 267 1003 q 269 1026 267 1019 q 278 1032 272 1032 l 626 1032 q 636 1011 636 1032 q 626 990 636 990 l 278 990 z "},"Ṟ":{"ha":861,"x_min":17,"x_max":832,"o":"m 826 17 q 832 8 832 17 q 826 0 832 0 l 658 0 q 563 117 625 0 q 424 451 500 235 q 339 440 379 440 q 304 443 324 440 l 244 113 q 239 67 239 86 q 258 27 239 38 q 326 17 276 17 q 332 8 332 17 q 328 0 332 0 q 264 1 288 0 l 176 3 l 88 1 q 22 0 64 0 q 17 8 17 0 q 22 17 17 17 q 92 24 68 17 q 127 51 115 32 q 147 113 139 71 l 260 756 q 265 801 265 779 q 247 841 265 831 q 176 851 228 851 q 171 860 171 851 q 176 868 171 868 l 240 867 q 326 864 293 864 q 370 865 350 864 q 406 868 390 867 q 475 872 444 872 q 624 837 572 872 q 675 738 675 801 q 627 594 675 663 q 503 485 579 526 q 630 206 576 306 q 730 61 683 106 q 826 17 776 17 m 310 479 q 367 474 346 474 q 499 515 454 474 q 560 651 544 557 q 565 717 565 683 q 535 817 565 785 q 451 849 504 849 q 401 844 417 849 q 376 819 386 839 q 358 753 367 800 l 310 479 m 274 -165 q 265 -158 268 -165 q 263 -143 263 -151 q 265 -128 263 -135 q 274 -121 268 -121 l 599 -121 q 608 -143 608 -121 q 599 -165 608 -165 l 274 -165 z "},"S":{"ha":646,"x_min":56,"x_max":633,"o":"m 258 -17 q 163 -6 208 -17 q 67 31 117 4 q 58 57 56 38 l 86 244 q 94 251 86 251 q 103 244 101 251 q 160 74 113 138 q 293 10 207 10 q 407 49 358 10 q 468 165 456 88 q 472 204 472 186 q 433 317 472 271 q 319 417 393 364 q 238 481 268 454 q 188 543 208 507 q 167 626 167 579 q 171 668 167 647 q 274 827 190 771 q 461 883 358 883 q 615 850 538 883 q 632 826 633 840 l 613 664 q 605 658 613 658 q 597 664 597 658 q 547 806 586 751 q 433 860 508 860 q 342 831 378 860 q 288 761 306 803 q 271 679 271 719 q 291 603 271 636 q 339 545 311 569 q 419 483 367 521 q 542 378 500 426 q 583 258 583 329 q 581 219 583 233 q 478 50 563 117 q 258 -17 393 -17 z "},"Ś":{"ha":646,"x_min":58,"x_max":679,"o":"m 258 -17 q 163 -6 208 -17 q 67 31 117 4 q 58 57 56 38 l 86 244 q 94 251 86 251 q 103 244 101 251 q 160 74 113 138 q 293 10 207 10 q 407 49 358 10 q 468 165 456 88 q 472 204 472 186 q 433 317 472 271 q 319 417 393 364 q 238 481 268 454 q 188 543 208 507 q 167 626 167 579 q 171 668 167 647 q 274 827 190 771 q 461 883 358 883 q 615 850 538 883 q 632 826 633 840 l 613 664 q 605 658 613 658 q 597 664 597 658 q 547 806 586 751 q 433 860 508 860 q 342 831 378 860 q 288 761 306 803 q 271 679 271 719 q 291 603 271 636 q 339 545 311 569 q 419 483 367 521 q 542 378 500 426 q 583 258 583 329 q 581 219 583 233 q 478 50 563 117 q 258 -17 393 -17 m 364 942 q 357 948 358 942 q 360 957 356 954 q 451 1013 406 982 q 508 1051 496 1043 l 568 1093 q 607 1088 575 1097 q 663 1065 639 1078 q 675 1050 688 1053 q 517 1003 589 1029 q 367 943 446 978 l 364 942 z "},"Š":{"ha":646,"x_min":58,"x_max":632,"o":"m 258 -17 q 163 -6 208 -17 q 67 31 117 4 q 58 57 56 38 l 86 244 q 94 251 86 251 q 103 244 101 251 q 160 74 113 138 q 293 10 207 10 q 407 49 358 10 q 468 165 456 88 q 472 204 472 186 q 433 317 472 271 q 319 417 393 364 q 238 481 268 454 q 188 543 208 507 q 167 626 167 579 q 171 668 167 647 q 274 827 190 771 q 461 883 358 883 q 615 850 538 883 q 632 826 633 840 l 613 664 q 605 658 613 658 q 597 664 597 658 q 547 806 586 751 q 433 860 508 860 q 342 831 378 860 q 288 761 306 803 q 271 679 271 719 q 291 603 271 636 q 339 545 311 569 q 419 483 367 521 q 542 378 500 426 q 583 258 583 329 q 581 219 583 233 q 478 50 563 117 q 258 -17 393 -17 m 326 1082 l 326 1083 q 331 1090 326 1086 q 336 1092 335 1093 l 458 1019 l 603 1092 l 604 1092 q 612 1088 608 1092 q 611 1082 615 1083 l 458 938 q 444 932 453 932 q 433 938 438 932 l 326 1082 z "},"Ş":{"ha":646,"x_min":56,"x_max":633,"o":"m 615 850 q 632 826 633 840 l 613 664 q 605 658 613 658 q 597 664 597 658 q 547 806 586 751 q 433 860 508 860 q 342 831 378 860 q 288 761 306 803 q 271 679 271 719 q 291 603 271 636 q 339 545 311 569 q 419 483 367 521 q 542 378 500 426 q 583 258 583 329 q 581 219 583 233 q 494 65 564 129 q 314 -14 425 0 q 304 -62 304 -39 q 313 -103 304 -83 q 340 -144 322 -122 q 385 -243 385 -203 q 383 -261 385 -256 q 338 -343 378 -304 q 233 -382 297 -382 q 170 -366 196 -382 q 144 -324 144 -350 q 158 -290 144 -301 q 192 -279 171 -279 q 219 -290 210 -279 q 238 -321 229 -301 q 253 -347 246 -339 q 274 -356 260 -356 q 303 -344 292 -356 q 319 -310 315 -332 q 261 -192 324 -268 q 244 -144 244 -174 q 261 -83 244 -117 l 294 -15 q 258 -17 282 -17 q 163 -6 208 -17 q 67 31 117 4 q 58 57 56 38 l 86 244 q 94 251 86 251 q 103 244 101 251 q 160 74 113 138 q 293 10 207 10 q 407 49 358 10 q 468 165 456 88 q 472 204 472 186 q 433 317 472 271 q 319 417 393 364 q 238 481 268 454 q 188 543 208 507 q 167 626 167 579 q 171 668 167 647 q 274 827 190 771 q 461 883 358 883 q 615 850 538 883 z "},"Ŝ":{"ha":646,"x_min":58,"x_max":632,"o":"m 258 -17 q 163 -6 208 -17 q 67 31 117 4 q 58 57 56 38 l 86 244 q 94 251 86 251 q 103 244 101 251 q 160 74 113 138 q 293 10 207 10 q 407 49 358 10 q 468 165 456 88 q 472 204 472 186 q 433 317 472 271 q 319 417 393 364 q 238 481 268 454 q 188 543 208 507 q 167 626 167 579 q 171 668 167 647 q 274 827 190 771 q 461 883 358 883 q 615 850 538 883 q 632 826 633 840 l 613 664 q 605 658 613 658 q 597 664 597 658 q 547 806 586 751 q 433 860 508 860 q 342 831 378 860 q 288 761 306 803 q 271 679 271 719 q 291 603 271 636 q 339 545 311 569 q 419 483 367 521 q 542 378 500 426 q 583 258 583 329 q 581 219 583 233 q 478 50 563 117 q 258 -17 393 -17 m 313 917 q 306 920 308 917 q 306 926 303 924 l 458 1069 q 471 1076 463 1076 q 483 1069 479 1076 l 590 926 l 592 924 q 588 918 592 921 q 581 917 583 915 l 458 988 l 314 917 l 313 917 z "},"Ș":{"ha":646,"x_min":58,"x_max":632,"o":"m 258 -17 q 163 -6 208 -17 q 67 31 117 4 q 58 57 56 38 l 86 244 q 94 251 86 251 q 103 244 101 251 q 160 74 113 138 q 293 10 207 10 q 407 49 358 10 q 468 165 456 88 q 472 204 472 186 q 433 317 472 271 q 319 417 393 364 q 238 481 268 454 q 188 543 208 507 q 167 626 167 579 q 171 668 167 647 q 274 827 190 771 q 461 883 358 883 q 615 850 538 883 q 632 826 633 840 l 613 664 q 605 658 613 658 q 597 664 597 658 q 547 806 586 751 q 433 860 508 860 q 342 831 378 860 q 288 761 306 803 q 271 679 271 719 q 291 603 271 636 q 339 545 311 569 q 419 483 367 521 q 542 378 500 426 q 583 258 583 329 q 581 219 583 233 q 478 50 563 117 q 258 -17 393 -17 m 268 -111 q 324 -134 304 -111 q 344 -196 344 -157 q 224 -382 344 -303 l 221 -383 q 213 -377 215 -383 q 214 -368 210 -371 q 290 -265 282 -322 q 292 -243 292 -257 q 290 -226 292 -232 q 258 -236 281 -236 q 210 -215 226 -236 q 197 -167 194 -194 q 219 -126 200 -142 q 268 -111 238 -111 z "},"Ṡ":{"ha":646,"x_min":58,"x_max":632,"o":"m 258 -17 q 163 -6 208 -17 q 67 31 117 4 q 58 57 56 38 l 86 244 q 94 251 86 251 q 103 244 101 251 q 160 74 113 138 q 293 10 207 10 q 407 49 358 10 q 468 165 456 88 q 472 204 472 186 q 433 317 472 271 q 319 417 393 364 q 238 481 268 454 q 188 543 208 507 q 167 626 167 579 q 171 668 167 647 q 274 827 190 771 q 461 883 358 883 q 615 850 538 883 q 632 826 633 840 l 613 664 q 605 658 613 658 q 597 664 597 658 q 547 806 586 751 q 433 860 508 860 q 342 831 378 860 q 288 761 306 803 q 271 679 271 719 q 291 603 271 636 q 339 545 311 569 q 419 483 367 521 q 542 378 500 426 q 583 258 583 329 q 581 219 583 233 q 478 50 563 117 q 258 -17 393 -17 m 463 986 q 414 1003 432 986 q 396 1051 396 1021 q 414 1099 396 1082 q 463 1115 432 1115 q 510 1099 493 1115 q 528 1051 528 1082 q 510 1003 528 1021 q 463 986 493 986 z "},"Ṣ":{"ha":646,"x_min":58,"x_max":632,"o":"m 258 -17 q 163 -6 208 -17 q 67 31 117 4 q 58 57 56 38 l 86 244 q 94 251 86 251 q 103 244 101 251 q 160 74 113 138 q 293 10 207 10 q 407 49 358 10 q 468 165 456 88 q 472 204 472 186 q 433 317 472 271 q 319 417 393 364 q 238 481 268 454 q 188 543 208 507 q 167 626 167 579 q 171 668 167 647 q 274 827 190 771 q 461 883 358 883 q 615 850 538 883 q 632 826 633 840 l 613 664 q 605 658 613 658 q 597 664 597 658 q 547 806 586 751 q 433 860 508 860 q 342 831 378 860 q 288 761 306 803 q 271 679 271 719 q 291 603 271 636 q 339 545 311 569 q 419 483 367 521 q 542 378 500 426 q 583 258 583 329 q 581 219 583 233 q 478 50 563 117 q 258 -17 393 -17 m 267 -268 q 219 -251 236 -268 q 201 -203 201 -233 q 219 -157 201 -174 q 267 -140 236 -140 q 315 -157 297 -140 q 332 -203 332 -174 q 315 -251 332 -235 q 267 -268 297 -268 z "},"ẞ":{"ha":890,"x_min":-25,"x_max":885,"o":"m 542 -17 q 390 31 453 -17 q 383 44 383 35 l 385 57 l 394 204 q 402 212 394 211 q 411 206 410 213 q 449 115 419 158 q 520 44 479 71 q 601 18 561 18 q 692 61 656 18 q 738 172 728 104 q 739 199 739 182 q 696 331 739 265 q 558 471 653 396 q 551 482 551 478 q 557 492 551 486 l 746 735 q 602 804 676 779 q 474 829 528 829 q 388 808 422 829 q 331 733 354 786 q 290 586 307 681 l 206 113 q 201 68 201 86 q 220 27 201 38 q 292 17 239 17 q 297 8 297 17 q 292 0 297 0 l 136 1 l -19 0 q -25 8 -25 0 q -19 17 -25 17 q 50 24 26 17 q 85 51 74 32 q 106 113 97 71 l 179 531 q 250 703 196 622 q 388 833 304 783 q 569 883 471 883 q 781 836 651 883 q 810 829 799 829 q 835 839 822 829 q 869 874 849 849 l 875 876 q 882 874 879 876 q 883 868 885 871 l 632 550 q 788 403 739 469 q 836 269 836 338 q 832 231 836 250 q 783 110 821 167 q 682 18 744 53 q 542 -17 619 -17 z "},"Ə":{"ha":821,"x_min":61,"x_max":800,"o":"m 476 883 q 725 793 650 883 q 800 563 800 703 q 790 450 800 503 q 691 200 764 306 q 517 39 618 94 q 304 -17 415 -17 q 165 15 219 -17 q 85 93 110 46 q 61 192 61 140 q 64 226 61 204 q 71 240 67 236 q 82 243 75 243 l 619 246 q 660 400 646 318 q 675 560 675 489 q 623 780 675 699 q 472 861 571 861 q 312 810 394 861 q 169 661 229 760 q 164 658 168 658 q 156 660 160 658 q 154 665 153 663 l 240 894 q 246 897 242 897 q 253 894 250 897 q 256 889 257 892 q 251 867 251 876 q 269 849 251 849 q 283 850 278 849 q 389 876 347 868 q 476 883 431 883 m 354 14 q 503 66 439 14 q 610 218 568 118 l 178 213 q 219 68 172 122 q 354 14 267 14 z "},"T":{"ha":768,"x_min":103,"x_max":844,"o":"m 185 0 q 181 8 181 0 q 185 17 181 17 q 257 24 233 17 q 292 51 281 31 q 313 113 304 71 l 425 756 q 429 797 429 781 q 415 833 429 824 q 364 842 401 842 l 335 842 q 203 790 258 842 q 121 636 149 738 q 115 633 121 633 q 107 635 111 633 q 104 639 103 638 q 138 765 117 676 q 167 899 158 853 q 176 902 168 903 q 183 897 185 901 q 238 868 179 868 q 492 864 340 864 q 649 867 563 864 l 736 868 q 799 875 778 868 q 828 903 819 882 q 838 906 831 907 q 843 900 844 906 q 812 767 832 860 q 786 639 792 674 q 777 635 785 635 q 771 642 769 636 q 776 704 776 671 q 639 842 776 842 l 613 842 q 549 824 565 842 q 524 753 532 807 l 411 113 q 406 68 406 76 q 427 27 406 38 q 507 17 449 17 q 510 8 510 17 q 507 0 510 0 q 442 1 465 0 l 344 3 l 251 1 q 185 0 228 0 z "},"Ŧ":{"ha":768,"x_min":103,"x_max":844,"o":"m 828 903 q 838 906 831 907 q 843 900 844 906 q 812 767 832 860 q 786 639 792 674 q 777 635 785 635 q 771 642 769 636 q 776 704 776 671 q 639 842 776 842 l 613 842 q 549 824 565 842 q 524 753 532 807 l 472 464 l 607 464 q 612 459 610 464 q 614 449 614 454 q 612 438 614 443 q 607 432 610 432 l 467 432 l 411 113 q 406 68 406 76 q 427 27 406 38 q 507 17 449 17 q 510 8 510 17 q 507 0 510 0 q 442 1 465 0 l 344 3 l 251 1 q 185 0 228 0 q 181 8 181 0 q 185 17 181 17 q 257 24 233 17 q 292 51 281 31 q 313 113 304 71 l 368 432 l 233 432 q 230 438 232 432 q 228 449 228 443 q 230 459 228 454 q 233 464 232 464 l 374 464 l 425 756 q 429 797 429 781 q 415 833 429 824 q 364 842 401 842 l 335 842 q 203 790 258 842 q 121 636 149 738 q 115 633 121 633 q 107 635 111 633 q 104 639 103 638 q 138 765 117 676 q 167 899 158 853 q 176 902 168 903 q 183 897 185 901 q 238 868 179 868 q 492 864 340 864 q 649 867 563 864 l 736 868 q 799 875 778 868 q 828 903 819 882 z "},"Ť":{"ha":768,"x_min":104,"x_max":843,"o":"m 185 0 q 181 8 181 0 q 185 17 181 17 q 257 24 233 17 q 292 51 281 31 q 313 113 304 71 l 425 756 q 429 797 429 781 q 415 833 429 824 q 364 842 401 842 l 335 842 q 203 790 258 842 q 121 636 149 738 q 115 633 121 633 q 107 635 111 633 q 104 639 103 638 q 138 765 117 676 q 167 899 158 853 q 176 902 168 903 q 183 897 185 901 q 238 868 179 868 q 492 864 340 864 q 649 867 563 864 l 736 868 q 799 875 778 868 q 828 903 819 882 q 838 906 831 907 q 843 900 844 906 q 812 767 832 860 q 786 639 792 674 q 777 635 785 635 q 771 642 769 636 q 776 704 776 671 q 639 842 776 842 l 613 842 q 549 824 565 842 q 524 753 532 807 l 411 113 q 406 68 406 76 q 427 27 406 38 q 507 17 449 17 q 510 8 510 17 q 507 0 510 0 q 442 1 465 0 l 344 3 l 251 1 q 185 0 228 0 m 381 1082 l 381 1083 q 385 1090 381 1086 q 390 1092 389 1093 l 513 1019 l 657 1092 l 658 1092 q 666 1088 663 1092 q 665 1082 669 1083 l 513 938 q 499 932 507 932 q 488 938 492 932 l 381 1082 z "},"Ţ":{"ha":768,"x_min":103,"x_max":844,"o":"m 828 903 q 838 906 831 907 q 843 900 844 906 q 812 767 832 860 q 786 639 792 674 q 777 635 785 635 q 771 642 769 636 q 776 704 776 671 q 639 842 776 842 l 613 842 q 549 824 565 842 q 524 753 532 807 l 411 113 q 406 68 406 76 q 427 27 406 38 q 507 17 449 17 q 510 8 510 17 q 507 0 510 0 q 446 1 468 0 l 357 3 q 340 -71 340 -43 q 348 -107 340 -90 q 371 -144 356 -124 q 415 -243 415 -203 q 414 -261 415 -256 q 368 -343 408 -304 q 264 -382 328 -382 q 201 -366 226 -382 q 175 -324 175 -350 q 188 -290 175 -301 q 222 -279 201 -279 q 250 -290 240 -279 q 268 -321 260 -301 q 283 -347 276 -339 q 304 -356 290 -356 q 334 -344 322 -356 q 350 -310 346 -332 q 292 -192 354 -268 q 275 -144 275 -174 q 292 -83 275 -115 l 335 3 l 247 1 q 185 0 224 0 q 181 8 181 0 q 185 17 181 17 q 257 24 233 17 q 292 51 281 31 q 313 113 304 71 l 425 756 q 429 797 429 781 q 415 833 429 824 q 364 842 401 842 l 335 842 q 203 790 258 842 q 121 636 149 738 q 115 633 121 633 q 107 635 111 633 q 104 639 103 638 q 138 765 117 676 q 167 899 158 853 q 176 902 168 903 q 183 897 185 901 q 238 868 179 868 q 492 864 340 864 q 649 867 563 864 l 736 868 q 799 875 778 868 q 828 903 819 882 z "},"Ț":{"ha":768,"x_min":104,"x_max":843,"o":"m 185 0 q 181 8 181 0 q 185 17 181 17 q 257 24 233 17 q 292 51 281 31 q 313 113 304 71 l 425 756 q 429 797 429 781 q 415 833 429 824 q 364 842 401 842 l 335 842 q 203 790 258 842 q 121 636 149 738 q 115 633 121 633 q 107 635 111 633 q 104 639 103 638 q 138 765 117 676 q 167 899 158 853 q 176 902 168 903 q 183 897 185 901 q 238 868 179 868 q 492 864 340 864 q 649 867 563 864 l 736 868 q 799 875 778 868 q 828 903 819 882 q 838 906 831 907 q 843 900 844 906 q 812 767 832 860 q 786 639 792 674 q 777 635 785 635 q 771 642 769 636 q 776 704 776 671 q 639 842 776 842 l 613 842 q 549 824 565 842 q 524 753 532 807 l 411 113 q 406 68 406 76 q 427 27 406 38 q 507 17 449 17 q 510 8 510 17 q 507 0 510 0 q 442 1 465 0 l 344 3 l 251 1 q 185 0 228 0 m 314 -111 q 370 -134 350 -111 q 390 -196 390 -157 q 269 -382 390 -303 l 267 -383 q 258 -377 261 -383 q 260 -368 256 -371 q 336 -265 328 -322 q 338 -243 338 -257 q 336 -226 338 -232 q 304 -236 326 -236 q 256 -215 272 -236 q 243 -167 240 -194 q 265 -126 246 -142 q 314 -111 283 -111 z "},"Ṭ":{"ha":768,"x_min":104,"x_max":843,"o":"m 185 0 q 181 8 181 0 q 185 17 181 17 q 257 24 233 17 q 292 51 281 31 q 313 113 304 71 l 425 756 q 429 797 429 781 q 415 833 429 824 q 364 842 401 842 l 335 842 q 203 790 258 842 q 121 636 149 738 q 115 633 121 633 q 107 635 111 633 q 104 639 103 638 q 138 765 117 676 q 167 899 158 853 q 176 902 168 903 q 183 897 185 901 q 238 868 179 868 q 492 864 340 864 q 649 867 563 864 l 736 868 q 799 875 778 868 q 828 903 819 882 q 838 906 831 907 q 843 900 844 906 q 812 767 832 860 q 786 639 792 674 q 777 635 785 635 q 771 642 769 636 q 776 704 776 671 q 639 842 776 842 l 613 842 q 549 824 565 842 q 524 753 532 807 l 411 113 q 406 68 406 76 q 427 27 406 38 q 507 17 449 17 q 510 8 510 17 q 507 0 510 0 q 442 1 465 0 l 344 3 l 251 1 q 185 0 228 0 m 313 -268 q 265 -251 282 -268 q 247 -203 247 -233 q 265 -157 247 -174 q 313 -140 282 -140 q 360 -157 343 -140 q 378 -203 378 -174 q 360 -251 378 -235 q 313 -268 343 -268 z "},"Ṯ":{"ha":768,"x_min":104,"x_max":843,"o":"m 185 0 q 181 8 181 0 q 185 17 181 17 q 257 24 233 17 q 292 51 281 31 q 313 113 304 71 l 425 756 q 429 797 429 781 q 415 833 429 824 q 364 842 401 842 l 335 842 q 203 790 258 842 q 121 636 149 738 q 115 633 121 633 q 107 635 111 633 q 104 639 103 638 q 138 765 117 676 q 167 899 158 853 q 176 902 168 903 q 183 897 185 901 q 238 868 179 868 q 492 864 340 864 q 649 867 563 864 l 736 868 q 799 875 778 868 q 828 903 819 882 q 838 906 831 907 q 843 900 844 906 q 812 767 832 860 q 786 639 792 674 q 777 635 785 635 q 771 642 769 636 q 776 704 776 671 q 639 842 776 842 l 613 842 q 549 824 565 842 q 524 753 532 807 l 411 113 q 406 68 406 76 q 427 27 406 38 q 507 17 449 17 q 510 8 510 17 q 507 0 510 0 q 442 1 465 0 l 344 3 l 251 1 q 185 0 228 0 m 172 -165 q 164 -158 167 -165 q 161 -143 161 -151 q 164 -128 161 -135 q 172 -121 167 -121 l 497 -121 q 507 -143 507 -121 q 497 -165 507 -165 l 172 -165 z "},"U":{"ha":860,"x_min":124,"x_max":946,"o":"m 781 711 q 785 756 785 736 q 694 851 785 851 q 691 860 690 851 q 694 868 692 868 l 753 867 q 822 864 797 864 q 890 867 846 864 l 940 868 q 945 860 946 868 q 940 851 944 851 q 858 813 890 851 q 813 706 825 775 l 740 297 q 618 65 715 149 q 383 -18 521 -18 q 193 47 263 -18 q 124 226 124 113 q 131 299 124 257 l 213 758 q 217 801 217 783 q 198 842 217 832 q 129 851 179 851 q 125 860 125 851 q 128 868 125 868 l 193 867 q 278 864 246 864 q 372 867 317 864 l 429 868 q 434 860 435 868 q 429 851 433 851 q 362 842 385 851 q 328 813 339 833 q 310 749 317 792 l 236 340 q 226 243 226 290 q 278 81 226 135 q 422 26 329 26 q 609 100 533 26 q 707 303 685 174 l 781 711 z "},"Ú":{"ha":860,"x_min":124,"x_max":944,"o":"m 781 711 q 785 756 785 736 q 694 851 785 851 q 691 860 690 851 q 694 868 692 868 l 753 867 q 822 864 797 864 q 890 867 846 864 l 940 868 q 945 860 946 868 q 940 851 944 851 q 858 813 890 851 q 813 706 825 775 l 740 297 q 618 65 715 149 q 383 -18 521 -18 q 193 47 263 -18 q 124 226 124 113 q 131 299 124 257 l 213 758 q 217 801 217 783 q 198 842 217 832 q 129 851 179 851 q 125 860 125 851 q 128 868 125 868 l 193 867 q 278 864 246 864 q 372 867 317 864 l 429 868 q 434 860 435 868 q 429 851 433 851 q 362 842 385 851 q 328 813 339 833 q 310 749 317 792 l 236 340 q 226 243 226 290 q 278 81 226 135 q 422 26 329 26 q 609 100 533 26 q 707 303 685 174 l 781 711 m 429 942 q 422 948 424 942 q 424 957 419 954 q 560 1043 488 992 q 633 1092 625 1086 q 672 1086 640 1096 q 727 1064 703 1076 q 739 1050 751 1051 q 431 942 575 1008 l 429 942 z "},"Ŭ":{"ha":860,"x_min":124,"x_max":944,"o":"m 781 711 q 785 756 785 736 q 694 851 785 851 q 691 860 690 851 q 694 868 692 868 l 753 867 q 822 864 797 864 q 890 867 846 864 l 940 868 q 945 860 946 868 q 940 851 944 851 q 858 813 890 851 q 813 706 825 775 l 740 297 q 618 65 715 149 q 383 -18 521 -18 q 193 47 263 -18 q 124 226 124 113 q 131 299 124 257 l 213 758 q 217 801 217 783 q 198 842 217 832 q 129 851 179 851 q 125 860 125 851 q 128 868 125 868 l 193 867 q 278 864 246 864 q 372 867 317 864 l 429 868 q 434 860 435 868 q 429 851 433 851 q 362 842 385 851 q 328 813 339 833 q 310 749 317 792 l 236 340 q 226 243 226 290 q 278 81 226 135 q 422 26 329 26 q 609 100 533 26 q 707 303 685 174 l 781 711 m 574 925 q 481 960 515 925 q 447 1049 447 994 q 472 1064 447 1057 q 517 1071 496 1071 q 532 1067 532 1071 q 558 1006 535 1028 q 619 983 582 983 q 718 1061 681 983 q 726 1065 721 1065 q 737 1063 732 1065 q 740 1057 742 1060 q 669 959 711 993 q 574 925 626 925 z "},"Ǔ":{"ha":860,"x_min":124,"x_max":944,"o":"m 781 711 q 785 756 785 736 q 694 851 785 851 q 691 860 690 851 q 694 868 692 868 l 753 867 q 822 864 797 864 q 890 867 846 864 l 940 868 q 945 860 946 868 q 940 851 944 851 q 858 813 890 851 q 813 706 825 775 l 740 297 q 618 65 715 149 q 383 -18 521 -18 q 193 47 263 -18 q 124 226 124 113 q 131 299 124 257 l 213 758 q 217 801 217 783 q 198 842 217 832 q 129 851 179 851 q 125 860 125 851 q 128 868 125 868 l 193 867 q 278 864 246 864 q 372 867 317 864 l 429 868 q 434 860 435 868 q 429 851 433 851 q 362 842 385 851 q 328 813 339 833 q 310 749 317 792 l 236 340 q 226 243 226 290 q 278 81 226 135 q 422 26 329 26 q 609 100 533 26 q 707 303 685 174 l 781 711 m 456 1082 l 456 1083 q 460 1090 456 1086 q 465 1092 464 1093 l 588 1019 l 732 1092 l 733 1092 q 741 1088 738 1092 q 740 1082 744 1083 l 588 938 q 574 932 582 932 q 563 938 567 932 l 456 1082 z "},"Û":{"ha":860,"x_min":124,"x_max":944,"o":"m 781 711 q 785 756 785 736 q 694 851 785 851 q 691 860 690 851 q 694 868 692 868 l 753 867 q 822 864 797 864 q 890 867 846 864 l 940 868 q 945 860 946 868 q 940 851 944 851 q 858 813 890 851 q 813 706 825 775 l 740 297 q 618 65 715 149 q 383 -18 521 -18 q 193 47 263 -18 q 124 226 124 113 q 131 299 124 257 l 213 758 q 217 801 217 783 q 198 842 217 832 q 129 851 179 851 q 125 860 125 851 q 128 868 125 868 l 193 867 q 278 864 246 864 q 372 867 317 864 l 429 868 q 434 860 435 868 q 429 851 433 851 q 362 842 385 851 q 328 813 339 833 q 310 749 317 792 l 236 340 q 226 243 226 290 q 278 81 226 135 q 422 26 329 26 q 609 100 533 26 q 707 303 685 174 l 781 711 m 442 917 q 435 920 438 917 q 435 926 432 924 l 588 1069 q 600 1076 592 1076 q 613 1069 608 1076 l 719 926 l 721 924 q 717 918 721 921 q 710 917 713 915 l 588 988 l 443 917 l 442 917 z "},"Ü":{"ha":860,"x_min":124,"x_max":944,"o":"m 781 711 q 785 756 785 736 q 694 851 785 851 q 691 860 690 851 q 694 868 692 868 l 753 867 q 822 864 797 864 q 890 867 846 864 l 940 868 q 945 860 946 868 q 940 851 944 851 q 858 813 890 851 q 813 706 825 775 l 740 297 q 618 65 715 149 q 383 -18 521 -18 q 193 47 263 -18 q 124 226 124 113 q 131 299 124 257 l 213 758 q 217 801 217 783 q 198 842 217 832 q 129 851 179 851 q 125 860 125 851 q 128 868 125 868 l 193 867 q 278 864 246 864 q 372 867 317 864 l 429 868 q 434 860 435 868 q 429 851 433 851 q 362 842 385 851 q 328 813 339 833 q 310 749 317 792 l 236 340 q 226 243 226 290 q 278 81 226 135 q 422 26 329 26 q 609 100 533 26 q 707 303 685 174 l 781 711 m 478 989 q 431 1006 449 989 q 413 1053 413 1024 q 431 1098 413 1082 q 478 1114 449 1114 q 524 1098 508 1114 q 540 1053 540 1082 q 524 1006 540 1022 q 478 989 508 989 m 721 989 q 674 1006 690 989 q 657 1053 657 1022 q 674 1098 657 1082 q 721 1114 690 1114 q 767 1098 750 1114 q 783 1053 783 1082 q 767 1006 783 1022 q 721 989 750 989 z "},"Ǘ":{"ha":860,"x_min":124,"x_max":944,"o":"m 781 711 q 785 756 785 736 q 694 851 785 851 q 691 860 690 851 q 694 868 692 868 l 753 867 q 822 864 797 864 q 890 867 846 864 l 940 868 q 945 860 946 868 q 940 851 944 851 q 858 813 890 851 q 813 706 825 775 l 740 297 q 618 65 715 149 q 383 -18 521 -18 q 193 47 263 -18 q 124 226 124 113 q 131 299 124 257 l 213 758 q 217 801 217 783 q 198 842 217 832 q 129 851 179 851 q 125 860 125 851 q 128 868 125 868 l 193 867 q 278 864 246 864 q 372 867 317 864 l 429 868 q 434 860 435 868 q 429 851 433 851 q 362 842 385 851 q 328 813 339 833 q 310 749 317 792 l 236 340 q 226 243 226 290 q 278 81 226 135 q 422 26 329 26 q 609 100 533 26 q 707 303 685 174 l 781 711 m 492 957 q 444 974 461 957 q 428 1021 428 990 q 444 1066 428 1050 q 492 1082 461 1082 q 537 1066 521 1082 q 553 1021 553 1050 q 537 974 553 990 q 492 957 521 957 m 704 957 q 657 974 674 957 q 640 1021 640 990 q 657 1066 640 1050 q 704 1082 674 1082 q 750 1066 733 1082 q 767 1021 767 1050 q 750 974 767 990 q 704 957 733 957 m 476 1111 q 469 1117 471 1111 q 472 1126 468 1124 q 563 1182 518 1151 q 621 1221 608 1213 l 681 1263 q 719 1257 688 1267 q 776 1235 751 1247 q 788 1219 800 1222 q 630 1173 701 1199 q 479 1113 558 1147 l 476 1111 z "},"Ǚ":{"ha":860,"x_min":124,"x_max":944,"o":"m 781 711 q 785 756 785 736 q 694 851 785 851 q 691 860 690 851 q 694 868 692 868 l 753 867 q 822 864 797 864 q 890 867 846 864 l 940 868 q 945 860 946 868 q 940 851 944 851 q 858 813 890 851 q 813 706 825 775 l 740 297 q 618 65 715 149 q 383 -18 521 -18 q 193 47 263 -18 q 124 226 124 113 q 131 299 124 257 l 213 758 q 217 801 217 783 q 198 842 217 832 q 129 851 179 851 q 125 860 125 851 q 128 868 125 868 l 193 867 q 278 864 246 864 q 372 867 317 864 l 429 868 q 434 860 435 868 q 429 851 433 851 q 362 842 385 851 q 328 813 339 833 q 310 749 317 792 l 236 340 q 226 243 226 290 q 278 81 226 135 q 422 26 329 26 q 609 100 533 26 q 707 303 685 174 l 781 711 m 492 957 q 444 974 461 957 q 428 1021 428 990 q 444 1066 428 1050 q 492 1082 461 1082 q 537 1066 521 1082 q 553 1021 553 1050 q 537 974 553 990 q 492 957 521 957 m 704 957 q 657 974 674 957 q 640 1021 640 990 q 657 1066 640 1050 q 704 1082 674 1082 q 750 1066 733 1082 q 767 1021 767 1050 q 750 974 767 990 q 704 957 733 957 m 483 1103 q 476 1106 481 1101 q 475 1113 472 1110 l 628 1256 q 640 1263 635 1263 q 653 1256 649 1263 l 760 1113 l 760 1111 q 756 1103 760 1107 q 750 1103 753 1100 l 628 1175 l 483 1103 z "},"Ǜ":{"ha":860,"x_min":124,"x_max":944,"o":"m 781 711 q 785 756 785 736 q 694 851 785 851 q 691 860 690 851 q 694 868 692 868 l 753 867 q 822 864 797 864 q 890 867 846 864 l 940 868 q 945 860 946 868 q 940 851 944 851 q 858 813 890 851 q 813 706 825 775 l 740 297 q 618 65 715 149 q 383 -18 521 -18 q 193 47 263 -18 q 124 226 124 113 q 131 299 124 257 l 213 758 q 217 801 217 783 q 198 842 217 832 q 129 851 179 851 q 125 860 125 851 q 128 868 125 868 l 193 867 q 278 864 246 864 q 372 867 317 864 l 429 868 q 434 860 435 868 q 429 851 433 851 q 362 842 385 851 q 328 813 339 833 q 310 749 317 792 l 236 340 q 226 243 226 290 q 278 81 226 135 q 422 26 329 26 q 609 100 533 26 q 707 303 685 174 l 781 711 m 492 957 q 444 974 461 957 q 428 1021 428 990 q 444 1066 428 1050 q 492 1082 461 1082 q 537 1066 521 1082 q 553 1021 553 1050 q 537 974 553 990 q 492 957 521 957 m 704 957 q 657 974 674 957 q 640 1021 640 990 q 657 1066 640 1050 q 704 1082 674 1082 q 750 1066 733 1082 q 767 1021 767 1050 q 750 974 767 990 q 704 957 733 957 m 738 1106 q 608 1160 667 1138 q 475 1204 549 1182 q 488 1219 461 1207 q 552 1242 515 1232 q 594 1247 589 1251 q 747 1118 654 1193 q 750 1114 750 1118 q 746 1107 750 1110 q 738 1106 742 1104 z "},"Ǖ":{"ha":860,"x_min":124,"x_max":944,"o":"m 781 711 q 785 756 785 736 q 694 851 785 851 q 691 860 690 851 q 694 868 692 868 l 753 867 q 822 864 797 864 q 890 867 846 864 l 940 868 q 945 860 946 868 q 940 851 944 851 q 858 813 890 851 q 813 706 825 775 l 740 297 q 618 65 715 149 q 383 -18 521 -18 q 193 47 263 -18 q 124 226 124 113 q 131 299 124 257 l 213 758 q 217 801 217 783 q 198 842 217 832 q 129 851 179 851 q 125 860 125 851 q 128 868 125 868 l 193 867 q 278 864 246 864 q 372 867 317 864 l 429 868 q 434 860 435 868 q 429 851 433 851 q 362 842 385 851 q 328 813 339 833 q 310 749 317 792 l 236 340 q 226 243 226 290 q 278 81 226 135 q 422 26 329 26 q 609 100 533 26 q 707 303 685 174 l 781 711 m 478 957 q 431 974 447 957 q 414 1021 414 990 q 431 1066 414 1050 q 478 1082 447 1082 q 523 1066 507 1082 q 539 1021 539 1050 q 523 974 539 990 q 478 957 507 957 m 690 957 q 643 974 660 957 q 626 1021 626 990 q 643 1066 626 1050 q 690 1082 660 1082 q 736 1066 719 1082 q 753 1021 753 1050 q 736 974 753 990 q 690 957 719 957 m 440 1140 q 431 1163 431 1140 q 440 1185 431 1185 l 765 1185 q 774 1178 771 1185 q 776 1163 776 1171 q 774 1147 776 1154 q 765 1140 771 1140 l 440 1140 z "},"Ụ":{"ha":860,"x_min":124,"x_max":944,"o":"m 781 711 q 785 756 785 736 q 694 851 785 851 q 691 860 690 851 q 694 868 692 868 l 753 867 q 822 864 797 864 q 890 867 846 864 l 940 868 q 945 860 946 868 q 940 851 944 851 q 858 813 890 851 q 813 706 825 775 l 740 297 q 618 65 715 149 q 383 -18 521 -18 q 193 47 263 -18 q 124 226 124 113 q 131 299 124 257 l 213 758 q 217 801 217 783 q 198 842 217 832 q 129 851 179 851 q 125 860 125 851 q 128 868 125 868 l 193 867 q 278 864 246 864 q 372 867 317 864 l 429 868 q 434 860 435 868 q 429 851 433 851 q 362 842 385 851 q 328 813 339 833 q 310 749 317 792 l 236 340 q 226 243 226 290 q 278 81 226 135 q 422 26 329 26 q 609 100 533 26 q 707 303 685 174 l 781 711 m 353 -268 q 305 -251 322 -268 q 288 -203 288 -233 q 305 -157 288 -174 q 353 -140 322 -140 q 401 -157 383 -140 q 418 -203 418 -174 q 401 -251 418 -235 q 353 -268 383 -268 z "},"Ù":{"ha":860,"x_min":124,"x_max":944,"o":"m 781 711 q 785 756 785 736 q 694 851 785 851 q 691 860 690 851 q 694 868 692 868 l 753 867 q 822 864 797 864 q 890 867 846 864 l 940 868 q 945 860 946 868 q 940 851 944 851 q 858 813 890 851 q 813 706 825 775 l 740 297 q 618 65 715 149 q 383 -18 521 -18 q 193 47 263 -18 q 124 226 124 113 q 131 299 124 257 l 213 758 q 217 801 217 783 q 198 842 217 832 q 129 851 179 851 q 125 860 125 851 q 128 868 125 868 l 193 867 q 278 864 246 864 q 372 867 317 864 l 429 868 q 434 860 435 868 q 429 851 433 851 q 362 842 385 851 q 328 813 339 833 q 310 749 317 792 l 236 340 q 226 243 226 290 q 278 81 226 135 q 422 26 329 26 q 609 100 533 26 q 707 303 685 174 l 781 711 m 703 943 q 394 1050 547 1013 q 406 1065 382 1053 q 462 1088 429 1078 q 500 1093 494 1097 q 571 1046 547 1063 q 708 957 663 983 q 713 951 713 956 q 710 944 713 947 q 703 943 707 942 z "},"Ủ":{"ha":860,"x_min":124,"x_max":944,"o":"m 781 711 q 785 756 785 736 q 694 851 785 851 q 691 860 690 851 q 694 868 692 868 l 753 867 q 822 864 797 864 q 890 867 846 864 l 940 868 q 945 860 946 868 q 940 851 944 851 q 858 813 890 851 q 813 706 825 775 l 740 297 q 618 65 715 149 q 383 -18 521 -18 q 193 47 263 -18 q 124 226 124 113 q 131 299 124 257 l 213 758 q 217 801 217 783 q 198 842 217 832 q 129 851 179 851 q 125 860 125 851 q 128 868 125 868 l 193 867 q 278 864 246 864 q 372 867 317 864 l 429 868 q 434 860 435 868 q 429 851 433 851 q 362 842 385 851 q 328 813 339 833 q 310 749 317 792 l 236 340 q 226 243 226 290 q 278 81 226 135 q 422 26 329 26 q 609 100 533 26 q 707 303 685 174 l 781 711 m 578 904 q 571 901 579 901 q 561 904 563 900 q 560 924 560 911 q 568 967 560 949 q 594 1017 576 986 q 617 1059 610 1043 q 625 1094 625 1075 q 613 1128 625 1117 q 579 1140 600 1140 q 536 1129 558 1140 l 533 1129 q 526 1133 529 1129 q 528 1142 524 1138 q 628 1172 575 1172 q 692 1152 669 1172 q 713 1100 715 1132 q 692 1051 710 1074 q 642 1000 674 1028 q 592 948 607 968 q 578 904 576 928 z "},"Ư":{"ha":858,"x_min":122,"x_max":1046,"o":"m 740 297 q 617 65 714 149 q 382 -18 519 -18 q 191 47 260 -18 q 122 228 122 113 q 129 299 122 257 l 211 758 q 215 801 215 783 q 197 842 215 832 q 128 851 178 851 q 124 857 124 851 q 125 864 124 861 q 128 868 126 867 l 192 867 q 276 864 244 864 q 372 867 314 864 l 429 868 q 433 860 433 868 q 429 851 432 851 q 362 842 385 851 q 327 813 339 833 q 308 749 315 792 l 235 340 q 226 244 226 289 q 277 81 226 136 q 419 26 328 26 q 609 100 533 26 q 706 303 685 174 l 779 711 q 783 756 783 736 q 694 851 783 851 q 690 857 690 851 q 692 864 690 861 q 694 868 693 867 l 751 867 q 821 864 796 864 q 913 879 881 864 q 950 929 946 894 q 944 964 953 944 q 940 981 942 972 q 939 1003 938 990 q 962 1041 944 1028 q 1000 1054 979 1054 q 1034 1038 1022 1054 q 1046 996 1046 1021 q 1044 978 1046 983 q 999 904 1036 933 q 906 850 961 875 q 849 807 872 836 q 811 706 825 778 l 740 297 z "},"Ứ":{"ha":858,"x_min":122,"x_max":1046,"o":"m 740 297 q 617 65 714 149 q 382 -18 519 -18 q 191 47 260 -18 q 122 228 122 113 q 129 299 122 257 l 211 758 q 215 801 215 783 q 197 842 215 832 q 128 851 178 851 q 124 857 124 851 q 125 864 124 861 q 128 868 126 867 l 192 867 q 276 864 244 864 q 372 867 314 864 l 429 868 q 433 860 433 868 q 429 851 432 851 q 362 842 385 851 q 327 813 339 833 q 308 749 315 792 l 235 340 q 226 244 226 289 q 277 81 226 136 q 419 26 328 26 q 609 100 533 26 q 706 303 685 174 l 779 711 q 783 756 783 736 q 694 851 783 851 q 690 857 690 851 q 692 864 690 861 q 694 868 693 867 l 751 867 q 821 864 796 864 q 913 879 881 864 q 950 929 946 894 q 944 964 953 944 q 940 981 942 972 q 939 1003 938 990 q 962 1041 944 1028 q 1000 1054 979 1054 q 1034 1038 1022 1054 q 1046 996 1046 1021 q 1044 978 1046 983 q 999 904 1036 933 q 906 850 961 875 q 849 807 872 836 q 811 706 825 778 l 740 297 m 428 942 q 420 948 422 942 q 422 957 418 954 q 558 1043 486 992 q 632 1092 624 1086 q 670 1086 639 1096 q 726 1064 701 1076 q 738 1050 750 1051 q 429 942 574 1008 l 428 942 z "},"Ự":{"ha":858,"x_min":122,"x_max":1046,"o":"m 740 297 q 617 65 714 149 q 382 -18 519 -18 q 191 47 260 -18 q 122 228 122 113 q 129 299 122 257 l 211 758 q 215 801 215 783 q 197 842 215 832 q 128 851 178 851 q 124 857 124 851 q 125 864 124 861 q 128 868 126 867 l 192 867 q 276 864 244 864 q 372 867 314 864 l 429 868 q 433 860 433 868 q 429 851 432 851 q 362 842 385 851 q 327 813 339 833 q 308 749 315 792 l 235 340 q 226 244 226 289 q 277 81 226 136 q 419 26 328 26 q 609 100 533 26 q 706 303 685 174 l 779 711 q 783 756 783 736 q 694 851 783 851 q 690 857 690 851 q 692 864 690 861 q 694 868 693 867 l 751 867 q 821 864 796 864 q 913 879 881 864 q 950 929 946 894 q 944 964 953 944 q 940 981 942 972 q 939 1003 938 990 q 962 1041 944 1028 q 1000 1054 979 1054 q 1034 1038 1022 1054 q 1046 996 1046 1021 q 1044 978 1046 983 q 999 904 1036 933 q 906 850 961 875 q 849 807 872 836 q 811 706 825 778 l 740 297 m 329 -268 q 281 -251 299 -268 q 264 -203 264 -233 q 281 -157 264 -174 q 329 -140 299 -140 q 377 -157 360 -140 q 394 -203 394 -174 q 377 -251 394 -235 q 329 -268 360 -268 z "},"Ừ":{"ha":858,"x_min":122,"x_max":1046,"o":"m 740 297 q 617 65 714 149 q 382 -18 519 -18 q 191 47 260 -18 q 122 228 122 113 q 129 299 122 257 l 211 758 q 215 801 215 783 q 197 842 215 832 q 128 851 178 851 q 124 857 124 851 q 125 864 124 861 q 128 868 126 867 l 192 867 q 276 864 244 864 q 372 867 314 864 l 429 868 q 433 860 433 868 q 429 851 432 851 q 362 842 385 851 q 327 813 339 833 q 308 749 315 792 l 235 340 q 226 244 226 289 q 277 81 226 136 q 419 26 328 26 q 609 100 533 26 q 706 303 685 174 l 779 711 q 783 756 783 736 q 694 851 783 851 q 690 857 690 851 q 692 864 690 861 q 694 868 693 867 l 751 867 q 821 864 796 864 q 913 879 881 864 q 950 929 946 894 q 944 964 953 944 q 940 981 942 972 q 939 1003 938 990 q 962 1041 944 1028 q 1000 1054 979 1054 q 1034 1038 1022 1054 q 1046 996 1046 1021 q 1044 978 1046 983 q 999 904 1036 933 q 906 850 961 875 q 849 807 872 836 q 811 706 825 778 l 740 297 m 701 943 q 393 1050 546 1013 q 404 1065 381 1053 q 460 1088 428 1078 q 499 1093 493 1097 q 569 1046 546 1063 q 707 957 661 983 q 711 951 711 956 q 708 944 711 947 q 701 943 706 942 z "},"Ử":{"ha":858,"x_min":122,"x_max":1046,"o":"m 740 297 q 617 65 714 149 q 382 -18 519 -18 q 191 47 260 -18 q 122 228 122 113 q 129 299 122 257 l 211 758 q 215 801 215 783 q 197 842 215 832 q 128 851 178 851 q 124 857 124 851 q 125 864 124 861 q 128 868 126 867 l 192 867 q 276 864 244 864 q 372 867 314 864 l 429 868 q 433 860 433 868 q 429 851 432 851 q 362 842 385 851 q 327 813 339 833 q 308 749 315 792 l 235 340 q 226 244 226 289 q 277 81 226 136 q 419 26 328 26 q 609 100 533 26 q 706 303 685 174 l 779 711 q 783 756 783 736 q 694 851 783 851 q 690 857 690 851 q 692 864 690 861 q 694 868 693 867 l 751 867 q 821 864 796 864 q 913 879 881 864 q 950 929 946 894 q 944 964 953 944 q 940 981 942 972 q 939 1003 938 990 q 962 1041 944 1028 q 1000 1054 979 1054 q 1034 1038 1022 1054 q 1046 996 1046 1021 q 1044 978 1046 983 q 999 904 1036 933 q 906 850 961 875 q 849 807 872 836 q 811 706 825 778 l 740 297 m 576 904 q 569 901 578 901 q 560 904 561 900 q 558 924 558 911 q 567 967 558 949 q 593 1017 575 986 q 616 1059 608 1043 q 624 1094 624 1075 q 611 1128 624 1117 q 578 1140 599 1140 q 535 1129 557 1140 l 532 1129 q 525 1133 528 1129 q 526 1142 522 1138 q 626 1172 574 1172 q 691 1152 668 1172 q 711 1100 714 1132 q 690 1051 708 1074 q 640 1000 672 1028 q 590 948 606 968 q 576 904 575 928 z "},"Ữ":{"ha":858,"x_min":122,"x_max":1046,"o":"m 740 297 q 617 65 714 149 q 382 -18 519 -18 q 191 47 260 -18 q 122 228 122 113 q 129 299 122 257 l 211 758 q 215 801 215 783 q 197 842 215 832 q 128 851 178 851 q 124 857 124 851 q 125 864 124 861 q 128 868 126 867 l 192 867 q 276 864 244 864 q 372 867 314 864 l 429 868 q 433 860 433 868 q 429 851 432 851 q 362 842 385 851 q 327 813 339 833 q 308 749 315 792 l 235 340 q 226 244 226 289 q 277 81 226 136 q 419 26 328 26 q 609 100 533 26 q 706 303 685 174 l 779 711 q 783 756 783 736 q 694 851 783 851 q 690 857 690 851 q 692 864 690 861 q 694 868 693 867 l 751 867 q 821 864 796 864 q 913 879 881 864 q 950 929 946 894 q 944 964 953 944 q 940 981 942 972 q 939 1003 938 990 q 962 1041 944 1028 q 1000 1054 979 1054 q 1034 1038 1022 1054 q 1046 996 1046 1021 q 1044 978 1046 983 q 999 904 1036 933 q 906 850 961 875 q 849 807 872 836 q 811 706 825 778 l 740 297 m 410 994 q 403 998 406 994 q 403 1004 400 1001 q 528 1097 468 1097 q 597 1083 547 1097 q 700 1064 661 1064 q 742 1073 726 1064 q 776 1101 758 1082 l 778 1101 q 785 1098 782 1101 q 786 1092 789 1094 q 723 1017 747 1036 q 668 997 699 997 q 585 1014 640 997 q 549 1024 579 1015 q 489 1032 519 1032 q 450 1025 464 1032 q 426 1008 436 1018 q 413 994 417 999 l 410 994 z "},"Ű":{"ha":860,"x_min":124,"x_max":944,"o":"m 781 711 q 785 756 785 736 q 694 851 785 851 q 691 860 690 851 q 694 868 692 868 l 753 867 q 822 864 797 864 q 890 867 846 864 l 940 868 q 945 860 946 868 q 940 851 944 851 q 858 813 890 851 q 813 706 825 775 l 740 297 q 618 65 715 149 q 383 -18 521 -18 q 193 47 263 -18 q 124 226 124 113 q 131 299 124 257 l 213 758 q 217 801 217 783 q 198 842 217 832 q 129 851 179 851 q 125 860 125 851 q 128 868 125 868 l 193 867 q 278 864 246 864 q 372 867 317 864 l 429 868 q 434 860 435 868 q 429 851 433 851 q 362 842 385 851 q 328 813 339 833 q 310 749 317 792 l 236 340 q 226 243 226 290 q 278 81 226 135 q 422 26 329 26 q 609 100 533 26 q 707 303 685 174 l 781 711 m 426 925 q 421 931 422 925 q 422 940 419 938 l 474 993 q 574 1100 539 1061 q 585 1103 576 1103 q 648 1088 610 1103 q 672 1065 686 1074 q 535 995 590 1026 q 429 926 481 964 l 426 925 m 604 925 q 599 931 600 925 q 600 940 597 938 l 661 1004 q 750 1100 721 1065 q 785 1099 754 1106 q 838 1082 815 1093 q 850 1065 861 1071 q 607 926 708 1001 l 604 925 z "},"Ū":{"ha":860,"x_min":124,"x_max":944,"o":"m 781 711 q 785 756 785 736 q 694 851 785 851 q 691 860 690 851 q 694 868 692 868 l 753 867 q 822 864 797 864 q 890 867 846 864 l 940 868 q 945 860 946 868 q 940 851 944 851 q 858 813 890 851 q 813 706 825 775 l 740 297 q 618 65 715 149 q 383 -18 521 -18 q 193 47 263 -18 q 124 226 124 113 q 131 299 124 257 l 213 758 q 217 801 217 783 q 198 842 217 832 q 129 851 179 851 q 125 860 125 851 q 128 868 125 868 l 193 867 q 278 864 246 864 q 372 867 317 864 l 429 868 q 434 860 435 868 q 429 851 433 851 q 362 842 385 851 q 328 813 339 833 q 310 749 317 792 l 236 340 q 226 243 226 290 q 278 81 226 135 q 422 26 329 26 q 609 100 533 26 q 707 303 685 174 l 781 711 m 390 990 q 382 997 385 990 q 379 1011 379 1003 q 382 1026 379 1019 q 390 1032 385 1032 l 739 1032 q 749 1011 749 1032 q 739 990 749 990 l 390 990 z "},"Ų":{"ha":860,"x_min":124,"x_max":946,"o":"m 940 868 q 945 860 946 868 q 940 851 944 851 q 858 813 890 851 q 813 706 825 775 l 740 297 q 645 91 719 171 q 461 -11 571 11 q 374 -125 406 -69 q 343 -239 343 -181 q 365 -308 343 -282 q 425 -333 386 -333 q 464 -325 447 -333 q 501 -300 481 -317 l 503 -299 q 510 -304 507 -299 q 511 -312 514 -310 q 438 -365 472 -349 q 368 -381 404 -381 q 286 -351 315 -381 q 257 -272 257 -321 q 301 -150 257 -212 q 426 -15 346 -87 q 383 -18 399 -18 q 193 47 263 -18 q 124 226 124 113 q 131 299 124 257 l 213 758 q 217 801 217 783 q 198 842 217 832 q 129 851 179 851 q 125 860 125 851 q 128 868 125 868 l 193 867 q 278 864 246 864 q 372 867 317 864 l 429 868 q 434 860 435 868 q 429 851 433 851 q 362 842 385 851 q 328 813 339 833 q 310 749 317 792 l 236 340 q 226 243 226 290 q 278 81 226 135 q 422 26 329 26 q 609 100 533 26 q 707 303 685 174 l 781 711 q 785 756 785 736 q 694 851 785 851 q 691 860 690 851 q 694 868 692 868 l 753 867 q 822 864 797 864 q 890 867 846 864 l 940 868 z "},"Ů":{"ha":860,"x_min":124,"x_max":944,"o":"m 781 711 q 785 756 785 736 q 694 851 785 851 q 691 860 690 851 q 694 868 692 868 l 753 867 q 822 864 797 864 q 890 867 846 864 l 940 868 q 945 860 946 868 q 940 851 944 851 q 858 813 890 851 q 813 706 825 775 l 740 297 q 618 65 715 149 q 383 -18 521 -18 q 193 47 263 -18 q 124 226 124 113 q 131 299 124 257 l 213 758 q 217 801 217 783 q 198 842 217 832 q 129 851 179 851 q 125 860 125 851 q 128 868 125 868 l 193 867 q 278 864 246 864 q 372 867 317 864 l 429 868 q 434 860 435 868 q 429 851 433 851 q 362 842 385 851 q 328 813 339 833 q 310 749 317 792 l 236 340 q 226 243 226 290 q 278 81 226 135 q 422 26 329 26 q 609 100 533 26 q 707 303 685 174 l 781 711 m 575 928 q 487 960 519 928 q 454 1039 454 993 q 495 1117 454 1089 q 588 1146 536 1146 q 674 1114 639 1146 q 710 1035 710 1082 q 669 957 710 986 q 575 928 628 928 m 596 943 q 636 1011 636 943 q 614 1094 636 1058 q 561 1129 592 1129 q 525 1065 525 1129 q 545 981 525 1019 q 596 943 565 943 z "},"Ũ":{"ha":860,"x_min":124,"x_max":944,"o":"m 781 711 q 785 756 785 736 q 694 851 785 851 q 691 860 690 851 q 694 868 692 868 l 753 867 q 822 864 797 864 q 890 867 846 864 l 940 868 q 945 860 946 868 q 940 851 944 851 q 858 813 890 851 q 813 706 825 775 l 740 297 q 618 65 715 149 q 383 -18 521 -18 q 193 47 263 -18 q 124 226 124 113 q 131 299 124 257 l 213 758 q 217 801 217 783 q 198 842 217 832 q 129 851 179 851 q 125 860 125 851 q 128 868 125 868 l 193 867 q 278 864 246 864 q 372 867 317 864 l 429 868 q 434 860 435 868 q 429 851 433 851 q 362 842 385 851 q 328 813 339 833 q 310 749 317 792 l 236 340 q 226 243 226 290 q 278 81 226 135 q 422 26 329 26 q 609 100 533 26 q 707 303 685 174 l 781 711 m 411 994 q 404 998 407 994 q 404 1004 401 1001 q 529 1097 469 1097 q 599 1083 549 1097 q 701 1064 663 1064 q 744 1073 728 1064 q 778 1101 760 1082 l 779 1101 q 787 1098 783 1101 q 788 1092 790 1094 q 724 1017 749 1036 q 669 997 700 997 q 586 1014 642 997 q 551 1024 581 1015 q 490 1032 521 1032 q 451 1025 465 1032 q 428 1008 438 1018 q 414 994 418 999 l 411 994 z "},"V":{"ha":826,"x_min":104,"x_max":928,"o":"m 922 868 q 928 860 928 868 q 922 851 928 851 q 844 827 879 851 q 772 732 810 803 l 394 1 q 378 -4 390 -4 q 361 1 363 -4 l 193 753 q 162 830 181 808 q 107 851 143 851 q 104 860 104 851 q 107 868 104 868 l 164 867 q 222 864 203 864 q 317 867 264 864 l 372 868 q 376 860 376 868 q 372 851 376 851 q 311 839 332 851 q 290 794 290 826 q 294 767 290 783 l 435 144 l 740 738 q 758 797 758 772 q 671 851 758 851 q 667 860 667 851 q 671 868 667 868 l 725 867 q 810 864 769 864 q 868 867 832 864 l 922 868 z "},"W":{"ha":1147,"x_min":103,"x_max":1249,"o":"m 1243 868 q 1249 860 1249 868 q 1243 851 1249 851 q 1165 827 1200 851 q 1094 732 1131 803 l 714 1 q 699 -4 713 -4 q 683 1 685 -4 l 594 390 l 394 1 q 378 -4 390 -4 q 361 1 363 -4 l 193 753 q 162 830 181 808 q 107 851 143 851 q 103 860 103 851 q 107 868 103 868 l 164 867 q 222 864 203 864 q 307 867 260 864 l 357 868 q 363 860 363 868 q 357 851 363 851 q 306 839 324 851 q 289 794 289 826 q 292 767 289 778 l 435 138 l 586 432 l 513 753 q 485 830 501 808 q 435 851 468 851 q 431 860 431 851 q 435 868 431 868 l 488 867 q 543 864 526 864 q 606 867 572 864 l 640 868 q 647 860 647 868 q 640 851 647 851 q 611 846 619 851 q 603 825 603 840 q 613 767 603 813 l 661 550 l 757 738 q 783 817 783 789 q 738 851 783 851 q 733 860 733 851 q 738 868 733 868 l 772 867 q 825 864 800 864 q 879 867 849 864 l 928 868 q 933 860 933 868 q 928 851 933 851 q 856 828 888 851 q 788 732 825 804 l 671 506 l 754 138 l 1061 738 q 1081 800 1081 774 q 1004 851 1081 851 q 999 860 999 851 q 1004 868 999 868 l 1054 867 q 1131 864 1096 864 q 1189 867 1156 864 l 1243 868 z "},"Ẃ":{"ha":1147,"x_min":103,"x_max":1249,"o":"m 1243 868 q 1249 860 1249 868 q 1243 851 1249 851 q 1165 827 1200 851 q 1094 732 1131 803 l 714 1 q 699 -4 713 -4 q 683 1 685 -4 l 594 390 l 394 1 q 378 -4 390 -4 q 361 1 363 -4 l 193 753 q 162 830 181 808 q 107 851 143 851 q 103 860 103 851 q 107 868 103 868 l 164 867 q 222 864 203 864 q 307 867 260 864 l 357 868 q 363 860 363 868 q 357 851 363 851 q 306 839 324 851 q 289 794 289 826 q 292 767 289 778 l 435 138 l 586 432 l 513 753 q 485 830 501 808 q 435 851 468 851 q 431 860 431 851 q 435 868 431 868 l 488 867 q 543 864 526 864 q 606 867 572 864 l 640 868 q 647 860 647 868 q 640 851 647 851 q 611 846 619 851 q 603 825 603 840 q 613 767 603 813 l 661 550 l 757 738 q 783 817 783 789 q 738 851 783 851 q 733 860 733 851 q 738 868 733 868 l 772 867 q 825 864 800 864 q 879 867 849 864 l 928 868 q 933 860 933 868 q 928 851 933 851 q 856 828 888 851 q 788 732 825 804 l 671 506 l 754 138 l 1061 738 q 1081 800 1081 774 q 1004 851 1081 851 q 999 860 999 851 q 1004 868 999 868 l 1054 867 q 1131 864 1096 864 q 1189 867 1156 864 l 1243 868 m 608 942 q 601 948 603 942 q 604 957 600 954 q 695 1013 650 982 q 753 1051 740 1043 l 813 1093 q 851 1088 819 1097 q 908 1065 883 1078 q 919 1050 932 1053 q 762 1003 833 1029 q 611 943 690 978 l 608 942 z "},"Ŵ":{"ha":1147,"x_min":103,"x_max":1249,"o":"m 1243 868 q 1249 860 1249 868 q 1243 851 1249 851 q 1165 827 1200 851 q 1094 732 1131 803 l 714 1 q 699 -4 713 -4 q 683 1 685 -4 l 594 390 l 394 1 q 378 -4 390 -4 q 361 1 363 -4 l 193 753 q 162 830 181 808 q 107 851 143 851 q 103 860 103 851 q 107 868 103 868 l 164 867 q 222 864 203 864 q 307 867 260 864 l 357 868 q 363 860 363 868 q 357 851 363 851 q 306 839 324 851 q 289 794 289 826 q 292 767 289 778 l 435 138 l 586 432 l 513 753 q 485 830 501 808 q 435 851 468 851 q 431 860 431 851 q 435 868 431 868 l 488 867 q 543 864 526 864 q 606 867 572 864 l 640 868 q 647 860 647 868 q 640 851 647 851 q 611 846 619 851 q 603 825 603 840 q 613 767 603 813 l 661 550 l 757 738 q 783 817 783 789 q 738 851 783 851 q 733 860 733 851 q 738 868 733 868 l 772 867 q 825 864 800 864 q 879 867 849 864 l 928 868 q 933 860 933 868 q 928 851 933 851 q 856 828 888 851 q 788 732 825 804 l 671 506 l 754 138 l 1061 738 q 1081 800 1081 774 q 1004 851 1081 851 q 999 860 999 851 q 1004 868 999 868 l 1054 867 q 1131 864 1096 864 q 1189 867 1156 864 l 1243 868 m 557 917 q 550 920 553 917 q 550 926 547 924 l 703 1069 q 715 1076 707 1076 q 728 1069 724 1076 l 835 926 l 836 924 q 832 918 836 921 q 825 917 828 915 l 703 988 l 558 917 l 557 917 z "},"Ẅ":{"ha":1147,"x_min":103,"x_max":1249,"o":"m 1243 868 q 1249 860 1249 868 q 1243 851 1249 851 q 1165 827 1200 851 q 1094 732 1131 803 l 714 1 q 699 -4 713 -4 q 683 1 685 -4 l 594 390 l 394 1 q 378 -4 390 -4 q 361 1 363 -4 l 193 753 q 162 830 181 808 q 107 851 143 851 q 103 860 103 851 q 107 868 103 868 l 164 867 q 222 864 203 864 q 307 867 260 864 l 357 868 q 363 860 363 868 q 357 851 363 851 q 306 839 324 851 q 289 794 289 826 q 292 767 289 778 l 435 138 l 586 432 l 513 753 q 485 830 501 808 q 435 851 468 851 q 431 860 431 851 q 435 868 431 868 l 488 867 q 543 864 526 864 q 606 867 572 864 l 640 868 q 647 860 647 868 q 640 851 647 851 q 611 846 619 851 q 603 825 603 840 q 613 767 603 813 l 661 550 l 757 738 q 783 817 783 789 q 738 851 783 851 q 733 860 733 851 q 738 868 733 868 l 772 867 q 825 864 800 864 q 879 867 849 864 l 928 868 q 933 860 933 868 q 928 851 933 851 q 856 828 888 851 q 788 732 825 804 l 671 506 l 754 138 l 1061 738 q 1081 800 1081 774 q 1004 851 1081 851 q 999 860 999 851 q 1004 868 999 868 l 1054 867 q 1131 864 1096 864 q 1189 867 1156 864 l 1243 868 m 607 989 q 560 1006 576 989 q 543 1053 543 1022 q 560 1098 543 1082 q 607 1114 576 1114 q 652 1098 636 1114 q 668 1053 668 1082 q 652 1006 668 1022 q 607 989 636 989 m 819 989 q 772 1006 789 989 q 756 1053 756 1022 q 772 1098 756 1082 q 819 1114 789 1114 q 865 1098 849 1114 q 882 1053 882 1082 q 865 1006 882 1022 q 819 989 849 989 z "},"Ẁ":{"ha":1147,"x_min":103,"x_max":1249,"o":"m 1243 868 q 1249 860 1249 868 q 1243 851 1249 851 q 1165 827 1200 851 q 1094 732 1131 803 l 714 1 q 699 -4 713 -4 q 683 1 685 -4 l 594 390 l 394 1 q 378 -4 390 -4 q 361 1 363 -4 l 193 753 q 162 830 181 808 q 107 851 143 851 q 103 860 103 851 q 107 868 103 868 l 164 867 q 222 864 203 864 q 307 867 260 864 l 357 868 q 363 860 363 868 q 357 851 363 851 q 306 839 324 851 q 289 794 289 826 q 292 767 289 778 l 435 138 l 586 432 l 513 753 q 485 830 501 808 q 435 851 468 851 q 431 860 431 851 q 435 868 431 868 l 488 867 q 543 864 526 864 q 606 867 572 864 l 640 868 q 647 860 647 868 q 640 851 647 851 q 611 846 619 851 q 603 825 603 840 q 613 767 603 813 l 661 550 l 757 738 q 783 817 783 789 q 738 851 783 851 q 733 860 733 851 q 738 868 733 868 l 772 867 q 825 864 800 864 q 879 867 849 864 l 928 868 q 933 860 933 868 q 928 851 933 851 q 856 828 888 851 q 788 732 825 804 l 671 506 l 754 138 l 1061 738 q 1081 800 1081 774 q 1004 851 1081 851 q 999 860 999 851 q 1004 868 999 868 l 1054 867 q 1131 864 1096 864 q 1189 867 1156 864 l 1243 868 m 808 951 q 678 1006 738 983 q 546 1050 619 1028 q 559 1065 532 1053 q 623 1088 586 1078 q 665 1093 660 1097 q 818 964 725 1039 q 821 960 821 964 q 817 953 821 956 q 808 951 813 950 z "},"X":{"ha":804,"x_min":-32,"x_max":868,"o":"m 861 868 q 868 860 868 868 q 861 851 868 851 q 664 713 775 851 l 476 476 l 615 115 q 663 39 635 61 q 738 17 690 17 q 743 8 743 17 q 738 0 743 0 q 686 1 706 0 l 617 3 l 517 1 q 453 0 492 0 q 447 8 447 0 q 453 17 447 17 q 522 51 522 17 q 518 71 522 61 l 396 390 l 196 135 q 157 56 157 86 q 226 17 157 17 q 232 8 232 17 q 226 0 232 0 q 165 1 188 0 l 74 3 l 22 1 q -26 0 7 0 q -32 8 -32 0 q -26 17 -32 17 q 66 49 15 17 q 168 147 117 82 l 383 419 l 256 753 q 211 828 236 806 q 147 851 186 851 q 142 860 142 851 q 147 868 142 868 l 194 867 q 240 864 225 864 q 344 867 283 864 l 408 868 q 414 860 414 868 q 408 851 414 851 q 347 818 347 851 q 353 796 347 807 l 464 506 l 636 726 q 678 811 678 781 q 610 851 678 851 q 604 860 604 851 q 610 868 604 868 l 669 867 q 764 864 728 864 q 815 867 785 864 l 861 868 z "},"Y":{"ha":738,"x_min":96,"x_max":840,"o":"m 836 868 q 840 860 840 868 q 836 851 840 851 q 651 714 747 851 l 453 432 l 396 113 q 390 65 390 86 q 410 26 390 36 q 482 17 429 17 q 486 8 486 17 q 482 0 486 0 q 419 1 442 0 l 331 3 l 238 1 q 176 0 215 0 q 171 8 171 0 q 176 17 171 17 q 245 24 222 17 q 279 51 268 32 q 297 113 290 71 l 350 418 l 208 753 q 161 828 185 806 q 101 851 138 851 q 96 860 96 851 q 101 868 96 868 l 154 867 q 210 864 193 864 q 307 867 246 864 l 369 868 q 374 861 374 868 q 368 851 374 851 q 315 844 332 851 q 299 822 299 838 q 306 796 299 813 l 444 464 l 624 729 q 656 807 656 774 q 596 851 656 851 q 592 860 592 851 q 596 868 592 868 l 657 867 q 743 864 710 864 q 792 867 764 864 l 836 868 z "},"Ý":{"ha":738,"x_min":96,"x_max":840,"o":"m 836 868 q 840 860 840 868 q 836 851 840 851 q 651 714 747 851 l 453 432 l 396 113 q 390 65 390 86 q 410 26 390 36 q 482 17 429 17 q 486 8 486 17 q 482 0 486 0 q 419 1 442 0 l 331 3 l 238 1 q 176 0 215 0 q 171 8 171 0 q 176 17 171 17 q 245 24 222 17 q 279 51 268 32 q 297 113 290 71 l 350 418 l 208 753 q 161 828 185 806 q 101 851 138 851 q 96 860 96 851 q 101 868 96 868 l 154 867 q 210 864 193 864 q 307 867 246 864 l 369 868 q 374 861 374 868 q 368 851 374 851 q 315 844 332 851 q 299 822 299 838 q 306 796 299 813 l 444 464 l 624 729 q 656 807 656 774 q 596 851 656 851 q 592 860 592 851 q 596 868 592 868 l 657 867 q 743 864 710 864 q 792 867 764 864 l 836 868 m 408 942 q 401 948 403 942 q 404 957 400 954 q 495 1013 450 982 q 553 1051 540 1043 l 613 1093 q 651 1088 619 1097 q 708 1065 683 1078 q 719 1050 732 1053 q 562 1003 633 1029 q 411 943 490 978 l 408 942 z "},"Ŷ":{"ha":738,"x_min":96,"x_max":840,"o":"m 836 868 q 840 860 840 868 q 836 851 840 851 q 651 714 747 851 l 453 432 l 396 113 q 390 65 390 86 q 410 26 390 36 q 482 17 429 17 q 486 8 486 17 q 482 0 486 0 q 419 1 442 0 l 331 3 l 238 1 q 176 0 215 0 q 171 8 171 0 q 176 17 171 17 q 245 24 222 17 q 279 51 268 32 q 297 113 290 71 l 350 418 l 208 753 q 161 828 185 806 q 101 851 138 851 q 96 860 96 851 q 101 868 96 868 l 154 867 q 210 864 193 864 q 307 867 246 864 l 369 868 q 374 861 374 868 q 368 851 374 851 q 315 844 332 851 q 299 822 299 838 q 306 796 299 813 l 444 464 l 624 729 q 656 807 656 774 q 596 851 656 851 q 592 860 592 851 q 596 868 592 868 l 657 867 q 743 864 710 864 q 792 867 764 864 l 836 868 m 357 917 q 350 920 353 917 q 350 926 347 924 l 503 1069 q 515 1076 507 1076 q 528 1069 524 1076 l 635 926 l 636 924 q 632 918 636 921 q 625 917 628 915 l 503 988 l 358 917 l 357 917 z "},"Ÿ":{"ha":738,"x_min":96,"x_max":840,"o":"m 836 868 q 840 860 840 868 q 836 851 840 851 q 651 714 747 851 l 453 432 l 396 113 q 390 65 390 86 q 410 26 390 36 q 482 17 429 17 q 486 8 486 17 q 482 0 486 0 q 419 1 442 0 l 331 3 l 238 1 q 176 0 215 0 q 171 8 171 0 q 176 17 171 17 q 245 24 222 17 q 279 51 268 32 q 297 113 290 71 l 350 418 l 208 753 q 161 828 185 806 q 101 851 138 851 q 96 860 96 851 q 101 868 96 868 l 154 867 q 210 864 193 864 q 307 867 246 864 l 369 868 q 374 861 374 868 q 368 851 374 851 q 315 844 332 851 q 299 822 299 838 q 306 796 299 813 l 444 464 l 624 729 q 656 807 656 774 q 596 851 656 851 q 592 860 592 851 q 596 868 592 868 l 657 867 q 743 864 710 864 q 792 867 764 864 l 836 868 m 407 989 q 360 1006 376 989 q 343 1053 343 1022 q 360 1098 343 1082 q 407 1114 376 1114 q 452 1098 436 1114 q 468 1053 468 1082 q 452 1006 468 1022 q 407 989 436 989 m 619 989 q 572 1006 589 989 q 556 1053 556 1022 q 572 1098 556 1082 q 619 1114 589 1114 q 665 1098 649 1114 q 682 1053 682 1082 q 665 1006 682 1022 q 619 989 649 989 z "},"Ẏ":{"ha":738,"x_min":96,"x_max":840,"o":"m 836 868 q 840 860 840 868 q 836 851 840 851 q 651 714 747 851 l 453 432 l 396 113 q 390 65 390 86 q 410 26 390 36 q 482 17 429 17 q 486 8 486 17 q 482 0 486 0 q 419 1 442 0 l 331 3 l 238 1 q 176 0 215 0 q 171 8 171 0 q 176 17 171 17 q 245 24 222 17 q 279 51 268 32 q 297 113 290 71 l 350 418 l 208 753 q 161 828 185 806 q 101 851 138 851 q 96 860 96 851 q 101 868 96 868 l 154 867 q 210 864 193 864 q 307 867 246 864 l 369 868 q 374 861 374 868 q 368 851 374 851 q 315 844 332 851 q 299 822 299 838 q 306 796 299 813 l 444 464 l 624 729 q 656 807 656 774 q 596 851 656 851 q 592 860 592 851 q 596 868 592 868 l 657 867 q 743 864 710 864 q 792 867 764 864 l 836 868 m 507 986 q 458 1003 476 986 q 440 1051 440 1021 q 458 1099 440 1082 q 507 1115 476 1115 q 555 1099 538 1115 q 572 1051 572 1082 q 555 1003 572 1021 q 507 986 538 986 z "},"Ỵ":{"ha":738,"x_min":96,"x_max":840,"o":"m 836 868 q 840 860 840 868 q 836 851 840 851 q 651 714 747 851 l 453 432 l 396 113 q 390 65 390 86 q 410 26 390 36 q 482 17 429 17 q 486 8 486 17 q 482 0 486 0 q 419 1 442 0 l 331 3 l 238 1 q 176 0 215 0 q 171 8 171 0 q 176 17 171 17 q 245 24 222 17 q 279 51 268 32 q 297 113 290 71 l 350 418 l 208 753 q 161 828 185 806 q 101 851 138 851 q 96 860 96 851 q 101 868 96 868 l 154 867 q 210 864 193 864 q 307 867 246 864 l 369 868 q 374 861 374 868 q 368 851 374 851 q 315 844 332 851 q 299 822 299 838 q 306 796 299 813 l 444 464 l 624 729 q 656 807 656 774 q 596 851 656 851 q 592 860 592 851 q 596 868 592 868 l 657 867 q 743 864 710 864 q 792 867 764 864 l 836 868 m 310 -268 q 262 -251 279 -268 q 244 -203 244 -233 q 262 -157 244 -174 q 310 -140 279 -140 q 358 -157 340 -140 q 375 -203 375 -174 q 358 -251 375 -235 q 310 -268 340 -268 z "},"Ỳ":{"ha":738,"x_min":96,"x_max":840,"o":"m 836 868 q 840 860 840 868 q 836 851 840 851 q 651 714 747 851 l 453 432 l 396 113 q 390 65 390 86 q 410 26 390 36 q 482 17 429 17 q 486 8 486 17 q 482 0 486 0 q 419 1 442 0 l 331 3 l 238 1 q 176 0 215 0 q 171 8 171 0 q 176 17 171 17 q 245 24 222 17 q 279 51 268 32 q 297 113 290 71 l 350 418 l 208 753 q 161 828 185 806 q 101 851 138 851 q 96 860 96 851 q 101 868 96 868 l 154 867 q 210 864 193 864 q 307 867 246 864 l 369 868 q 374 861 374 868 q 368 851 374 851 q 315 844 332 851 q 299 822 299 838 q 306 796 299 813 l 444 464 l 624 729 q 656 807 656 774 q 596 851 656 851 q 592 860 592 851 q 596 868 592 868 l 657 867 q 743 864 710 864 q 792 867 764 864 l 836 868 m 608 951 q 478 1006 538 983 q 346 1050 419 1028 q 359 1065 332 1053 q 423 1088 386 1078 q 465 1093 460 1097 q 618 964 525 1039 q 621 960 621 964 q 617 953 621 956 q 608 951 613 950 z "},"Ỷ":{"ha":738,"x_min":96,"x_max":840,"o":"m 836 868 q 840 860 840 868 q 836 851 840 851 q 651 714 747 851 l 453 432 l 396 113 q 390 65 390 86 q 410 26 390 36 q 482 17 429 17 q 486 8 486 17 q 482 0 486 0 q 419 1 442 0 l 331 3 l 238 1 q 176 0 215 0 q 171 8 171 0 q 176 17 171 17 q 245 24 222 17 q 279 51 268 32 q 297 113 290 71 l 350 418 l 208 753 q 161 828 185 806 q 101 851 138 851 q 96 860 96 851 q 101 868 96 868 l 154 867 q 210 864 193 864 q 307 867 246 864 l 369 868 q 374 861 374 868 q 368 851 374 851 q 315 844 332 851 q 299 822 299 838 q 306 796 299 813 l 444 464 l 624 729 q 656 807 656 774 q 596 851 656 851 q 592 860 592 851 q 596 868 592 868 l 657 867 q 743 864 710 864 q 792 867 764 864 l 836 868 m 493 904 q 486 901 494 901 q 476 904 478 900 q 475 924 475 911 q 483 967 475 949 q 510 1017 492 986 q 533 1059 525 1043 q 540 1094 540 1075 q 528 1128 540 1117 q 494 1140 515 1140 q 451 1129 474 1140 l 449 1129 q 442 1133 444 1129 q 443 1142 439 1138 q 543 1172 490 1172 q 608 1152 585 1172 q 628 1100 631 1132 q 607 1051 625 1074 q 557 1000 589 1028 q 507 948 522 968 q 493 904 492 928 z "},"Ȳ":{"ha":738,"x_min":96,"x_max":840,"o":"m 836 868 q 840 860 840 868 q 836 851 840 851 q 651 714 747 851 l 453 432 l 396 113 q 390 65 390 86 q 410 26 390 36 q 482 17 429 17 q 486 8 486 17 q 482 0 486 0 q 419 1 442 0 l 331 3 l 238 1 q 176 0 215 0 q 171 8 171 0 q 176 17 171 17 q 245 24 222 17 q 279 51 268 32 q 297 113 290 71 l 350 418 l 208 753 q 161 828 185 806 q 101 851 138 851 q 96 860 96 851 q 101 868 96 868 l 154 867 q 210 864 193 864 q 307 867 246 864 l 369 868 q 374 861 374 868 q 368 851 374 851 q 315 844 332 851 q 299 822 299 838 q 306 796 299 813 l 444 464 l 624 729 q 656 807 656 774 q 596 851 656 851 q 592 860 592 851 q 596 868 592 868 l 657 867 q 743 864 710 864 q 792 867 764 864 l 836 868 m 351 994 q 342 1017 342 994 q 351 1039 342 1039 l 676 1039 q 685 1032 682 1039 q 688 1017 688 1025 q 685 1001 688 1008 q 676 994 682 994 l 351 994 z "}}}
